<svg width="177" height="56" viewBox="0 0 177 56" fill="none" xmlns="http://www.w3.org/2000/svg">
<g clip-path="url(#clip0_2235_10101)">
<path fill-rule="evenodd" clip-rule="evenodd" d="M27.222 43.9884L27.2502 43.9139L27.324 44.1116L27.4083 44.3373C27.9397 45.7493 28.3499 46.8036 29.4973 47.943C29.7842 48.2312 30.0964 48.4926 30.4299 48.7242C30.7128 48.9229 31.0087 49.1021 31.3155 49.2606C31.1396 48.6379 30.931 48.0251 30.6906 47.4248C30.4349 46.7654 30.1423 46.1213 29.814 45.4955C29.4491 44.8056 29.0475 44.1362 28.611 43.4901C28.1869 42.8745 27.7325 42.2808 27.2496 41.7111L27.2214 41.6831L27.1842 41.7111C26.6994 42.2855 26.2423 42.8783 25.8225 43.4901C25.3862 44.1363 24.9847 44.8057 24.6198 45.4955C24.2915 46.1213 23.9987 46.7655 23.7428 47.4248C23.5027 48.0252 23.2942 48.638 23.1181 49.2606C23.4249 49.102 23.7208 48.9228 24.0038 48.7242C24.3372 48.4925 24.6493 48.2311 24.9364 47.943C26.0928 46.8039 26.4937 45.7496 27.0254 44.3373L27.1097 44.1116L27.1835 43.9139L27.2207 43.9884H27.222ZM27.222 53.9477L27.1848 53.9102C26.9706 53.5269 26.7308 53.1588 26.467 52.8085C26.1754 52.4197 25.8575 52.0518 25.5155 51.7074C25.1999 51.3899 24.8634 51.0943 24.5083 50.8227C24.192 50.5774 23.8618 50.3511 23.5193 50.1449C23.882 49.9637 24.2311 49.756 24.5638 49.5234C24.9378 49.2573 25.29 48.9614 25.6173 48.6387C25.9539 48.31 26.2599 47.9509 26.5316 47.5659C26.7773 47.2266 26.9956 46.8678 27.1842 46.4931L27.2214 46.4461L27.2496 46.4931C27.4382 46.8679 27.6564 47.2266 27.9022 47.5659C28.1738 47.951 28.4799 48.3101 28.8165 48.6387C29.1437 48.9615 29.496 49.2573 29.87 49.5234C30.2027 49.7559 30.5518 49.9636 30.9145 50.1449C30.572 50.3512 30.2418 50.5775 29.9255 50.8227C29.5704 51.0943 29.2339 51.3899 28.9183 51.7074C28.5763 52.0518 28.2584 52.4197 27.9668 52.8085C27.703 53.1588 27.4632 53.5269 27.249 53.9102L27.2208 53.9477H27.222ZM39.9985 47.1323L35.6898 47.3771L34.5237 48.422C34.5141 48.4408 34.4958 48.4503 34.4862 48.4691L33.7589 49.1098C33.6623 49.1945 33.5365 49.2373 33.4088 49.2288C33.2811 49.2203 33.1618 49.1613 33.077 49.0646C32.9922 48.9678 32.9487 48.8412 32.9559 48.7122C32.9631 48.5832 33.0205 48.4624 33.1155 48.3759L33.162 48.3382L33.1529 48.3288L35.2883 46.399L37.2654 46.2947C38.3192 46.5769 39.2332 46.8972 39.998 47.1325L39.9985 47.1323ZM21.58 48.7139V48.7233C21.4924 48.819 21.3713 48.8764 21.2424 48.8834C21.1136 48.8905 20.987 48.8465 20.8898 48.7609L20.1719 48.1202L20.1626 48.1014L19.3044 47.339L14.2135 47.0759C15.0784 46.7369 15.9627 46.4509 16.8618 46.2194L19.7062 46.3699L21.0495 47.5842L21.544 48.0266C21.6383 48.1134 21.695 48.2342 21.7017 48.3628C21.7085 48.4914 21.6647 48.6176 21.58 48.7139ZM30.5329 26.1971V26.1881C30.4057 26.1665 30.292 26.0949 30.2169 25.9891C30.1417 25.8832 30.1111 25.7516 30.1317 25.6231L30.2995 24.6065C29.7771 24.3333 29.2645 24.023 29.0776 23.2698H28.8634C28.8001 23.2713 28.7372 23.2601 28.6783 23.2366C28.6194 23.2131 28.5658 23.178 28.5206 23.1333C28.4754 23.0885 28.4395 23.0351 28.4152 22.9761C28.3908 22.9171 28.3784 22.8538 28.3787 22.7899C28.378 22.725 28.39 22.6606 28.414 22.6004C28.438 22.5401 28.4735 22.4853 28.5186 22.4389C28.5636 22.3926 28.6172 22.3557 28.6764 22.3303C28.7356 22.3049 28.7991 22.2915 28.8634 22.2909H29.0221C29.3111 21.2366 29.768 21.1991 30.6355 20.7845C30.6821 19.6075 30.7754 16.5016 30.4956 15.485C29.9172 15.3626 26.2148 15.3816 25.5251 15.4567C25.3385 15.9186 25.2824 16.0874 24.9094 16.4266C24.5364 16.7935 24.322 16.8406 23.8928 16.9816C23.8275 18.8363 23.9019 20.3422 24.0047 22.1309C24.0124 22.1549 24.0156 22.1802 24.0141 22.2054L24.0233 22.2809H24.1632C24.2275 22.2803 24.2913 22.2924 24.3509 22.3167C24.4106 22.3409 24.4649 22.3768 24.5108 22.4222C24.5567 22.4676 24.5933 22.5218 24.6185 22.5815C24.6437 22.6412 24.6569 22.7053 24.6575 22.7702C24.6572 22.9008 24.6062 23.0261 24.5156 23.1193C24.425 23.2126 24.3019 23.2663 24.1725 23.2692H24.0886C24.0743 23.383 24.0204 23.488 23.9367 23.5655C23.8529 23.643 23.7446 23.6881 23.6311 23.6927C23.5114 23.6994 23.3935 23.6621 23.2991 23.5877C23.2047 23.5132 23.1403 23.4066 23.118 23.2878L16.9725 23.3161C17.2536 24.0174 17.6135 24.6839 18.045 25.3024C18.4273 25.8294 17.6997 26.3007 17.3083 25.7449C15.2565 22.7607 14.5853 19.1083 15.5551 15.5877C15.5827 15.4935 15.6109 15.3994 15.6389 15.3055C15.7135 15.0892 15.7883 14.8631 15.8629 14.6465C16.3011 13.4226 16.5714 13.0373 17.0097 12.152C17.4761 11.5588 18.0543 12.0954 17.8302 12.6228C17.7564 12.6973 17.0752 14.2415 16.9725 14.4582L21.5794 14.4771C21.682 14.2418 21.8032 13.8181 22.2141 13.4605C22.6525 13.0744 22.9227 13.0272 23.3986 12.9144C23.5291 12.5944 23.6411 11.8792 23.7434 11.4928C23.9609 10.6083 24.2639 9.74758 24.6482 8.92295C24.8441 8.50889 25.1426 8.12299 25.283 7.79341C23.9397 7.81248 22.1684 8.77261 21.0306 9.50686C20.1913 10.0433 19.6318 9.21498 20.573 8.61289C23.0227 7.03266 25.9414 6.36374 28.827 6.72123C30.4048 6.93038 31.9278 7.44499 33.3124 8.23682C33.5929 8.39699 34.0027 8.73581 34.2266 8.83012C34.4876 8.95215 34.8421 8.61348 35.2618 8.55701C35.65 8.50646 36.0443 8.5723 36.3957 8.74633C36.7471 8.92037 37.0401 9.19491 37.238 9.53577C37.8817 10.6748 37.2008 11.4466 37.2008 11.7668L37.9471 13.0661C38.5534 14.4403 39.2154 15.9557 39.2904 17.9325C39.3937 20.5871 38.5908 23.8065 37.0895 25.6046C36.5112 26.3008 36.0633 25.5666 36.3433 25.1902C36.7069 24.6914 37.1552 24.1642 37.4715 23.298H32.8922C32.8832 23.298 32.5193 24.5218 31.2789 24.6912L31.0924 25.7926C31.0712 25.9211 31.0005 26.0358 30.8956 26.1117C30.7908 26.1876 30.6604 26.2183 30.5331 26.1973L30.5329 26.1971ZM23.016 22.3285C23.0253 22.3285 23.0346 22.3192 23.044 22.3192V22.206C22.9239 20.4297 22.8928 18.6484 22.9507 16.8689C22.2233 16.6618 21.8318 16.1253 21.5799 15.4386L16.609 15.4664C15.9191 16.8125 15.8912 20.9543 16.609 22.3287H23.0154L23.016 22.3285ZM48.5221 27.3927L47.0017 29.3696C46.9831 29.398 46.9645 29.426 46.9459 29.4542L46.6007 29.8779V29.8872L46.3301 30.2262C46.2467 30.329 46.1266 30.3946 45.9956 30.4087C45.8647 30.4228 45.7335 30.3842 45.6306 30.3014C45.5793 30.2603 45.5366 30.2093 45.505 30.1514C45.4734 30.0935 45.4536 30.0299 45.4466 29.9642C45.4397 29.8984 45.4457 29.832 45.4645 29.7686C45.4833 29.7053 45.5143 29.6464 45.5559 29.5953L46.1717 28.8235C46.1786 28.8093 46.1879 28.7965 46.1993 28.7857L47.2717 27.3924L46.1993 25.999C46.1877 25.9884 46.1783 25.9757 46.1717 25.9614L45.5559 25.1896C45.5143 25.1386 45.4832 25.0796 45.4645 25.0163C45.4457 24.953 45.4396 24.8865 45.4465 24.8208C45.4535 24.755 45.4734 24.6914 45.5049 24.6335C45.5365 24.5756 45.5792 24.5246 45.6306 24.4835C45.7344 24.4029 45.865 24.3657 45.9953 24.3798C46.1256 24.3938 46.2455 24.458 46.3301 24.5589L46.6007 24.8979V24.9073L46.9459 25.3309C46.9645 25.3587 46.9831 25.3872 47.0017 25.4155L48.5221 27.3922V27.3927ZM5.75417 27.3927L7.28328 29.3696C7.29514 29.3997 7.31082 29.4281 7.32992 29.4542L7.67504 29.8779L7.68419 29.8872L7.94546 30.2262C8.02901 30.3287 8.14911 30.3941 8.27991 30.4081C8.41071 30.4222 8.54175 30.3839 8.64484 30.3014C8.69618 30.2603 8.7389 30.2094 8.7705 30.1515C8.80211 30.0936 8.82197 30.0299 8.82892 29.9642C8.83587 29.8984 8.82978 29.832 8.811 29.7686C8.79222 29.7053 8.76112 29.6464 8.71953 29.5953L8.11329 28.8235C8.0947 28.8047 8.08554 28.7953 8.0761 28.7857L7.00356 27.3924L8.0761 25.999C8.0854 25.99 8.0947 25.9805 8.11329 25.9614L8.71953 25.1896C8.76112 25.1386 8.79222 25.0796 8.811 25.0163C8.82978 24.953 8.83587 24.8865 8.82892 24.8208C8.82197 24.755 8.80211 24.6914 8.7705 24.6335C8.7389 24.5756 8.69618 24.5246 8.64484 24.4835C8.54094 24.4031 8.4104 24.3661 8.28023 24.3802C8.15005 24.3942 8.0302 24.4582 7.94546 24.5589L7.68419 24.8979L7.67504 24.9073L7.32992 25.3309C7.31085 25.357 7.29517 25.3854 7.28328 25.4155L5.75432 27.3928L5.75417 27.3927ZM27.4642 0.301122L35.3636 7.43641L46.3311 8.02018L46.9374 19.156L54.2769 27.3927L46.9093 35.6951L46.3311 46.7558L42.3309 46.9815C42.3797 46.9227 42.4235 46.8597 42.4617 46.7934C42.5921 46.5638 42.6622 46.3045 42.6654 46.0399V45.9654L45.3885 45.8148L45.9389 35.3001L52.9516 27.3928L45.9667 19.5611L45.3981 8.97107L34.9719 8.41532L34.8414 8.29299L27.1383 1.3365L19.3791 8.37792L8.88752 8.96154L8.33766 19.4856L1.32451 27.3925L8.30903 35.2242L8.88707 45.8145L11.5171 45.9557V46.0309C11.5163 46.3687 11.628 46.6969 11.8341 46.9629L7.94531 46.7652L7.33908 35.6291L0 27.3927L7.37657 19.09L7.94561 8.02033L18.9781 7.4084L27.1383 0L27.4644 0.301271L27.4642 0.301122ZM42.7024 35.2622C42.749 35.1865 42.7957 35.121 42.8422 35.0456C42.9169 34.9422 42.9821 34.8294 43.0568 34.7162L43.1686 34.5466C43.1873 34.5091 43.2058 34.4721 43.2245 34.434C43.6158 33.7383 43.9256 32.999 44.1477 32.231C44.4412 31.2295 44.5765 30.1876 44.5487 29.1435L44.474 27.1668L43.644 28.9271C43.0289 30.1062 42.0595 31.0583 40.875 31.6468C40.2768 31.9488 39.6524 32.1947 39.0096 32.3812C38.9912 32.3905 38.963 32.3905 38.9444 32.4L38.7578 32.4566L38.7111 32.4751C38.6881 32.4757 38.6657 32.4823 38.6459 32.4942L38.0304 32.6919C37.9686 32.7101 37.911 32.7405 37.8611 32.7814C37.8111 32.8223 37.7697 32.8728 37.7393 32.9301C37.7089 32.9873 37.6902 33.0501 37.6841 33.1148C37.6781 33.1794 37.6849 33.2447 37.7041 33.3066C37.7233 33.3686 37.7546 33.4261 37.7961 33.4757C37.8377 33.5253 37.8886 33.5661 37.9459 33.5956C38.0032 33.6251 38.0657 33.6428 38.1299 33.6476C38.1941 33.6524 38.2585 33.6442 38.3195 33.6236L39.2335 33.3414C39.252 33.3321 39.2614 33.3321 39.2802 33.3223C39.8062 33.167 40.323 32.9816 40.8282 32.767C41.8329 32.3402 42.7336 31.6977 43.4675 30.8841C43.3861 31.39 43.2614 31.8877 43.0946 32.3717C42.8995 32.941 42.6497 33.4896 42.3486 34.0096V34.019C42.3391 34.019 42.3114 34.0566 42.2923 34.1036L41.8262 34.8097C41.7545 34.9183 41.7284 35.0512 41.7537 35.1791C41.7791 35.3071 41.8538 35.4197 41.9613 35.4921C42.0689 35.5645 42.2005 35.5908 42.3273 35.5652C42.4541 35.5396 42.5656 35.4642 42.6373 35.3557L42.7028 35.2618L42.7024 35.2622ZM11.6289 35.2622L11.6943 35.3561C11.7661 35.4648 11.8776 35.5402 12.0045 35.5659C12.1313 35.5915 12.263 35.5653 12.3707 35.4929C12.4784 35.4205 12.5531 35.3079 12.5785 35.1799C12.6039 35.0518 12.5779 34.9188 12.5062 34.8102L12.04 34.1041C12.0123 34.057 11.9934 34.0195 11.9841 34.0195L11.9748 34.0101C11.6767 33.4897 11.43 32.9411 11.2381 32.3722C11.0712 31.8882 10.9465 31.3904 10.8652 30.8846C11.5973 31.7001 12.4983 32.3429 13.5042 32.7674C14.0089 32.9835 14.5259 33.1689 15.0525 33.3227C15.0618 33.3324 15.0804 33.3324 15.09 33.3418L16.013 33.624C16.0736 33.6445 16.1376 33.6524 16.2013 33.6473C16.2649 33.6421 16.3269 33.6241 16.3835 33.5942C16.4401 33.5644 16.4902 33.5233 16.5307 33.4734C16.5712 33.4236 16.6013 33.366 16.6192 33.3041C16.6385 33.2429 16.6456 33.1785 16.6401 33.1146C16.6346 33.0506 16.6166 32.9884 16.5871 32.9315C16.5576 32.8746 16.5173 32.8242 16.4684 32.7831C16.4195 32.742 16.3631 32.7111 16.3023 32.6922L15.6866 32.4945C15.6637 32.4827 15.6385 32.4761 15.6128 32.4754L15.5756 32.4569L15.3893 32.4003C15.3672 32.3953 15.3453 32.389 15.3238 32.3815C14.678 32.1949 14.0505 31.9491 13.4491 31.6471C12.269 31.0552 11.3033 30.1035 10.6888 28.9268L9.8588 27.1665L9.78307 29.1437C9.75681 30.187 9.88882 31.2282 10.1745 32.2312C10.3998 32.9995 10.7128 33.7387 11.1071 34.4341C11.1181 34.4751 11.1372 34.5134 11.1632 34.5468L11.2753 34.7162C11.3404 34.8293 11.4151 34.942 11.4802 35.0456C11.5268 35.121 11.5826 35.1867 11.6297 35.2622H11.6289ZM27.5857 37.3708V39.1215C27.5689 39.246 27.5092 39.3604 27.4172 39.4449C27.3251 39.5293 27.2065 39.5784 27.0822 39.5834C26.9596 39.5678 26.8453 39.5127 26.7562 39.4262C26.6671 39.3397 26.6081 39.2266 26.5879 39.1035V38.5294L26.597 38.5104V37.3716C26.0286 36.6939 23.0536 33.7002 16.1523 35.1596L16.1337 42.1439C17.486 41.9651 20.9552 41.6449 23.5291 42.427C23.548 42.427 23.5757 42.4361 23.5944 42.4361L23.6877 42.4738C23.7636 42.4946 23.8383 42.5198 23.9114 42.5492H23.9208C23.7342 42.8409 23.557 43.1327 23.3894 43.4339L23.2861 43.3964C23.2769 43.3964 23.258 43.3867 23.2489 43.3867C20.2178 42.4644 15.7321 43.2079 15.7135 43.2079C15.6895 43.2162 15.6642 43.2193 15.6389 43.2171C15.5081 43.2163 15.3829 43.1635 15.2904 43.0702C15.1979 42.9769 15.1455 42.8505 15.1446 42.7185L15.154 36.5336L13.5312 36.543L13.5136 45.2204C16.428 44.0055 19.5821 43.4903 22.7274 43.7155H22.8021L23.2031 43.7534C23.0819 43.9697 22.9513 44.205 22.8394 44.4309C22.7835 44.525 22.7361 44.6192 22.69 44.7131C17.2432 44.3273 13.4201 46.3607 13.2524 46.4453C13.1833 46.491 13.1019 46.5141 13.0193 46.5113C12.887 46.5123 12.7598 46.4604 12.6654 46.3669C12.571 46.2733 12.5172 46.1458 12.5158 46.0123L12.5345 36.0445C12.5354 35.9124 12.5877 35.786 12.6802 35.6926C12.7727 35.5992 12.8979 35.5464 13.0287 35.5455L15.1644 35.5362V34.7737C15.159 34.6572 15.1943 34.5424 15.2642 34.4495C15.3341 34.3566 15.4341 34.2915 15.5467 34.2654C22.504 32.6651 25.9828 35.3197 27.0919 36.4398C28.2017 35.3196 31.6803 32.6651 38.6373 34.2654C38.75 34.2914 38.85 34.3566 38.9199 34.4495C38.9897 34.5424 39.025 34.6572 39.0195 34.7737V35.5356L41.1461 35.5449C41.2112 35.5445 41.2756 35.5572 41.3357 35.5822C41.3958 35.6071 41.4505 35.6439 41.4964 35.6903C41.5424 35.7367 41.5788 35.7918 41.6035 35.8525C41.6283 35.9132 41.6408 35.9782 41.6405 36.0439L41.6588 46.0117C41.6592 46.0774 41.6467 46.1424 41.622 46.2031C41.5973 46.2639 41.5609 46.319 41.5149 46.3654C41.4689 46.4119 41.4142 46.4486 41.3541 46.4735C41.2939 46.4985 41.2295 46.5111 41.1644 46.5107C41.0791 46.5122 40.995 46.4894 40.9219 46.4447C40.7632 46.3599 37.1357 44.308 31.6803 44.7031H31.6431C31.5963 44.6089 31.5498 44.5243 31.5032 44.4301C31.3818 44.1949 31.2605 43.9682 31.1298 43.7431L31.5874 43.696H31.6621C34.7425 43.4729 37.8311 43.9957 40.6708 45.2209L40.6522 36.542L39.0297 36.5326L39.0388 42.7174C39.038 42.8494 38.9856 42.9758 38.8931 43.0692C38.8005 43.1625 38.6753 43.2153 38.5445 43.2161C38.5192 43.2182 38.4938 43.2151 38.4698 43.2069C38.4515 43.2069 34.1799 42.3971 31.1399 43.3195C31.1304 43.3195 31.112 43.329 31.1027 43.329L30.935 43.3952C30.7579 43.0939 30.5807 42.802 30.394 42.51L30.4778 42.4822C30.551 42.4528 30.6257 42.4276 30.7016 42.4066L30.8041 42.3691C30.8227 42.3691 30.8413 42.3597 30.8599 42.3597C33.4339 41.5785 36.6887 41.9644 38.0503 42.1433L38.0314 35.159C31.1301 33.6988 28.1562 36.6936 27.5866 37.371L27.5857 37.3708ZM24.8719 33.6906C26.8583 34.4909 27.4365 34.4626 29.4322 33.6437C29.8239 33.4928 30.225 33.3233 30.6445 33.1261C31.5667 32.6811 32.4551 32.1682 33.3025 31.5914H33.3117C34.5682 31.8735 35.8738 31.8445 37.1168 31.5069C38.9 31.001 40.5247 30.0417 41.8355 28.7207C43.533 27.0358 44.7825 24.8425 45.2955 22.7246C45.7988 20.6722 45.6219 18.6675 44.5402 17.199L43.328 15.5515L43.7008 17.5658C43.878 18.5262 43.8499 19.2415 43.6729 19.8439C43.6357 19.9757 43.5891 20.0981 43.5425 20.2206C43.44 18.3003 43.0948 16.5116 42.5073 15.0997C41.789 13.3863 40.7167 12.2193 39.2901 12.0124L38.4413 11.8991L38.7956 12.6803C40.4181 16.3236 40.4369 19.5521 39.5508 22.3204C38.4128 25.8787 35.7737 28.6742 33.1346 30.5571C32.2134 30.2698 31.3792 29.7516 30.71 29.051C29.8707 28.1944 29.2087 27.0081 28.8172 25.4833L28.7983 25.4173L28.7611 25.3607C28.638 25.1316 28.5679 24.8774 28.556 24.617C28.472 24.0243 28.3973 23.4698 27.567 22.9793C27.3123 22.8425 27.0248 22.7806 26.7371 22.8005C26.4347 22.8268 26.1418 22.9201 25.8792 23.0736C25.5548 23.2805 25.3009 23.5826 25.1516 23.9394C24.7948 23.9253 24.4446 24.0387 24.1626 24.2597C23.7149 24.5986 23.3887 25.1443 23.1736 25.6998L22.716 26.8389L23.8069 26.3025C24.1616 26.182 24.5424 26.1625 24.9074 26.2459C25.0403 26.2632 25.1644 26.3225 25.2617 26.4154C25.2947 26.4574 25.3184 26.506 25.3313 26.5579C25.3442 26.6099 25.3459 26.664 25.3364 26.7167C25.2992 27.1121 24.9725 27.7333 24.18 28.656C23.2432 29.4886 22.144 30.1139 20.9532 30.4918C19.5024 29.453 18.2001 28.2176 17.0829 26.8204C15.0032 24.1942 13.6229 20.8336 14.1639 16.8613C14.3693 15.4149 14.7817 14.0063 15.3882 12.6796L15.733 11.8984L14.8938 12.0116C13.4576 12.2186 12.3844 13.3858 11.6759 15.099C11.0885 16.5109 10.7433 18.2996 10.641 20.2199C10.5943 20.0974 10.5475 19.9749 10.5102 19.8432C10.3331 19.2408 10.3052 18.5255 10.4825 17.565L10.846 15.5508L9.64299 17.1982C8.16968 19.1936 8.37486 22.1683 9.66188 24.9077C10.3427 26.3555 11.2743 27.6689 12.4126 28.7861C13.5691 29.9066 14.9307 30.8101 16.4129 31.2997C17.8214 31.7871 19.3378 31.8621 20.7867 31.516C21.7527 32.1905 22.7766 32.7765 23.846 33.2669C24.2002 33.4269 24.5451 33.5681 24.8714 33.6905L24.8719 33.6906ZM28.2944 41.4472C28.6768 41.9179 29.0406 42.3978 29.3858 42.897C30.3558 44.3148 31.1483 45.8483 31.7452 47.4625C32.0543 48.288 32.3066 49.1339 32.5004 49.9944L32.5753 50.3146L32.5936 50.3804L32.5378 50.4088L32.2396 50.5405C31.7508 50.7726 31.2827 51.0467 30.8405 51.36C30.3964 51.669 29.9813 52.0186 29.6006 52.4044C28.6026 53.4027 28.1082 54.3533 27.5022 55.5201L27.3156 55.8687L27.2505 56.0006L27.2223 55.944L27.1851 56.0006L27.1197 55.8687L26.9331 55.5201C26.327 54.353 25.8423 53.4022 24.835 52.4044C24.4543 52.0186 24.0392 51.669 23.595 51.36C23.1529 51.0468 22.6849 50.7726 22.1961 50.5405L21.9071 50.4088L21.8417 50.3804L21.8603 50.3146L21.9352 49.9944C22.1329 49.135 22.3852 48.2893 22.6903 47.4625C23.2871 45.848 24.0795 44.3142 25.0495 42.8961C25.5065 42.2335 26.0017 41.5986 26.5325 40.9946C26.7279 40.8061 26.9054 40.7592 27.2131 40.7685C27.586 40.7876 27.6515 40.8346 27.782 40.9287C27.9752 41.0772 28.1476 41.2513 28.2947 41.4463L28.2944 41.4472ZM30.2436 32.269C30.9017 31.9483 31.5429 31.5934 32.1646 31.2057C31.3685 30.8513 30.647 30.3464 30.039 29.7182C29.0971 28.7582 28.3602 27.4495 27.9218 25.7929C27.7548 25.468 27.6534 25.1128 27.6235 24.748C27.5768 24.3904 27.5202 24.0516 27.1011 23.8069C27.0092 23.7594 26.9056 23.7397 26.8029 23.7503C26.6554 23.7571 26.5116 23.7989 26.3833 23.8725C26.1577 24.0304 26.0008 24.2696 25.945 24.5409C25.9376 24.6251 25.9064 24.7053 25.8551 24.772C25.8038 24.8388 25.7345 24.8892 25.6555 24.9173L25.4879 24.9928L25.3107 24.9362C25.2141 24.8973 25.109 24.8846 25.0059 24.8994C24.9029 24.9143 24.8055 24.9561 24.7235 25.0208C24.6367 25.0896 24.5584 25.1686 24.4903 25.2562C24.7001 25.2462 24.9103 25.2651 25.115 25.3125C25.4302 25.3762 25.7193 25.5336 25.9452 25.7645C26.0724 25.9017 26.1677 26.0659 26.2242 26.245C26.2807 26.4242 26.2968 26.6137 26.2715 26.8C26.2154 27.3835 25.8235 28.2026 24.8633 29.3043L24.8444 29.3323L24.8165 29.3511C23.9625 30.1088 22.9885 30.7165 21.9352 31.1489C22.6732 31.6193 23.4426 32.0374 24.2379 32.4005C26.8211 33.5775 27.7163 33.4732 30.2437 32.2684L30.2436 32.269ZM40.446 22.6017C39.3369 26.0744 36.9211 28.8424 34.3844 30.8004C35.2206 30.8816 36.0644 30.8083 36.8746 30.5842C38.5018 30.1279 39.9834 29.252 41.1736 28.0425C42.7498 26.4798 43.906 24.4561 44.3816 22.4979C44.5931 21.6912 44.6657 20.8539 44.5963 20.0224L44.5684 20.1166C44.3537 20.8602 43.9621 21.4725 43.4678 22.1024L42.6099 23.1752L42.6285 21.7913C42.6656 19.4285 42.33 17.1411 41.6395 15.4655C41.229 14.4962 40.7069 13.7334 40.0726 13.31C41.378 16.7833 41.3125 19.8991 40.4454 22.6008L40.446 22.6017ZM16.7121 30.4048C17.6771 30.7351 18.7015 30.8507 19.7149 30.7438C18.467 29.7703 17.337 28.6518 16.3484 27.4115C14.1287 24.6063 12.6551 21.0012 13.2338 16.7366C13.3953 15.5642 13.6895 14.4144 14.1107 13.3097C13.476 13.733 12.9541 14.4959 12.5438 15.4652C11.8443 17.1408 11.5086 19.4285 11.5548 21.791L11.5734 23.1749L10.7154 22.1021C10.219 21.5208 9.84181 20.8458 9.60564 20.1163L9.57789 20.0221C9.4474 21.4059 9.80167 22.9872 10.5102 24.5028C11.1435 25.8451 12.0088 27.0628 13.0655 28.0986C14.0962 29.1309 15.3417 29.9187 16.7115 30.4048H16.7121ZM31.3815 14.4771H37.4336C37.3031 14.0152 36.5199 12.3777 36.2124 12.4437C35.4292 12.6131 34.7388 12.5945 34.0765 11.9261C33.4704 11.2391 33.5077 10.4764 33.7036 9.64811C32.7806 8.90447 30.7471 7.94404 29.2736 7.78432C29.4136 8.19838 29.8146 8.75369 30.0293 9.24329C31.0085 11.4837 30.859 12.5471 31.3814 14.4771H31.3815ZM35.2985 9.53577C33.8996 9.8652 34.4685 11.9552 35.8394 11.5504C37.0046 11.2111 36.632 9.20619 35.2985 9.53577ZM24.3874 13.075C24.6586 13.2258 24.8966 13.4308 25.0868 13.6774C25.2962 13.8998 25.4469 14.1716 25.5253 14.468L30.3747 14.4774C30.3747 12.9996 29.2649 8.80062 27.8948 7.81292C26.0761 6.50444 24.5561 11.3522 24.3882 13.0749L24.3874 13.075ZM23.2121 13.9884C21.916 14.4492 22.6155 16.3604 23.8929 15.9551C25.1705 15.5414 24.5738 13.4992 23.2121 13.9884ZM31.6056 20.8787C32.2208 21.3588 32.6498 21.3965 32.8551 22.3285H37.8903C38.5988 20.0786 38.6365 17.0191 37.9089 15.4661L31.4742 15.4383C31.53 16.3416 31.605 17.1796 31.6235 18.0925C31.6424 18.9961 31.5497 20.0223 31.6052 20.8787H31.6056ZM31.9039 23.185C32.426 21.8765 30.477 21.2175 29.9921 22.3566C29.4136 23.7216 31.3908 24.4935 31.9039 23.185Z" fill="#353E81"/>
<path fill-rule="evenodd" clip-rule="evenodd" d="M62.8895 14.9917L62.8463 15.0406C62.5338 15.0209 62.0477 15.0108 61.392 15.0108C60.7393 15.0108 60.2557 15.0207 59.9413 15.0406L59.898 14.9917V14.6736L59.947 14.6267C60.131 14.6208 60.3145 14.6046 60.4966 14.5779C60.5383 14.5694 60.5762 14.5479 60.6052 14.5164C60.6341 14.485 60.6526 14.4453 60.6581 14.4027C60.7109 13.9136 60.7311 13.4214 60.7186 12.9296V10.4147C60.7312 9.92277 60.711 9.43057 60.6581 8.9414C60.6526 8.8987 60.634 8.85878 60.6051 8.82712C60.5762 8.79545 60.5383 8.7736 60.4966 8.76455C60.4506 8.75308 60.2665 8.73669 59.947 8.71732L59.898 8.67024V8.34751L59.947 8.30385C60.2474 8.32322 60.7317 8.33365 61.3972 8.33365C62.0585 8.33365 62.5412 8.32381 62.8422 8.30385L62.89 8.34751V8.67024L62.8422 8.71732C62.5221 8.73698 62.3388 8.75308 62.292 8.76455C62.2503 8.77353 62.2124 8.79537 62.1836 8.82706C62.1548 8.85875 62.1364 8.89871 62.1311 8.9414C62.0773 9.4305 62.0569 9.92275 62.07 10.4147V12.9296C62.057 13.4215 62.0774 13.9137 62.1311 14.4027C62.1363 14.4453 62.1546 14.4851 62.1835 14.5166C62.2124 14.548 62.2503 14.5695 62.292 14.5779C62.4743 14.6044 62.658 14.6207 62.8422 14.6267L62.89 14.6736V14.9917H62.8895ZM171.07 31.3295L172.346 31.3716C173.182 31.3996 173.733 31.4139 173.991 31.4139C174.22 31.4139 175.196 31.3858 176.92 31.3295L177.001 31.404V31.9173L176.92 31.9917C176.45 32.0066 176.088 32.0271 175.833 32.0513C175.638 32.0616 175.448 32.1143 175.276 32.206C175.161 32.2836 175.084 32.4593 175.046 32.7375C175.003 33.1227 174.984 33.5104 174.991 33.898L174.97 36.2681V41.0369L174.98 43.0449C174.973 43.5473 174.994 44.0497 175.042 44.5498C175.05 44.7115 175.1 44.8682 175.189 45.0035C175.292 45.1018 175.421 45.1678 175.561 45.1934C176.01 45.2719 176.465 45.3118 176.92 45.3126L177 45.3722V45.8892L176.92 45.9701C176.886 45.9701 176.286 45.9526 175.122 45.9105C174.638 45.8956 174.262 45.8894 173.991 45.8894C173.778 45.8894 172.804 45.9164 171.07 45.9703L170.986 45.8894V45.3724L171.07 45.3128C171.493 45.3026 171.916 45.2685 172.336 45.2107C172.488 45.1932 172.634 45.1376 172.759 45.0488C172.855 44.9296 172.915 44.7859 172.934 44.6339C172.994 44.1617 173.018 43.6855 173.008 43.2095L173.018 41.0363V36.2667L173 34.2553C173.006 33.7506 172.986 33.2459 172.941 32.7433C172.936 32.5817 172.887 32.4247 172.799 32.2896C172.696 32.1929 172.568 32.1281 172.43 32.1029C171.98 32.0303 171.526 31.9928 171.071 31.9907L170.987 31.9162V31.4029L171.07 31.3295ZM169.806 40.2724V40.5823L169.763 40.7052L169.262 41.0039C169.179 41.0459 169.107 41.106 169.05 41.1799C169.007 41.3812 168.981 41.5859 168.973 41.7917C168.941 42.1612 168.929 42.6076 168.929 43.1386C168.931 43.7884 168.968 44.4376 169.039 45.0833L168.977 45.1888C167.144 45.9033 165.197 46.2694 163.232 46.2686C161.821 46.2901 160.422 45.9946 159.138 45.4034C157.947 44.8497 156.94 43.9596 156.239 42.8406C155.525 41.7083 155.168 40.3612 155.169 38.7995C155.169 36.4255 155.973 34.5371 157.581 33.1342C159.19 31.7347 161.292 31.0338 163.886 31.0315C165.789 31.0315 167.503 31.3584 169.019 32.0126L169.091 32.1248C168.967 32.5856 168.824 33.5504 168.663 35.0191L168.58 35.0936H168.109L168.03 35.0089L167.977 33.9186C167.975 33.7071 167.953 33.4963 167.911 33.2891C167.858 33.1921 167.783 33.1091 167.692 33.0465C167.394 32.856 167.078 32.6969 166.747 32.5718C166.256 32.3611 165.745 32.2032 165.221 32.1007C164.681 31.9959 164.131 31.9452 163.581 31.9493C162.43 31.9257 161.291 32.1954 160.271 32.7334C159.325 33.2403 158.565 34.0404 158.104 35.0158C157.608 36.0537 157.357 37.1939 157.372 38.3463C157.364 39.5686 157.633 40.7766 158.159 41.8775C158.651 42.9291 159.434 43.8146 160.413 44.4271C161.445 45.0525 162.631 45.3706 163.835 45.3448C164.415 45.3437 164.994 45.286 165.563 45.1724C166.069 45.0879 166.56 44.9268 167.019 44.6944C167.097 44.256 167.127 43.8102 167.109 43.3651V42.2223C167.109 41.6807 167.078 41.3432 167.008 41.206C166.939 41.0719 166.772 40.977 166.503 40.9245C165.926 40.8465 165.343 40.8125 164.761 40.8226L164.67 40.7277V40.2739L164.761 40.1825L165.384 40.2038C166.454 40.239 167.325 40.2533 167.997 40.2533C168.383 40.2533 168.955 40.2357 169.701 40.1937L169.805 40.2745L169.806 40.2724ZM148.076 31.3295L149.352 31.3716C150.187 31.3996 150.738 31.4139 150.995 31.4139C151.225 31.4139 152.202 31.3858 153.925 31.3295L154.006 31.404V31.9173L153.925 31.9917C153.455 32.0066 153.093 32.0271 152.839 32.0513C152.644 32.0616 152.454 32.1143 152.282 32.206C152.166 32.2836 152.09 32.4593 152.052 32.7375C152.008 33.1227 151.989 33.5103 151.995 33.898L151.974 36.2681V41.0369L151.985 43.0449C151.979 43.5473 152 44.0497 152.048 44.5498C152.055 44.7115 152.106 44.8682 152.194 45.0035C152.297 45.1016 152.427 45.1676 152.567 45.1934C153.015 45.272 153.47 45.3119 153.925 45.3126L154.005 45.3722V45.8892L153.925 45.9701C153.89 45.9701 153.29 45.9526 152.127 45.9105C151.643 45.8956 151.267 45.8894 150.994 45.8894C150.782 45.8894 149.809 45.9164 148.076 45.9703L147.991 45.8894V45.3724L148.076 45.3128C148.499 45.3026 148.921 45.2685 149.34 45.2107C149.493 45.1932 149.639 45.1375 149.765 45.0488C149.86 44.9296 149.92 44.7859 149.939 44.6339C149.999 44.1617 150.023 43.6855 150.012 43.2095L150.023 41.0363V36.2667L150.006 34.2553C149.999 33.4746 149.977 32.9684 149.946 32.7433C149.941 32.5817 149.892 32.4248 149.804 32.2896C149.701 32.1925 149.573 32.1277 149.435 32.1029C148.985 32.0303 148.531 31.9928 148.076 31.9907L147.992 31.9162V31.4029L148.076 31.3295ZM135.08 31.404L135.164 31.3295C136.85 31.3859 137.826 31.4139 138.083 31.4139C138.314 31.4139 139.29 31.3858 141.013 31.3295L141.093 31.404V31.9173L141.013 31.9917C140.543 32.0066 140.181 32.0271 139.926 32.0513C139.732 32.0617 139.542 32.1145 139.37 32.206C139.254 32.2836 139.178 32.4593 139.139 32.7375C139.096 33.1228 139.078 33.5104 139.084 33.898L139.063 36.2681V40.8222C139.063 41.9615 139.07 42.7574 139.084 43.21L139.137 44.9929H141.216C142.878 44.9929 143.914 44.973 144.324 44.9333C144.733 44.8903 145.134 44.7898 145.515 44.6345C145.649 44.2474 145.756 43.8514 145.836 43.4493C145.975 42.8305 146.048 42.4719 146.056 42.3765L146.146 42.2957H146.648L146.717 42.3765C146.635 42.9054 146.579 43.4382 146.55 43.9728C146.491 44.7643 146.463 45.4008 146.463 45.8894L146.383 45.9703C145.09 45.9316 143.392 45.9117 141.289 45.9107L138.307 45.8894C137.628 45.8894 136.935 45.9164 136.227 45.9703L136.143 45.8894V45.5485L136.227 45.4466C136.469 45.3325 136.701 45.1984 136.921 45.0456C136.959 44.9965 137.005 44.5539 137.047 43.7161C137.092 42.8792 137.113 41.8665 137.113 40.6884V36.2667L137.095 34.2553C137.1 33.7506 137.081 33.246 137.036 32.7433C137.031 32.5816 136.982 32.4245 136.893 32.2896C136.79 32.1919 136.661 32.127 136.521 32.1029C136.073 32.0301 135.619 31.9925 135.165 31.9907L135.081 31.9162L135.08 31.404ZM134.213 31.3295L134.307 31.4245C134.245 32.0404 134.213 33.1188 134.213 34.6598L134.133 34.7407H133.652L133.572 34.6493L133.457 33.7C133.405 33.1934 133.359 32.8805 133.332 32.7679C133.311 32.671 133.258 32.5842 133.182 32.5217C133.115 32.469 132.893 32.4267 132.52 32.3914C132.143 32.3563 131.726 32.3386 131.265 32.3386H129.335C129.279 33.8931 129.252 34.79 129.252 35.0292V41.0358L129.273 43.0439C129.279 43.821 129.297 44.3239 129.328 44.556C129.336 44.7161 129.385 44.8714 129.471 45.0061C129.577 45.1013 129.706 45.1657 129.845 45.1925C130.028 45.2453 130.486 45.2839 131.214 45.3117L131.283 45.3713V45.8882L131.214 45.9691C129.471 45.9164 128.498 45.8894 128.294 45.8882C128.074 45.8882 127.104 45.9152 125.384 45.9691L125.304 45.8882V45.3713L125.384 45.3117C125.81 45.3019 126.235 45.2678 126.656 45.2097C126.807 45.1909 126.95 45.1353 127.074 45.0477C127.169 44.9279 127.231 44.7847 127.253 44.6329C127.317 44.1611 127.342 43.6845 127.325 43.2085L127.346 41.0352V35.0292C127.346 34.9199 127.318 34.0231 127.262 32.3386H125.74C125.118 32.3386 124.577 32.3527 124.12 32.3808C123.664 32.4089 123.399 32.4796 123.329 32.5919C123.256 32.7042 123.189 33.0736 123.128 33.6998L123.027 34.6491L122.936 34.7404H122.465L122.385 34.6595C122.371 33.0033 122.34 31.9248 122.291 31.4242L122.385 31.3292C123.569 31.3856 125.539 31.4137 128.294 31.4136C131.106 31.4136 133.079 31.3855 134.213 31.3292L134.213 31.3295ZM105.195 45.9627L105.104 45.8675V45.3932L105.195 45.3123C105.528 45.3116 105.861 45.2867 106.191 45.2378C106.37 45.2292 106.54 45.1569 106.672 45.0337C106.757 44.8934 106.806 44.734 106.815 44.5699C106.839 44.3552 106.859 43.877 106.885 43.1277C106.91 42.3784 106.923 41.8441 106.923 41.5207V33.1968C106.942 32.9226 106.875 32.6493 106.731 32.4161C106.605 32.2485 106.421 32.1354 106.216 32.0998C105.848 32.0429 105.476 32.017 105.104 32.0223L105.024 31.938V31.4561L105.104 31.3613C106.045 31.3965 106.658 31.4141 106.951 31.4141C107.642 31.4141 108.207 31.3965 108.648 31.3613L111.902 35.627L116.688 41.6863C117.267 42.4214 117.856 43.1178 118.455 43.7754V35.8029C118.455 35.5534 118.445 35.0293 118.42 34.2204C118.395 33.4159 118.368 32.9017 118.333 32.6873C118.322 32.5253 118.26 32.371 118.156 32.2476C118.012 32.1507 117.847 32.0926 117.675 32.0788C117.359 32.0348 117.04 32.0126 116.721 32.0122L116.641 31.9277V31.4564L116.721 31.3616C117.271 31.3968 118.057 31.4143 119.079 31.4142C120.009 31.4142 120.689 31.3968 121.11 31.3616L121.201 31.4564V31.9277L121.121 32.0122C120.772 32.0104 120.424 32.0362 120.079 32.0893C119.835 32.1318 119.682 32.2056 119.619 32.3109C119.545 32.4513 119.501 32.6059 119.491 32.7646C119.469 32.9616 119.445 33.4364 119.42 34.1854C119.395 34.9344 119.386 35.4725 119.386 35.8029V40.6949L119.396 43.5291C119.407 44.4575 119.42 45.3861 119.434 46.3216C118.854 46.1446 118.264 46.0004 117.667 45.8895L116.943 45.0243L114.769 42.3446L107.85 33.6197V41.5216C107.85 41.8382 107.865 42.4006 107.885 43.2095C107.887 43.702 107.916 44.1939 107.972 44.6831C107.989 44.8099 108.035 44.9311 108.104 45.038C108.204 45.1286 108.325 45.1917 108.456 45.2211C108.824 45.2923 109.199 45.3229 109.574 45.3125L109.658 45.3934V45.8785L109.574 45.963C109.005 45.9028 108.433 45.878 107.861 45.8885C106.846 45.8885 105.958 45.9133 105.195 45.963L105.195 45.9627ZM92.4988 31.4034L92.579 31.3289C94.9131 31.3711 96.4065 31.3922 97.0593 31.3922C99.2924 31.3922 101.279 31.3711 103.02 31.3289L103.073 31.4034C102.901 32.0608 102.776 33.0947 102.696 34.505L102.633 34.5861H102.133L102.042 34.505C102.048 34.4502 102.052 34.395 102.053 34.3398C102.054 33.7801 102.01 33.2213 101.921 32.6689C101.492 32.4752 100.899 32.3525 100.14 32.2926C99.3806 32.2367 98.8092 32.2047 98.4293 32.2047C97.893 32.2047 97.2028 32.2436 96.3667 32.3207L96.3286 33.9667L96.2974 35.8515L96.2657 37.944C97.0009 37.9862 97.6781 38.0073 98.2972 38.0073C98.9245 38.0073 99.4469 37.9862 99.8679 37.944C100.12 37.9369 100.37 37.8942 100.611 37.8172C100.693 37.7527 100.75 37.6603 100.77 37.5571C100.823 37.3355 100.856 37.1094 100.868 36.8818L100.91 36.2451L100.99 36.1611H101.46L101.544 36.2451C101.53 36.9943 101.513 37.7458 101.492 38.4996L101.544 40.8208L101.46 40.9017H100.991L100.91 40.8208L100.837 40.2017C100.809 39.9123 100.764 39.6248 100.704 39.3403C100.672 39.2394 100.605 39.1533 100.516 39.0974C100.418 39.0305 100.164 38.9745 99.757 38.9321C99.3487 38.8936 98.7884 38.8725 98.0742 38.8725C97.677 38.8725 97.074 38.8901 96.2654 38.9253C96.2308 39.5022 96.2135 40.4635 96.2135 41.8091C96.2135 43.2509 96.2308 44.3117 96.2654 44.9914H98.1435C99.7984 44.9914 100.83 44.9705 101.247 44.9318C101.654 44.8906 102.053 44.7902 102.432 44.6338C102.491 44.4754 102.592 44.1096 102.732 43.5366C102.871 42.9597 102.952 42.6009 102.972 42.457L103.073 42.3865H103.564L103.645 42.457C103.558 42.969 103.498 43.4855 103.466 44.0041C103.407 44.7393 103.38 45.3685 103.38 45.8892L103.306 45.9701C102.007 45.9314 100.307 45.9115 98.2051 45.9105L95.4286 45.8894C94.7811 45.8894 94.1088 45.9175 93.4077 45.9703L93.3242 45.8894V45.5483L93.4077 45.4464C93.6459 45.3352 93.8752 45.2057 94.0938 45.059C94.1537 45.01 94.2014 44.4086 94.2368 43.255C94.2755 42.105 94.2942 41.2282 94.2928 40.6244V36.8437L94.2858 34.5044C94.2858 33.9947 94.2783 33.5795 94.265 33.263C94.2611 33.0327 94.2364 32.8033 94.1912 32.5776C94.1712 32.475 94.1321 32.3772 94.0759 32.2893C94.0172 32.2248 93.9432 32.1763 93.8608 32.1485C93.6963 32.0972 93.5268 32.0641 93.3552 32.0499L92.5778 31.9903L92.4977 31.9158L92.4988 31.4034ZM91.0907 40.2724V40.5823L91.0493 40.7052L90.5474 41.0039C90.4647 41.0463 90.3921 41.1063 90.3347 41.1799C90.2924 41.3813 90.2669 41.586 90.2586 41.7917C90.2262 42.1612 90.2129 42.6076 90.2129 43.1386C90.2149 43.7884 90.2521 44.4376 90.3242 45.0833L90.262 45.1888C88.429 45.9034 86.4809 46.2695 84.516 46.2686C83.1049 46.29 81.7068 45.9944 80.4228 45.4034C79.2318 44.8494 78.2251 43.9593 77.5242 42.8406C76.8097 41.7083 76.4534 40.3612 76.4551 38.7995C76.4551 36.4255 77.2587 34.5371 78.8659 33.1342C80.4747 31.7347 82.5766 31.0338 85.1717 31.0315C87.074 31.0315 88.7882 31.3584 90.3035 32.0126L90.3773 32.1248C90.2517 32.5856 90.1087 33.5504 89.9484 35.0191L89.8649 35.0936H89.3949L89.3147 35.0089L89.2623 33.9186C89.2597 33.7071 89.2373 33.4963 89.1954 33.2891C89.1421 33.1921 89.0671 33.1091 88.9764 33.0465C88.6784 32.8561 88.3618 32.6971 88.0317 32.5718C87.541 32.361 87.0296 32.2031 86.506 32.1007C85.9653 31.996 85.4156 31.9453 84.865 31.9493C83.714 31.9259 82.5757 32.1956 81.5553 32.7334C80.6094 33.2403 79.8498 34.0404 79.3883 35.0158C78.8919 36.0534 78.6415 37.1935 78.657 38.3457C78.6486 39.568 78.9178 40.776 79.4441 41.8769C79.9361 42.9281 80.7188 43.8132 81.6978 44.4255C82.7298 45.0511 83.916 45.3693 85.1195 45.3432C85.6993 45.3421 86.2777 45.2843 86.8465 45.1708C87.353 45.0863 87.8441 44.9251 88.303 44.6928C88.3803 44.2542 88.4104 43.8085 88.3929 43.3634V42.2206C88.3929 41.679 88.3617 41.3416 88.2919 41.2043C88.2227 41.0702 88.0544 40.9753 87.7862 40.9229C87.209 40.8449 86.6267 40.8108 86.0444 40.821L85.9533 40.7261V40.2722L86.0444 40.1809L86.6678 40.2022C87.7379 40.2374 88.6086 40.2517 89.2805 40.2517C89.6668 40.2517 90.24 40.2341 90.9844 40.1921L91.0887 40.2728L91.0907 40.2724ZM59.9891 45.9697L59.898 45.8888V45.3543L59.9891 45.2699C60.3108 45.2802 60.6326 45.2542 60.9486 45.1925C61.0995 45.1433 61.2327 45.0503 61.3315 44.9252C61.4422 44.7911 61.6694 44.352 62.0113 43.6141L63.0826 41.2645L65.8606 34.9173C66.3822 33.6725 66.9025 32.4287 67.4215 31.1861H68.0834L72.4419 41.5323L73.0232 42.9109C73.1938 43.3049 73.3899 43.7304 73.6125 44.191C73.7321 44.479 73.8852 44.7517 74.0686 45.0033C74.1596 45.0887 74.2677 45.1535 74.3856 45.1933C74.6623 45.2548 74.9455 45.2808 75.2287 45.2706L75.3088 45.3551V45.8895L75.2287 45.9704C74.5079 45.9108 73.8559 45.879 73.2774 45.879C72.1489 45.9141 71.0201 45.9446 69.891 45.9704L69.8075 45.8895V45.3551L69.891 45.2706C70.6545 45.2566 71.1279 45.2249 71.3199 45.172C71.4028 45.1594 71.478 45.1159 71.5308 45.0502C71.5837 44.9845 71.6102 44.9012 71.6054 44.8168C71.592 44.6106 71.5437 44.4084 71.4623 44.2188L70.2076 41.0787H64.2957L63.1834 43.716C62.9856 44.1908 62.8882 44.5355 62.8882 44.757C62.8882 44.8416 62.9148 44.9239 62.9642 44.9922C63.0137 45.0604 63.0834 45.111 63.1632 45.1367C63.3477 45.2211 63.8114 45.2633 64.5534 45.2708L64.6439 45.3554V45.8897L64.5603 45.9706C63.6828 45.9179 62.9158 45.8897 62.2545 45.8897C61.5055 45.8897 60.7518 45.9179 59.9896 45.9706L59.9891 45.9697ZM64.6435 40.1915H69.8069L67.2467 33.9776L64.6435 40.1915ZM177 26.5653L176.958 26.6136C176.645 26.5944 176.161 26.5845 175.509 26.5845C174.86 26.5845 174.379 26.5942 174.065 26.6136L174.023 26.5653V26.2487L174.071 26.2016C174.254 26.1956 174.436 26.1794 174.618 26.153C174.659 26.1443 174.697 26.1229 174.725 26.0917C174.754 26.0605 174.773 26.0211 174.778 25.9788C174.831 25.4918 174.851 25.0018 174.839 24.512V22.0088C174.851 21.5191 174.831 21.029 174.778 20.542C174.772 20.4996 174.754 20.4601 174.725 20.4286C174.697 20.3972 174.659 20.3753 174.618 20.3659C174.571 20.3548 174.388 20.3383 174.071 20.3192L174.023 20.2723V19.9506L174.071 19.9071C174.369 19.927 174.85 19.9369 175.514 19.9369C176.173 19.9369 176.653 19.927 176.952 19.9071L177 19.9506V20.2724L176.952 20.3194C176.635 20.3384 176.451 20.3548 176.405 20.366C176.364 20.3751 176.326 20.397 176.298 20.4285C176.269 20.46 176.251 20.4997 176.246 20.5421C176.192 21.0291 176.172 21.5192 176.184 22.009V24.5121C176.172 25.0019 176.192 25.492 176.246 25.979C176.251 26.0213 176.269 26.0609 176.298 26.0921C176.326 26.1234 176.364 26.1447 176.405 26.1532C176.587 26.1795 176.769 26.1957 176.952 26.2017L177 26.2488V26.5654L177 26.5653ZM173.507 26.5653L173.461 26.6136C173.438 26.6136 173.379 26.6119 173.282 26.6087C172.854 26.5925 172.587 26.5844 172.48 26.5845C172.321 26.5845 172.067 26.5942 171.721 26.6136C171.682 26.4784 171.621 26.3503 171.543 26.2341L170.38 24.2746L169.859 23.4753C169.782 23.3656 169.689 23.2681 169.583 23.1861L169.634 23.0262C169.706 23.029 169.759 23.031 169.794 23.031C170.043 23.043 170.291 22.9926 170.516 22.8842C170.701 22.7711 170.853 22.6112 170.957 22.4204C171.095 22.1808 171.164 21.9075 171.157 21.6307C171.157 21.0978 170.96 20.7381 170.567 20.5517C170.306 20.4503 170.027 20.4054 169.747 20.4196C169.596 20.4185 169.445 20.4309 169.296 20.4567C169.265 20.7652 169.249 21.2934 169.249 22.038V24.5124C169.236 25.0022 169.256 25.4923 169.31 25.9793C169.315 26.0217 169.334 26.0613 169.362 26.0926C169.391 26.1238 169.429 26.1451 169.47 26.1535C169.652 26.1799 169.835 26.1961 170.018 26.202L170.065 26.2491V26.5657L170.023 26.614C169.71 26.5947 169.228 26.5851 168.578 26.585C167.906 26.585 167.425 26.5947 167.135 26.614L167.089 26.5705V26.2491L167.135 26.202C167.319 26.1959 167.502 26.1797 167.685 26.1535C167.726 26.1446 167.763 26.123 167.791 26.0918C167.82 26.0606 167.838 26.0213 167.843 25.9793C167.897 25.4924 167.917 25.0022 167.904 24.5124V22.0093C167.917 21.5195 167.897 21.0293 167.843 20.5424C167.837 20.5003 167.819 20.4609 167.791 20.4294C167.763 20.398 167.726 20.3759 167.685 20.3663C167.636 20.3553 167.454 20.3387 167.135 20.3197L167.089 20.2727V19.9506L167.135 19.9071C167.441 19.9268 167.922 19.9369 168.578 19.9369C168.96 19.9369 169.271 19.932 169.507 19.922C169.979 19.9029 170.333 19.8929 170.567 19.8929C170.969 19.8745 171.371 19.9242 171.757 20.0399C171.913 20.0934 172.056 20.1815 172.174 20.2977C172.293 20.414 172.384 20.5555 172.441 20.7118C172.501 20.8885 172.53 21.0743 172.527 21.261C172.527 22.1187 172.049 22.7277 171.093 23.0879C171.248 23.3526 171.414 23.6208 171.588 23.8925L172.31 25.0132C172.736 25.6754 173.019 26.0529 173.159 26.1456C173.25 26.1971 173.354 26.2212 173.459 26.2152L173.506 26.2637V26.5659L173.507 26.5653ZM166.559 26.5653L166.517 26.6136C165.823 26.5944 165.405 26.5845 165.261 26.5845C164.686 26.5845 164.152 26.5942 163.658 26.6136L163.616 26.5653V26.2673L163.662 26.2141L164.071 26.1916C164.242 26.1817 164.328 26.1203 164.328 26.0075C164.304 25.8535 164.26 25.7036 164.196 25.5618L163.818 24.5635C163.386 24.5572 162.945 24.5539 162.495 24.5537C162.251 24.5537 161.89 24.5571 161.407 24.5635L161.201 25.1403C161.091 25.4046 161.012 25.6811 160.966 25.964C160.966 26.0831 161.039 26.1544 161.187 26.1772C161.269 26.1898 161.427 26.2031 161.666 26.2144L161.712 26.2628V26.5651L161.666 26.6133C161.088 26.5942 160.716 26.5845 160.55 26.5842C160.423 26.5842 160.104 26.5942 159.598 26.6133L159.552 26.5698V26.2631L159.603 26.2146C159.925 26.1966 160.123 26.132 160.195 26.0209C160.269 25.9116 160.546 25.2542 161.024 24.0488L162.246 20.9586C162.338 20.7182 162.476 20.3581 162.66 19.8749H163.326L165.811 25.7752C165.906 25.9997 165.995 26.1259 166.073 26.1532C166.217 26.198 166.368 26.2177 166.518 26.2116L166.56 26.2631V26.5654L166.559 26.5653ZM163.587 24.0195L162.584 21.5401L161.624 24.0195C161.88 24.0295 162.213 24.0344 162.623 24.0344C163.019 24.0344 163.341 24.0295 163.587 24.0195H163.587ZM158.964 25.0029C158.892 25.5203 158.858 26.0425 158.862 26.565L158.813 26.6133L155.407 26.5842C154.837 26.5842 154.436 26.5939 154.201 26.6133L154.154 26.565V26.4324L154.177 26.3758C154.315 26.3017 154.442 26.2076 154.553 26.0964C154.597 25.8902 154.615 25.679 154.605 25.4682L154.618 24.4068V22.0079C154.632 21.5182 154.611 21.028 154.557 20.5411C154.552 20.4989 154.534 20.4594 154.505 20.428C154.477 20.3965 154.44 20.3745 154.399 20.365C154.35 20.3539 154.169 20.3374 153.85 20.3183L153.804 20.2714V19.9506L153.85 19.9071C154.171 19.927 154.643 19.9369 155.266 19.9369C155.909 19.9369 156.399 19.9275 156.734 19.9071L156.78 19.9506V20.2768L156.734 20.3191C156.414 20.3383 156.232 20.3545 156.184 20.3657C156.143 20.375 156.105 20.397 156.077 20.4285C156.048 20.46 156.03 20.4996 156.024 20.542C155.971 21.029 155.951 21.5191 155.964 22.0088V24.8386C155.964 25.2523 155.972 25.6528 155.988 26.0402H156.625C157.538 26.0402 158.097 26.0042 158.303 25.9321C158.333 25.9228 158.36 25.9041 158.378 25.8787C158.424 25.7905 158.455 25.6946 158.468 25.5956L158.58 25.0074L158.627 24.9558H158.913L158.963 25.0028L158.964 25.0029ZM153.272 26.565L153.23 26.6133C152.537 26.5941 152.118 26.5842 151.974 26.5842C151.4 26.5842 150.865 26.5939 150.371 26.6133L150.33 26.565V26.267L150.376 26.2138L150.784 26.1913C150.955 26.1815 151.042 26.1202 151.042 26.0072C151.018 25.8532 150.973 25.7033 150.91 25.5615L150.531 24.5632C150.099 24.5569 149.659 24.5536 149.208 24.5534C148.965 24.5534 148.603 24.5567 148.122 24.5632L147.915 25.14C147.805 25.4043 147.726 25.6809 147.68 25.9641C147.68 26.0833 147.753 26.1545 147.901 26.1773C147.983 26.19 148.141 26.2032 148.38 26.2146L148.426 26.263V26.5653L148.38 26.6134C147.802 26.5943 147.43 26.5847 147.264 26.5844C147.137 26.5844 146.818 26.5943 146.312 26.6134L146.266 26.5699V26.2633L146.317 26.2147C146.639 26.1967 146.837 26.1323 146.909 26.021C146.981 25.9097 147.259 25.2538 147.738 24.0489L148.96 20.9587C149.052 20.7184 149.19 20.3583 149.374 19.8751H150.04L152.525 25.7753C152.621 25.9999 152.709 26.1259 152.787 26.1533C152.931 26.1981 153.082 26.2179 153.232 26.2117L153.274 26.2633V26.5656L153.272 26.565ZM150.301 24.0192L149.297 21.5398L148.337 24.0192C148.593 24.0292 148.926 24.0341 149.336 24.0341C149.732 24.034 150.054 24.0292 150.301 24.0197V24.0192ZM145.533 24.3971C145.541 24.8933 145.385 25.378 145.09 25.775C144.834 26.126 144.485 26.3966 144.083 26.5553C143.648 26.7232 143.185 26.8039 142.719 26.7927C142.05 26.7894 141.39 26.6342 140.788 26.3387L140.732 26.2344C140.833 25.7251 140.877 25.2061 140.864 24.6869L140.91 24.64H141.208L141.252 24.6869V24.7966C141.256 25.0309 141.275 25.2648 141.308 25.4968C141.453 25.7281 141.664 25.9095 141.913 26.0168C142.207 26.1663 142.532 26.2443 142.861 26.2444C143.478 26.2444 143.907 26.0264 144.144 25.5919C144.264 25.3799 144.327 25.1402 144.328 24.8961C144.339 24.7177 144.297 24.5401 144.207 24.3859C144.118 24.2316 143.985 24.1078 143.826 24.0301C143.57 23.9193 143.3 23.8475 143.024 23.8169C142.19 23.6878 141.642 23.5252 141.379 23.3291C140.982 23.0337 140.783 22.575 140.784 21.953C140.772 21.6628 140.823 21.3735 140.935 21.1058C141.047 20.8382 141.216 20.5989 141.43 20.4053C141.887 20.0018 142.521 19.7999 143.335 19.7998C144.065 19.7998 144.656 19.9183 145.106 20.1552L145.138 20.2681C145.057 20.7148 145.012 21.1675 145.003 21.6216L144.951 21.6685H144.656L144.608 21.6216C144.609 21.3747 144.594 21.1281 144.562 20.8833C144.433 20.7102 144.257 20.5784 144.056 20.504C143.802 20.3975 143.529 20.343 143.254 20.3438C142.892 20.3232 142.537 20.4435 142.261 20.6798C142.148 20.7829 142.059 20.9096 142 21.0509C141.94 21.1923 141.912 21.3451 141.917 21.4985C141.906 21.6547 141.937 21.811 142.005 21.9515C142.074 22.092 142.178 22.2117 142.307 22.2983C142.475 22.4082 142.874 22.5137 143.503 22.6148C143.568 22.6248 143.751 22.6555 144.052 22.7103C144.226 22.7388 144.397 22.7842 144.562 22.8459C144.852 22.9464 145.102 23.1392 145.274 23.3952C145.456 23.6966 145.546 24.0454 145.534 24.3981L145.533 24.3971ZM139.938 26.565L139.897 26.6133C139.203 26.5941 138.785 26.5842 138.64 26.5842C138.066 26.5842 137.532 26.5939 137.038 26.6133L136.995 26.565V26.267L137.042 26.2138L137.45 26.1913C137.622 26.1815 137.708 26.1202 137.708 26.0072C137.684 25.8534 137.64 25.7035 137.577 25.5615L137.197 24.5632C136.765 24.5569 136.324 24.5536 135.874 24.5534C135.631 24.5534 135.269 24.5568 134.787 24.5632L134.581 25.14C134.471 25.4042 134.392 25.6807 134.346 25.9637C134.346 26.0828 134.418 26.1541 134.566 26.1769C134.648 26.1895 134.807 26.2028 135.045 26.2141L135.091 26.2625V26.5648L135.045 26.613C134.468 26.5939 134.094 26.5839 133.93 26.5839C133.802 26.5839 133.483 26.5939 132.978 26.613L132.932 26.5695V26.2628L132.982 26.2143C133.304 26.1962 133.502 26.1319 133.575 26.0206C133.647 25.9093 133.925 25.2534 134.404 24.0485L135.625 20.9583C135.717 20.7179 135.855 20.3578 136.039 19.8746H136.705L139.19 25.7749C139.286 25.9994 139.374 26.1256 139.452 26.1529C139.596 26.1977 139.747 26.2174 139.897 26.2113L139.939 26.2628V26.5651L139.938 26.565ZM136.968 24.0197L135.964 21.5402L135.005 24.0197C135.261 24.0296 135.594 24.0346 136.003 24.0346C136.399 24.034 136.72 24.0292 136.968 24.0197ZM132.2 24.3976C132.208 24.8935 132.053 25.378 131.759 25.7755C131.502 26.1261 131.153 26.3966 130.75 26.5558C130.316 26.7237 129.852 26.8044 129.387 26.7931C128.718 26.79 128.058 26.6348 127.456 26.3391L127.399 26.2348C127.5 25.7256 127.544 25.2065 127.53 24.6874L127.577 24.6404H127.876L127.919 24.6874V24.797C127.924 25.0314 127.943 25.2652 127.975 25.4973C128.12 25.7288 128.331 25.9102 128.58 26.0173C128.874 26.1668 129.198 26.2448 129.527 26.2448C130.145 26.2448 130.574 26.0268 130.811 25.5924C130.931 25.3802 130.994 25.1406 130.995 24.8965C131.006 24.7182 130.964 24.5406 130.875 24.3864C130.786 24.2322 130.653 24.1083 130.493 24.0306C130.238 23.9198 129.968 23.8479 129.691 23.8174C128.858 23.6882 128.309 23.5256 128.046 23.3295C127.649 23.0341 127.451 22.5754 127.451 21.9534C127.439 21.6633 127.491 21.3739 127.602 21.1063C127.714 20.8387 127.883 20.5995 128.098 20.4058C128.554 20.0022 129.188 19.8004 130.002 19.8003C130.733 19.8003 131.323 19.9187 131.773 20.1556L131.805 20.2686C131.724 20.7153 131.679 21.1679 131.671 21.622L131.618 21.669H131.325L131.276 21.622C131.277 21.3752 131.262 21.1285 131.23 20.8838C131.101 20.7109 130.925 20.5792 130.724 20.5044C130.47 20.3981 130.197 20.3437 129.922 20.3442C129.561 20.3237 129.205 20.444 128.929 20.6802C128.817 20.7834 128.728 20.9101 128.668 21.0515C128.609 21.1929 128.581 21.3455 128.586 21.499C128.575 21.655 128.606 21.8112 128.674 21.9517C128.742 22.0922 128.846 22.2119 128.975 22.2988C129.143 22.4086 129.541 22.5141 130.17 22.6153C130.236 22.6252 130.418 22.6559 130.719 22.7108C130.893 22.7391 131.064 22.7845 131.23 22.8463C131.52 22.9472 131.769 23.1399 131.942 23.3957C132.124 23.6972 132.214 24.0459 132.201 24.3986L132.2 24.3976ZM126.335 24.3976C126.343 24.8935 126.188 25.3782 125.894 25.7755C125.637 26.1262 125.288 26.3967 124.886 26.5558C124.451 26.7237 123.987 26.8043 123.522 26.7931C122.853 26.7899 122.193 26.6347 121.591 26.3391L121.535 26.2348C121.635 25.7255 121.679 25.2065 121.666 24.6874L121.713 24.6404H122.011L122.054 24.6874V24.797C122.059 25.0314 122.078 25.2653 122.111 25.4973C122.255 25.7286 122.467 25.9099 122.716 26.0173C123.01 26.1669 123.335 26.2448 123.664 26.2448C124.281 26.2448 124.709 26.0273 124.947 25.5924C125.066 25.3803 125.13 25.1406 125.13 24.8965C125.141 24.7182 125.099 24.5405 125.01 24.3863C124.921 24.2321 124.788 24.1082 124.628 24.0306C124.373 23.9196 124.102 23.8478 123.826 23.8174C122.993 23.688 122.444 23.525 122.181 23.3295C121.784 23.0341 121.586 22.5754 121.586 21.9534C121.574 21.6633 121.626 21.3739 121.738 21.1063C121.849 20.8387 122.018 20.5995 122.233 20.4058C122.689 20.0022 123.324 19.8004 124.137 19.8003C124.868 19.8003 125.458 19.9187 125.908 20.1556L125.941 20.2686C125.858 20.7151 125.813 21.1679 125.806 21.622L125.753 21.669H125.459L125.411 21.622C125.412 21.3751 125.397 21.1284 125.364 20.8838C125.235 20.7108 125.06 20.579 124.859 20.5044C124.605 20.3981 124.332 20.3436 124.057 20.3442C123.695 20.3239 123.34 20.4441 123.063 20.6802C122.951 20.7836 122.862 20.9103 122.803 21.0517C122.744 21.193 122.716 21.3456 122.721 21.499C122.71 21.655 122.74 21.8112 122.808 21.9516C122.877 22.0921 122.98 22.2118 123.109 22.2988C123.278 22.4086 123.677 22.5141 124.305 22.6153C124.371 22.6252 124.553 22.6559 124.854 22.7108C125.028 22.7391 125.199 22.7845 125.365 22.8463C125.654 22.9471 125.904 23.1398 126.076 23.3957C126.258 23.697 126.349 24.0458 126.336 24.3986L126.335 24.3976ZM120.74 26.5654L120.7 26.6137C120.005 26.5945 119.587 26.5847 119.443 26.5847C118.869 26.5847 118.334 26.5943 117.84 26.6137L117.797 26.5654V26.2675L117.845 26.2143L118.252 26.1918C118.423 26.1819 118.51 26.1207 118.51 26.0076C118.486 25.8537 118.442 25.7038 118.379 25.562L117.999 24.5637C117.567 24.5573 117.126 24.554 116.676 24.5538C116.433 24.5538 116.071 24.5573 115.589 24.5637L115.383 25.1404C115.273 25.4046 115.194 25.6811 115.148 25.9641C115.148 26.0833 115.221 26.1544 115.368 26.1773C115.45 26.19 115.608 26.2032 115.847 26.2146L115.894 26.263V26.5653L115.847 26.6134C115.269 26.5943 114.896 26.5844 114.731 26.5844C114.603 26.5844 114.286 26.5943 113.78 26.6134L113.733 26.5699V26.2633L113.784 26.2147C114.106 26.1967 114.304 26.1322 114.377 26.021C114.45 25.9118 114.726 25.2544 115.205 24.0489L116.427 20.9587C116.518 20.7184 116.657 20.3583 116.841 19.8751H117.506L119.991 25.7753C120.087 25.9999 120.175 26.1259 120.254 26.1533C120.398 26.1982 120.549 26.2179 120.699 26.2117L120.74 26.2633V26.5656L120.74 26.5654ZM117.769 24.0197L116.765 21.5402L115.806 24.0197C116.062 24.0296 116.395 24.0346 116.805 24.0346C117.201 24.0342 117.523 24.0292 117.77 24.0197H117.769ZM113.255 20.2724L113.207 20.3194C112.84 20.3194 112.631 20.4196 112.584 20.6174C112.547 20.855 112.529 21.0952 112.529 21.3358C112.519 21.6106 112.514 22.0064 112.514 22.5232V23.9824C112.514 24.9192 112.331 25.5879 111.966 25.9885C111.481 26.5186 110.79 26.7835 109.893 26.7833C109.074 26.7833 108.435 26.646 107.976 26.3713C107.791 26.2645 107.628 26.1217 107.498 25.9512C107.367 25.7808 107.271 25.5859 107.216 25.3779C107.141 25.1035 107.104 24.3874 107.104 23.2296V22.0087C107.117 21.5189 107.097 21.0288 107.043 20.5418C107.038 20.4994 107.019 20.4597 106.991 20.4282C106.962 20.3967 106.925 20.3748 106.883 20.3656C106.836 20.3545 106.655 20.3381 106.336 20.3189L106.288 20.2721V19.9554L106.336 19.9068C106.636 19.9267 107.117 19.9363 107.779 19.9359C108.455 19.9359 108.934 19.9262 109.218 19.9068L109.266 19.9554V20.2724L109.218 20.3192C108.899 20.3384 108.717 20.3548 108.671 20.3659C108.629 20.3752 108.592 20.3971 108.563 20.4286C108.535 20.4601 108.516 20.4998 108.511 20.5421C108.457 21.0291 108.437 21.5192 108.45 22.009V22.9842C108.45 24.1761 108.503 24.9062 108.609 25.1744C108.822 25.7041 109.345 25.9689 110.18 25.969C110.727 25.969 111.154 25.8334 111.46 25.5621C111.587 25.4551 111.689 25.3211 111.759 25.1697C111.831 24.9716 111.876 24.7645 111.892 24.5541C111.92 24.2934 111.934 24.0313 111.934 23.7691V22.7839C111.934 21.9584 111.931 21.3942 111.925 21.0913C111.929 20.9049 111.91 20.7187 111.868 20.5372C111.852 20.5026 111.829 20.4717 111.801 20.4464C111.773 20.4211 111.74 20.402 111.704 20.3901C111.515 20.3454 111.322 20.3216 111.128 20.3194L111.08 20.2726V19.9558L111.128 19.9072C111.4 19.9268 111.678 19.9363 111.967 19.9363C112.182 19.9363 112.597 19.9269 113.208 19.9072L113.256 19.9558V20.2724H113.255ZM105.697 26.5654L105.651 26.6136C105.341 26.5943 104.859 26.5844 104.206 26.5838C103.537 26.5838 103.057 26.5936 102.762 26.6136L102.721 26.5701V26.2487L102.768 26.2017C102.951 26.1956 103.135 26.1793 103.317 26.153C103.358 26.1445 103.395 26.123 103.424 26.0917C103.452 26.0605 103.47 26.021 103.475 25.9788C103.53 25.4921 103.551 25.0019 103.538 24.5121V21.3121L102.49 23.4753C102.431 23.5945 102.228 24.0365 101.881 24.8013L101.023 26.6925H100.71C100.546 26.3017 100.328 25.8088 100.049 25.2112L99.3926 23.806L98.1645 21.2284V24.5123C98.1513 25.002 98.1715 25.4921 98.2249 25.979C98.23 26.0213 98.2482 26.0609 98.2769 26.0922C98.3056 26.1234 98.3433 26.1448 98.3847 26.1532C98.5668 26.1795 98.7503 26.1958 98.9342 26.2019L98.9804 26.2488V26.5702L98.9344 26.6137C98.5747 26.5945 98.239 26.5839 97.9307 26.5839C97.5703 26.5839 97.2091 26.5939 96.8471 26.6137L96.8011 26.5702V26.2488L96.8473 26.2019C97.031 26.1959 97.2143 26.1796 97.3963 26.1532C97.4373 26.1442 97.4746 26.1227 97.503 26.0915C97.5314 26.0603 97.5494 26.021 97.5548 25.979C97.6091 25.4921 97.6296 25.002 97.6159 24.5123V22.0091C97.6296 21.5193 97.6092 21.0292 97.5548 20.5423C97.5492 20.5001 97.5311 20.4607 97.5028 20.4292C97.4744 20.3977 97.4373 20.3757 97.3963 20.366C97.3491 20.355 97.1661 20.3386 96.8473 20.3195L96.8012 20.2727V19.9509L96.8474 19.9074C97.1722 19.9273 97.583 19.9369 98.0797 19.9364C98.462 19.9364 98.7951 19.9268 99.079 19.9074C99.1823 20.1481 99.3293 20.4858 99.5201 20.9206L99.8199 21.5733L101.311 24.721L102.027 23.2528L103.147 20.8349C103.279 20.5491 103.407 20.2389 103.533 19.9077C103.885 19.9272 104.123 19.9367 104.245 19.9367C104.858 19.9367 105.327 19.9271 105.652 19.9077L105.698 19.9512V20.2775L105.652 20.3198C105.333 20.3389 105.15 20.3551 105.102 20.3665C105.061 20.3756 105.024 20.3975 104.995 20.429C104.966 20.4605 104.948 20.5002 104.943 20.5426C104.89 21.0295 104.869 21.5195 104.882 22.0091V24.5123C104.869 25.002 104.89 25.4921 104.943 25.9791C104.948 26.0214 104.966 26.061 104.995 26.0923C105.023 26.1235 105.061 26.1449 105.102 26.1533C105.285 26.1794 105.468 26.1956 105.652 26.2019L105.698 26.2487V26.5654H105.697ZM93.6951 26.5654L93.649 26.6136C93.339 26.5944 92.8585 26.5838 92.204 26.5838C91.5352 26.5838 91.0561 26.5936 90.7603 26.6136L90.7194 26.5701V26.2487L90.7656 26.2017C90.9494 26.1958 91.1326 26.1795 91.3145 26.153C91.3558 26.1447 91.3934 26.1233 91.4219 26.092C91.4504 26.0607 91.4684 26.0211 91.4731 25.9788C91.5281 25.492 91.5489 25.0019 91.5354 24.5121V21.3121L90.4888 23.4753C90.4298 23.5945 90.2266 24.0365 89.8793 24.8013L89.0214 26.6925H88.7077C88.544 26.3017 88.3254 25.8088 88.0475 25.2112L87.3913 23.806L86.1621 21.2284V24.5123C86.1492 25.002 86.1694 25.492 86.2225 25.979C86.228 26.0213 86.2463 26.0608 86.2751 26.092C86.3038 26.1232 86.3415 26.1446 86.3828 26.1532C86.5648 26.1796 86.7481 26.1958 86.9318 26.2019L86.978 26.2488V26.5702L86.932 26.6137C86.5722 26.5944 86.2376 26.5845 85.9283 26.5839C85.5685 26.5839 85.2073 26.5939 84.8447 26.6137L84.7987 26.5702V26.2488L84.8449 26.2019C85.0286 26.1959 85.2119 26.1796 85.3939 26.1532C85.4349 26.1444 85.4722 26.1229 85.5006 26.0917C85.5289 26.0604 85.5468 26.021 85.5518 25.979C85.6065 25.4922 85.6269 25.002 85.6129 24.5123V22.0091C85.627 21.5193 85.6065 21.0292 85.5518 20.5423C85.5465 20.5001 85.5286 20.4606 85.5003 20.4291C85.4721 20.3975 85.4349 20.3755 85.3939 20.366C85.3461 20.355 85.1637 20.3386 84.8449 20.3195L84.7988 20.2727V19.9509L84.845 19.9074C85.1698 19.9273 85.5807 19.9369 86.0779 19.9364C86.4602 19.9364 86.7929 19.9268 87.0761 19.9074C87.1793 20.1481 87.3263 20.4858 87.5171 20.9206L87.8169 21.5733L89.3078 24.721L90.0245 23.2528L91.145 20.8342C91.2771 20.5484 91.405 20.2382 91.5306 19.9069C91.8836 19.9265 92.1211 19.936 92.2433 19.936C92.8557 19.936 93.3244 19.9263 93.6496 19.9069L93.6958 19.9504V20.2768L93.6498 20.3191C93.331 20.3381 93.1479 20.3544 93.1008 20.3657C93.0594 20.3749 93.0219 20.3968 92.9932 20.4283C92.9645 20.4598 92.9461 20.4994 92.9405 20.5418C92.8873 21.0287 92.8671 21.5187 92.88 22.0084V24.5115C92.8671 25.0013 92.8874 25.4914 92.9405 25.9784C92.9458 26.0207 92.9641 26.0603 92.9928 26.0916C93.0216 26.1228 93.0594 26.1442 93.1008 26.1526C93.2828 26.1787 93.4661 26.1949 93.6498 26.2012L93.696 26.2479V26.5647L93.6951 26.5654ZM84.0531 26.5654L84.0088 26.6136C83.6963 26.5943 83.2137 26.5844 82.5609 26.5838C81.9115 26.5838 81.4284 26.5936 81.1177 26.6136L81.0735 26.5654V26.2487L81.1219 26.2017C81.305 26.1958 81.4877 26.1795 81.6691 26.153C81.7104 26.1444 81.748 26.123 81.7766 26.0918C81.8053 26.0606 81.8235 26.0211 81.8288 25.9788C81.8822 25.4919 81.9024 25.0019 81.8893 24.5121V22.009C81.9025 21.5192 81.8823 21.0291 81.8288 20.5421C81.8233 20.4998 81.805 20.4601 81.7764 20.4286C81.7478 20.3971 81.7104 20.3752 81.6691 20.3659C81.6218 20.3548 81.4395 20.3384 81.1219 20.3192L81.0735 20.2724V19.9506L81.1219 19.9071C81.4206 19.927 81.9018 19.9367 82.5656 19.9362C83.2241 19.9362 83.7045 19.9268 84.0037 19.9071L84.0521 19.9506V20.2724L84.0037 20.3192C83.6854 20.3384 83.5025 20.3548 83.4575 20.3659C83.416 20.375 83.3782 20.3968 83.3495 20.4283C83.3207 20.4599 83.3022 20.4996 83.2966 20.5421C83.2434 21.0291 83.2232 21.5192 83.2361 22.009V24.5121C83.2232 25.0019 83.2435 25.4919 83.2966 25.9788C83.302 26.0212 83.3204 26.0609 83.3492 26.0921C83.3781 26.1234 83.416 26.1447 83.4575 26.153C83.6385 26.1794 83.8209 26.1957 84.0037 26.2017L84.0521 26.2487L84.0531 26.5654ZM80.3381 25.0034C80.266 25.5208 80.2319 26.0429 80.2361 26.5654L80.1876 26.6136L76.7811 26.5838C76.2114 26.5838 75.8097 26.5937 75.576 26.6136L75.5281 26.5654V26.4327L75.5518 26.3761C75.6898 26.302 75.8163 26.2079 75.9271 26.0967C75.9713 25.8905 75.9887 25.6793 75.9791 25.4685L75.9924 24.4072V22.0084C76.0061 21.5186 75.9857 21.0284 75.9313 20.5415C75.926 20.4994 75.908 20.4598 75.8798 20.4283C75.8515 20.3968 75.8144 20.3748 75.7733 20.3653C75.7249 20.3542 75.5432 20.3378 75.2238 20.3186L75.1782 20.2718V19.95L75.2238 19.9065C75.5462 19.926 76.0172 19.9356 76.6408 19.9356C77.2837 19.9356 77.7739 19.9262 78.1082 19.9065L78.1545 19.95V20.2763L78.1084 20.3186C77.7884 20.3377 77.6065 20.3539 77.5588 20.3653C77.5175 20.3746 77.4801 20.3965 77.4515 20.428C77.423 20.4595 77.4047 20.499 77.3991 20.5414C77.3456 21.0282 77.3254 21.5183 77.3386 22.0079V24.8378C77.3386 25.2515 77.3467 25.6522 77.3628 26.0398H77.9995C78.9128 26.0398 79.4722 26.0037 79.6779 25.9315C79.7079 25.9222 79.7342 25.9035 79.753 25.8781C79.7991 25.7899 79.8294 25.694 79.8423 25.595L79.9547 25.0071L80.0013 24.9554H80.2874L80.3388 25.0023L80.3381 25.0034ZM74.2814 20.2157C74.2761 20.2933 74.2653 20.3705 74.2491 20.4466L74.1931 20.7504L73.9261 22.151H73.6061L73.3817 20.7504C73.3726 20.6956 73.3522 20.5955 73.3252 20.4466C73.3093 20.3704 73.2983 20.2933 73.2923 20.2157C73.2909 20.1498 73.3032 20.0843 73.3282 20.0234C73.3532 19.9625 73.3904 19.9074 73.4375 19.8618C73.4836 19.8153 73.5385 19.7786 73.5989 19.754C73.6594 19.7293 73.7241 19.7172 73.7893 19.7183C73.8542 19.7175 73.9186 19.7298 73.9786 19.7546C74.0387 19.7793 74.0933 19.8159 74.1392 19.8623C74.185 19.9086 74.2212 19.9638 74.2456 20.0245C74.27 20.0852 74.282 20.1502 74.2811 20.2157H74.2814ZM72.4658 26.5654L72.4243 26.6136C71.7306 26.5944 71.3133 26.5838 71.1679 26.5838C70.5936 26.5838 70.0592 26.5937 69.5649 26.6136L69.5229 26.5654V26.2675L69.5701 26.2144L69.9778 26.1919C70.1491 26.1821 70.2355 26.1207 70.2355 26.0078C70.2118 25.854 70.1678 25.7041 70.1046 25.5621L69.7247 24.5638C69.2933 24.5574 68.8538 24.5543 68.4019 24.5543C68.1586 24.5543 67.7965 24.5575 67.3156 24.5638L67.109 25.1406C66.9987 25.4048 66.9197 25.6813 66.8737 25.9642C66.8737 26.0834 66.9475 26.1545 67.0951 26.1775C67.1765 26.1901 67.3356 26.2034 67.5737 26.2146L67.6199 26.2633V26.5654L67.5738 26.6137C66.9961 26.5945 66.6236 26.5847 66.4592 26.5847C66.3306 26.5847 66.0118 26.5945 65.5061 26.6137L65.46 26.5702V26.2634L65.5114 26.215C65.8332 26.1971 66.031 26.1328 66.103 26.0213C66.1751 25.9099 66.4542 25.254 66.9327 24.049L68.1551 20.9589C68.2462 20.7184 68.3841 20.3583 68.5684 19.8751H69.2344L71.7196 25.7753C71.8153 26 71.903 26.1262 71.9809 26.1535C72.125 26.1981 72.2755 26.2178 72.4261 26.2117L72.4676 26.2634V26.5656L72.4658 26.5654ZM69.4945 24.0194L68.4908 21.5401L67.5313 24.0194C67.7872 24.0293 68.1199 24.0343 68.5295 24.0343C68.9264 24.034 69.2483 24.029 69.4951 24.0192L69.4945 24.0194ZM65.9184 19.936C65.8794 20.1752 65.8588 20.4171 65.8567 20.6595L65.848 21.4492L65.8007 21.4975H65.5055L65.4541 21.454C65.4521 21.2168 65.4349 20.98 65.4027 20.745C65.3815 20.6811 65.3413 20.6254 65.2875 20.5854C65.2338 20.5454 65.1691 20.5231 65.1024 20.5216C65.0395 20.5119 64.7449 20.5067 64.2213 20.5067H63.5927C63.587 20.6184 63.5836 21.0562 63.5836 21.8233V24.5109C63.5704 25.0007 63.5907 25.4907 63.6441 25.9777C63.6492 26.02 63.6674 26.0596 63.6961 26.0908C63.7247 26.1221 63.7624 26.1435 63.8038 26.1518C63.9852 26.1781 64.1679 26.1944 64.351 26.2006L64.4 26.2475V26.5643L64.351 26.6124C64.0431 26.5932 63.5606 26.5826 62.9084 26.5826C62.2393 26.5826 61.7582 26.5925 61.4653 26.6124L61.422 26.5689V26.2475L61.4698 26.2006C61.653 26.1947 61.8356 26.1784 62.017 26.1518C62.0584 26.1435 62.0961 26.1221 62.1248 26.0908C62.1535 26.0596 62.1716 26.02 62.1767 25.9777C62.2301 25.4907 62.2506 25.0007 62.2378 24.5109V21.8245C62.2378 21.0441 62.2332 20.6066 62.2231 20.5078H61.5531C60.9943 20.5078 60.6679 20.5257 60.574 20.5613C60.5331 20.5727 60.4968 20.5969 60.4706 20.6306C60.4297 20.727 60.4058 20.8299 60.4002 20.9346C60.3778 21.1007 60.3639 21.2735 60.357 21.4498L60.3109 21.4982H60.0145L59.9632 21.4498L59.954 20.6406C59.9506 20.4048 59.9317 20.1695 59.8975 19.9362L59.9407 19.8879C60.1252 19.92 60.7967 19.9361 61.9553 19.9362H63.8546C64.9242 19.9362 65.5965 19.9201 65.8716 19.8879L65.9182 19.9362L65.9184 19.936ZM176.908 8.67024L176.855 8.71716C176.534 8.73668 176.352 8.75292 176.305 8.7644C176.264 8.77362 176.226 8.79554 176.197 8.82717C176.168 8.8588 176.15 8.89863 176.144 8.94126C176.091 9.4304 176.071 9.92262 176.083 10.4145V12.3437C176.083 13.7666 176.104 14.6935 176.144 15.1246L176.083 15.1683C175.728 15.1087 175.459 15.064 175.278 15.0404C174.437 14.0868 173.001 12.3469 170.968 9.82048V12.9294C170.955 13.4213 170.975 13.9135 171.029 14.4026C171.034 14.4451 171.053 14.4848 171.081 14.5163C171.11 14.5477 171.148 14.5693 171.19 14.5779C171.372 14.6044 171.556 14.6206 171.741 14.6267L171.787 14.6734V14.9966L171.741 15.0404C171.379 15.0206 171.043 15.0106 170.733 15.0106C170.371 15.0106 170.01 15.0203 169.644 15.0404L169.598 14.9966V14.6734L169.645 14.6267C169.829 14.6207 170.013 14.6044 170.196 14.5779C170.237 14.5695 170.275 14.5479 170.304 14.5164C170.333 14.4849 170.351 14.4451 170.356 14.4026C170.411 13.9136 170.431 13.4214 170.418 12.9294V10.4144C170.431 9.92243 170.411 9.43012 170.356 8.94111C170.351 8.89852 170.332 8.85859 170.304 8.82688C170.275 8.79518 170.237 8.77328 170.196 8.76425C170.15 8.75278 169.965 8.73639 169.645 8.71702L169.599 8.67008V8.34735L169.645 8.30355C169.945 8.32292 170.228 8.33335 170.498 8.33335C170.921 8.33335 171.273 8.32341 171.553 8.30355C172.683 9.8256 174.01 11.4563 175.536 13.1957V10.4147C175.549 9.9228 175.529 9.4306 175.475 8.94156C175.469 8.89925 175.451 8.85962 175.423 8.828C175.395 8.79638 175.357 8.77428 175.316 8.7647C175.268 8.75322 175.084 8.73699 174.765 8.71762L174.716 8.67053V8.34765L174.765 8.304C175.116 8.32387 175.45 8.33379 175.768 8.33379C176.173 8.33379 176.536 8.32387 176.859 8.304L176.908 8.34765V8.67053L176.908 8.67024ZM168.953 14.9919L168.911 15.0407C168.213 15.0211 167.794 15.0109 167.649 15.0109C167.072 15.0109 166.534 15.0209 166.038 15.0407L165.997 14.9919V14.6939L166.043 14.6404L166.453 14.6177C166.626 14.6082 166.712 14.5464 166.712 14.4328C166.688 14.278 166.643 14.1273 166.579 13.9848L166.199 12.9822C165.765 12.9758 165.323 12.9724 164.869 12.9724C164.625 12.9724 164.262 12.9756 163.777 12.9822L163.57 13.5613C163.46 13.827 163.381 14.1047 163.334 14.389C163.334 14.509 163.408 14.5804 163.556 14.6031C163.638 14.6159 163.796 14.629 164.037 14.6404L164.083 14.6892V14.9926L164.037 15.0413C163.456 15.0214 163.082 15.0115 162.916 15.0115C162.788 15.0115 162.468 15.0212 161.96 15.0413L161.914 14.9977V14.6892L161.965 14.6404C162.288 14.6225 162.487 14.5577 162.56 14.4456C162.633 14.3336 162.912 13.6747 163.392 12.4647L164.62 9.36068C164.712 9.11901 164.85 8.7574 165.035 8.27226H165.704L168.2 14.1993C168.297 14.4251 168.384 14.5513 168.464 14.5788C168.608 14.6239 168.76 14.6438 168.911 14.6374L168.953 14.6894V14.9927L168.953 14.9919ZM165.967 12.4349L164.96 9.94415L163.996 12.4349C164.252 12.4449 164.587 12.4498 164.999 12.4498C165.398 12.4498 165.721 12.4451 165.968 12.4349H165.967ZM161.22 12.6116L161.174 12.6638C160.979 12.7107 160.866 12.7772 160.835 12.86C160.803 12.9429 160.787 13.2657 160.787 13.8239C160.787 14.0931 160.8 14.3591 160.826 14.622C159.918 14.9926 158.951 15.1954 157.972 15.2207C156.847 15.2207 155.937 14.9032 155.243 14.2683C154.547 13.6326 154.199 12.7662 154.199 11.6691C154.199 10.241 154.813 9.22256 156.041 8.61376C156.603 8.33444 157.318 8.19484 158.183 8.19494C158.697 8.19607 159.208 8.2516 159.71 8.36062C160.055 8.42741 160.392 8.53301 160.714 8.67545L160.756 8.75949C160.644 9.23729 160.576 9.72447 160.552 10.2149L160.501 10.262H160.219L160.172 10.2149C160.172 10.1553 160.165 10.0298 160.153 9.84238C160.147 9.70887 160.131 9.57597 160.106 9.44472C159.919 9.22065 159.674 9.05333 159.399 8.96137C159.029 8.81931 158.636 8.74821 158.24 8.75174C157.129 8.75174 156.362 9.20438 155.938 10.1097C155.735 10.5669 155.635 11.064 155.645 11.5651C155.645 12.4464 155.878 13.1772 156.343 13.7574C156.566 14.0466 156.853 14.2789 157.181 14.4356C157.509 14.5923 157.869 14.669 158.232 14.6594C158.643 14.6591 159.049 14.5683 159.423 14.3935C159.444 14.1712 159.455 13.8678 159.455 13.4815C159.464 13.2905 159.453 13.0991 159.423 12.9104C159.404 12.8602 159.344 12.8229 159.243 12.8017C158.979 12.7644 158.714 12.7405 158.448 12.7302L158.395 12.6815V12.3835L158.448 12.3366C158.904 12.3481 159.379 12.3528 159.879 12.3497C160.168 12.3462 160.6 12.3419 161.175 12.3366L161.221 12.3835V12.6122L161.22 12.6116ZM153.29 13.4229C153.217 13.9426 153.182 14.467 153.186 14.9919L153.139 15.0407L149.716 15.0109C149.144 15.0109 148.741 15.0209 148.506 15.0407L148.457 14.9919V14.8587L148.481 14.802C148.62 14.7277 148.747 14.6331 148.858 14.5213C148.903 14.3141 148.92 14.1019 148.911 13.89L148.924 12.8242V10.4147C148.938 9.92275 148.917 9.43048 148.863 8.9414C148.857 8.899 148.839 8.85932 148.811 8.82771C148.782 8.79609 148.745 8.77406 148.703 8.76455C148.656 8.75308 148.472 8.73669 148.153 8.71732L148.105 8.67038V8.34751L148.153 8.30385C148.476 8.32371 148.949 8.33365 149.575 8.33365C150.221 8.33365 150.712 8.32371 151.049 8.30385L151.096 8.34751V8.6753L151.049 8.71716C150.728 8.73683 150.544 8.75292 150.498 8.7644C150.456 8.77337 150.418 8.79522 150.389 8.82691C150.36 8.8586 150.342 8.89857 150.337 8.94126C150.283 9.43035 150.263 9.92261 150.276 10.4145V13.2571C150.276 13.6725 150.284 14.0748 150.301 14.464H150.939C151.857 14.464 152.418 14.4283 152.627 14.3552C152.657 14.3457 152.683 14.327 152.702 14.3017C152.747 14.2132 152.778 14.1175 152.792 14.0186L152.905 13.4278L152.951 13.376H153.239L153.29 13.4229ZM147.422 14.9919L147.379 15.0407C147.065 15.0209 146.58 15.0109 145.924 15.0109C145.271 15.0109 144.787 15.0209 144.474 15.0407L144.431 14.9919V14.6737L144.479 14.6268C144.663 14.621 144.847 14.6047 145.029 14.5781C145.07 14.5696 145.108 14.548 145.137 14.5166C145.166 14.4851 145.184 14.4454 145.189 14.4029C145.243 13.9138 145.264 13.4216 145.25 12.9297V10.4147C145.264 9.92275 145.243 9.43048 145.189 8.9414C145.184 8.8988 145.166 8.85891 145.137 8.82724C145.108 8.79556 145.07 8.77366 145.029 8.76455C144.982 8.75308 144.799 8.73669 144.479 8.71732L144.431 8.67038V8.34751L144.479 8.30385C144.78 8.32371 145.263 8.33365 145.929 8.33365C146.591 8.33365 147.073 8.32371 147.374 8.30385L147.422 8.34751V8.67038L147.374 8.71732C147.054 8.73698 146.87 8.75308 146.825 8.76455C146.783 8.77353 146.745 8.79537 146.716 8.82706C146.688 8.85875 146.669 8.89871 146.664 8.9414C146.61 9.4305 146.59 9.92275 146.603 10.4147V12.9296C146.59 13.4215 146.61 13.9137 146.664 14.4027C146.669 14.4453 146.687 14.4851 146.716 14.5166C146.745 14.548 146.783 14.5695 146.825 14.5779C147.007 14.6045 147.19 14.6208 147.374 14.6267L147.422 14.6736V14.9919ZM143.913 14.9919L143.866 15.0407C143.844 15.0407 143.784 15.0391 143.688 15.0358C143.257 15.0194 142.988 15.0115 142.883 15.0115C142.722 15.0115 142.468 15.0212 142.119 15.0413C142.079 14.9056 142.019 14.7769 141.94 14.66L140.772 12.6919L140.25 11.8889C140.172 11.7786 140.078 11.6807 139.971 11.5983L140.023 11.4377C140.095 11.441 140.149 11.4426 140.184 11.4426C140.433 11.4545 140.682 11.4038 140.908 11.2951C141.094 11.1813 141.247 11.0208 141.352 10.8293C141.491 10.5887 141.56 10.314 141.553 10.0359C141.553 9.50044 141.355 9.13917 140.96 8.95213C140.697 8.84987 140.417 8.80443 140.136 8.81878C139.985 8.81775 139.833 8.83022 139.684 8.85603C139.653 9.16609 139.637 9.69652 139.637 10.4446V12.9306C139.624 13.4225 139.644 13.9148 139.697 14.4039C139.703 14.4464 139.722 14.486 139.751 14.5174C139.78 14.5488 139.817 14.5703 139.859 14.579C140.042 14.6056 140.226 14.6218 140.41 14.6277L140.457 14.6746V14.9927L140.414 15.0418C140.1 15.0219 139.616 15.012 138.963 15.012C138.288 15.012 137.805 15.0219 137.513 15.0418L137.467 14.9971V14.6739L137.513 14.627C137.698 14.621 137.883 14.6047 138.066 14.5782C138.107 14.5692 138.144 14.5474 138.173 14.5161C138.201 14.4848 138.219 14.4453 138.224 14.4032C138.278 13.9141 138.299 13.4218 138.285 12.9299V10.4151C138.299 9.92322 138.278 9.43093 138.224 8.94186C138.219 8.89955 138.201 8.85992 138.173 8.8283C138.144 8.79668 138.107 8.77458 138.066 8.765C138.017 8.75337 137.834 8.73713 137.513 8.71776L137.467 8.67068V8.34795L137.514 8.30415C137.821 8.32401 138.304 8.33395 138.964 8.33395C139.346 8.33395 139.657 8.32903 139.897 8.31904C140.37 8.29982 140.725 8.29 140.959 8.29C141.363 8.27144 141.767 8.3213 142.155 8.4375C142.312 8.49136 142.456 8.5799 142.575 8.69668C142.693 8.81346 142.785 8.95555 142.843 9.11261C142.903 9.28992 142.932 9.4765 142.928 9.66389C142.928 10.5255 142.448 11.1372 141.488 11.4991C141.644 11.7652 141.811 12.0343 141.987 12.3068L142.711 13.433C143.139 14.0986 143.423 14.4777 143.563 14.5703C143.655 14.6219 143.76 14.646 143.865 14.6401L143.913 14.6891V14.9924L143.913 14.9919ZM136.783 14.9919L136.741 15.0407C136.428 15.0211 135.942 15.0109 135.286 15.0109C134.633 15.0109 134.15 15.0209 133.836 15.0407L133.793 14.9919V14.6737L133.841 14.6268C134.025 14.621 134.208 14.6047 134.391 14.5781C134.432 14.5697 134.47 14.5482 134.499 14.5168C134.528 14.4853 134.546 14.4455 134.551 14.4029C134.605 13.9138 134.626 13.4216 134.613 12.9297V10.4147C134.626 9.92275 134.605 9.4305 134.551 8.9414C134.546 8.89887 134.527 8.85913 134.498 8.82751C134.47 8.79589 134.432 8.77393 134.391 8.76455C134.345 8.75308 134.16 8.73669 133.841 8.71732L133.793 8.67038V8.34751L133.841 8.30385C134.141 8.32322 134.626 8.33365 135.291 8.33365C135.952 8.33365 136.436 8.32381 136.736 8.30385L136.785 8.34751V8.67038L136.736 8.71732C136.416 8.73698 136.232 8.75308 136.186 8.76455C136.144 8.77391 136.107 8.79587 136.078 8.82749C136.049 8.85911 136.031 8.89886 136.025 8.9414C135.972 9.43057 135.952 9.92278 135.965 10.4147V12.9296C135.952 13.4214 135.972 13.9136 136.025 14.4027C136.031 14.4451 136.049 14.4848 136.078 14.5162C136.107 14.5475 136.144 14.5691 136.186 14.5779C136.368 14.6044 136.552 14.6206 136.736 14.6267L136.785 14.6736V14.9917L136.783 14.9919ZM133.219 8.33306C133.18 8.57331 133.159 8.81625 133.158 9.05971L133.147 9.85311L133.102 9.90199H132.804L132.753 9.85833C132.75 9.62015 132.733 9.38234 132.701 9.14627C132.68 9.08227 132.639 9.02652 132.585 8.98654C132.531 8.94657 132.466 8.92431 132.399 8.92278C132.335 8.91284 132.04 8.90788 131.512 8.90788H130.883C130.876 9.01978 130.873 9.45917 130.873 10.2302V12.9299C130.86 13.4218 130.881 13.9139 130.934 14.403C130.94 14.4455 130.958 14.4851 130.987 14.5165C131.016 14.548 131.054 14.5696 131.095 14.5784C131.277 14.6049 131.461 14.6212 131.645 14.6273L131.693 14.674V14.9922L131.645 15.0412C131.335 15.0214 130.85 15.0114 130.194 15.0114C129.523 15.0114 129.039 15.0209 128.745 15.0412L128.702 14.9965V14.6734L128.749 14.6267C128.934 14.6208 129.117 14.6045 129.3 14.5778C129.341 14.5692 129.379 14.5476 129.408 14.5162C129.437 14.4847 129.455 14.445 129.46 14.4024C129.514 13.9134 129.535 13.4212 129.522 12.9293V10.2301C129.522 9.44651 129.516 9.00652 129.507 8.90774H128.833C128.273 8.90774 127.944 8.92556 127.849 8.96122C127.808 8.97283 127.772 8.99725 127.746 9.03095C127.705 9.12772 127.681 9.23085 127.675 9.3358C127.653 9.50297 127.639 9.67656 127.631 9.85341L127.585 9.90229H127.287L127.236 9.85341L127.226 9.04079C127.223 8.80394 127.205 8.56756 127.17 8.3332L127.213 8.28433C127.399 8.31671 128.074 8.333 129.238 8.3332H131.148C132.221 8.3332 132.896 8.31691 133.173 8.28433L133.22 8.3332L133.219 8.33306ZM126.678 14.9919L126.629 15.0407C126.319 15.0209 125.836 15.0109 125.18 15.0109C124.508 15.0109 124.025 15.0209 123.73 15.0407L123.681 14.9969V14.6737L123.733 14.6268C123.917 14.6211 124.101 14.6048 124.284 14.5781C124.326 14.5698 124.364 14.5484 124.393 14.5169C124.422 14.4854 124.44 14.4455 124.445 14.4029C124.498 13.9138 124.519 13.4216 124.506 12.9297V11.7841C124.345 11.7679 123.837 11.7598 122.981 11.7597C122.19 11.7597 121.668 11.7679 121.417 11.7841V12.9297C121.404 13.4216 121.424 13.9138 121.477 14.4029C121.483 14.4452 121.501 14.4848 121.53 14.5161C121.559 14.5475 121.596 14.5691 121.638 14.5781C121.821 14.6045 122.005 14.6208 122.19 14.6268L122.236 14.6737V14.9919L122.194 15.0407C121.88 15.0209 121.396 15.0109 120.743 15.0109C120.069 15.0109 119.584 15.0205 119.293 15.0407L119.247 14.9969V14.6737L119.293 14.6268C119.478 14.6208 119.662 14.6046 119.845 14.5781C119.886 14.5692 119.923 14.5475 119.952 14.5161C119.98 14.4847 119.998 14.4451 120.003 14.4029C120.058 13.9139 120.079 13.4216 120.065 12.9297V10.4147C120.079 9.92273 120.059 9.43038 120.003 8.9414C119.998 8.89905 119.98 8.85936 119.952 8.82772C119.923 8.79607 119.886 8.77402 119.845 8.76455C119.797 8.75308 119.613 8.73669 119.293 8.71732L119.247 8.67038V8.34751L119.294 8.30385C119.594 8.32322 120.078 8.33365 120.744 8.33365C121.425 8.33365 121.908 8.32371 122.195 8.30385L122.237 8.34751V8.6753L122.19 8.71716C121.869 8.73683 121.685 8.75292 121.638 8.7644C121.597 8.77388 121.559 8.7959 121.531 8.82751C121.502 8.85912 121.484 8.8988 121.478 8.94126C121.425 9.4304 121.404 9.92262 121.417 10.4145V11.1986C121.75 11.2148 122.209 11.2229 122.793 11.2228C123.709 11.2228 124.281 11.2147 124.507 11.1986V10.415C124.521 9.92304 124.5 9.43075 124.446 8.9417C124.44 8.8991 124.422 8.85921 124.393 8.82753C124.365 8.79585 124.327 8.77395 124.285 8.76484C124.238 8.75337 124.055 8.73699 123.733 8.71762L123.683 8.67068V8.34781L123.731 8.30415C124.034 8.32401 124.518 8.33395 125.18 8.33395C125.865 8.33395 126.348 8.32401 126.63 8.30415L126.679 8.34781V8.67559L126.635 8.71746C126.309 8.73713 126.124 8.75322 126.08 8.7647C126.038 8.77378 126.001 8.79568 125.972 8.82736C125.943 8.85905 125.925 8.89895 125.92 8.94156C125.865 9.43058 125.845 9.9229 125.859 10.4148V12.9297C125.845 13.4216 125.865 13.9139 125.92 14.4029C125.925 14.4453 125.943 14.485 125.972 14.5165C126.001 14.5479 126.039 14.5694 126.08 14.5781C126.262 14.6045 126.446 14.6208 126.63 14.6268L126.679 14.6737L126.678 14.9919ZM118.442 12.8146C118.45 13.3129 118.294 13.7998 117.998 14.1986C117.74 14.5509 117.389 14.8226 116.985 14.9823C116.548 15.151 116.083 15.2319 115.616 15.2207C114.943 15.2175 114.281 15.0617 113.676 14.7648L113.619 14.6593C113.72 14.1476 113.764 13.6263 113.751 13.1048L113.798 13.0577H114.099L114.142 13.1048V13.2154C114.147 13.4504 114.165 13.6849 114.198 13.9176C114.343 14.15 114.555 14.3322 114.806 14.4403C115.101 14.5905 115.427 14.6688 115.757 14.669C116.377 14.669 116.809 14.45 117.047 14.0134C117.167 13.8002 117.23 13.5593 117.231 13.314C117.242 13.1349 117.2 12.9565 117.11 12.8016C117.02 12.6468 116.887 12.5225 116.727 12.4446C116.47 12.3331 116.199 12.2609 115.921 12.2304C115.083 12.1007 114.532 11.9374 114.268 11.7405C113.87 11.4435 113.671 10.9826 113.671 10.3579C113.658 10.0664 113.71 9.77578 113.822 9.50696C113.934 9.23813 114.105 8.99784 114.32 8.80344C114.778 8.39787 115.415 8.19508 116.233 8.19508C116.967 8.19508 117.56 8.31428 118.012 8.55268L118.044 8.66636C117.963 9.1152 117.918 9.56993 117.909 10.0261L117.856 10.0732H117.561L117.512 10.0261C117.513 9.77812 117.498 9.53033 117.465 9.28455C117.336 9.11021 117.16 8.97764 116.957 8.90312C116.702 8.79636 116.429 8.74177 116.153 8.7425C115.789 8.7222 115.432 8.84299 115.153 9.08012C115.041 9.18409 114.952 9.31146 114.893 9.45347C114.833 9.59547 114.805 9.74874 114.81 9.90273C114.8 10.0595 114.83 10.2163 114.899 10.3574C114.967 10.4985 115.071 10.6187 115.201 10.706C115.37 10.8161 115.77 10.9221 116.402 11.0239C116.467 11.0336 116.651 11.0645 116.953 11.1197C117.128 11.1479 117.299 11.1936 117.465 11.2562C117.757 11.3569 118.008 11.5503 118.181 11.8075C118.364 12.1103 118.455 12.4607 118.442 12.8152L118.442 12.8146ZM112.823 14.9919L112.781 15.0407C112.083 15.0211 111.663 15.0109 111.518 15.0109C110.943 15.0109 110.404 15.0205 109.909 15.0407L109.866 14.9919V14.6939L109.913 14.6404L110.322 14.6177C110.494 14.6082 110.582 14.5464 110.582 14.4328C110.558 14.2781 110.513 14.1274 110.449 13.9848L110.069 12.9822C109.634 12.9758 109.192 12.9724 108.738 12.9724C108.494 12.9724 108.13 12.9756 107.647 12.9822L107.44 13.5613C107.33 13.827 107.25 14.1047 107.204 14.389C107.204 14.509 107.278 14.5804 107.425 14.6031C107.507 14.6159 107.666 14.629 107.905 14.6404L107.952 14.6892V14.9926L107.905 15.0413C107.325 15.0218 106.951 15.0115 106.785 15.0115C106.657 15.0115 106.336 15.0212 105.829 15.0413L105.781 14.9977V14.6892L105.833 14.6404C106.156 14.6225 106.356 14.5577 106.428 14.4456C106.502 14.3355 106.78 13.6752 107.261 12.4647L108.49 9.36068C108.581 9.11901 108.719 8.7574 108.903 8.27226H109.571L112.069 14.1993C112.166 14.425 112.253 14.5515 112.332 14.5788C112.476 14.6239 112.628 14.6437 112.779 14.6374L112.821 14.6894V14.9927L112.823 14.9919ZM109.837 12.4352L108.829 9.944L107.865 12.4348C108.122 12.4447 108.456 12.4497 108.867 12.4497C109.266 12.4494 109.59 12.4446 109.837 12.4352ZM105.193 13.4232C105.121 13.9429 105.086 14.4673 105.09 14.9922L105.042 15.041L101.62 15.0112C101.047 15.0112 100.644 15.0212 100.41 15.041L100.362 14.9922V14.8589L100.386 14.8023C100.524 14.7276 100.65 14.633 100.761 14.5216C100.807 14.3145 100.825 14.1022 100.814 13.8903L100.828 12.8245V10.4147C100.841 9.92275 100.821 9.43045 100.767 8.9414C100.761 8.89912 100.743 8.85957 100.714 8.82799C100.686 8.79641 100.649 8.77428 100.607 8.76455C100.559 8.75308 100.376 8.73669 100.056 8.71732L100.01 8.67038V8.34751L100.056 8.30385C100.379 8.32371 100.854 8.33365 101.479 8.33365C102.125 8.33365 102.617 8.32371 102.953 8.30385L103 8.34751V8.6753L102.953 8.71716C102.631 8.73683 102.448 8.75292 102.401 8.7644C102.36 8.77348 102.322 8.79538 102.293 8.82706C102.265 8.85875 102.246 8.89865 102.241 8.94126C102.187 9.43036 102.167 9.9226 102.179 10.4145V13.2571C102.179 13.6725 102.188 14.0748 102.204 14.464H102.844C103.762 14.464 104.323 14.4283 104.53 14.3552C104.56 14.3454 104.587 14.3268 104.606 14.3017C104.652 14.2133 104.682 14.1175 104.696 14.0186L104.808 13.4278L104.855 13.376H105.142L105.193 13.4232ZM99.2042 12.8149C99.2124 13.313 99.0567 13.7997 98.7614 14.1989C98.5034 14.5512 98.152 14.8228 97.7477 14.9825C97.3111 15.1514 96.8459 15.2324 96.3784 15.2209C95.7061 15.2176 95.0431 15.0618 94.4386 14.7649L94.3821 14.6594C94.4831 14.1478 94.5272 13.6264 94.5136 13.105L94.5608 13.0577H94.8612L94.9045 13.105V13.2154C94.9091 13.4504 94.9279 13.685 94.961 13.9177C95.1064 14.1503 95.3186 14.3326 95.5693 14.4403C95.8641 14.5906 96.1898 14.6689 96.5201 14.6691C97.14 14.6691 97.5698 14.4506 97.8093 14.0135C97.9295 13.8001 97.9931 13.5588 97.9938 13.3133C98.005 13.1341 97.963 12.9557 97.8731 12.8009C97.7832 12.646 97.6495 12.5218 97.4893 12.444C97.2328 12.3325 96.9613 12.2603 96.6838 12.2298C95.8459 12.1 95.2949 11.9368 95.0306 11.74C94.6321 11.443 94.4327 10.9822 94.4325 10.3576C94.42 10.0661 94.4718 9.77544 94.5841 9.50659C94.6964 9.23773 94.8665 8.99742 95.082 8.80299C95.5398 8.39742 96.1773 8.19458 96.9946 8.19448C97.7292 8.19448 98.3224 8.31368 98.7741 8.55208L98.8064 8.66576C98.7247 9.11449 98.6794 9.56919 98.6709 10.0254L98.6179 10.0724H98.3227L98.2742 10.0254C98.2752 9.77739 98.2596 9.52965 98.2276 9.2838C98.0986 9.10983 97.9224 8.97734 97.7203 8.90237C97.4649 8.79572 97.1911 8.74113 96.9148 8.74175C96.5514 8.72116 96.1939 8.84187 95.916 9.07908C95.8033 9.1831 95.7143 9.31058 95.6552 9.4527C95.596 9.59483 95.568 9.74821 95.5733 9.90229C95.5624 10.0591 95.5928 10.2159 95.6614 10.357C95.7299 10.4981 95.8342 10.6184 95.9637 10.7057C96.1327 10.8159 96.5331 10.9218 97.1649 11.0233C97.2311 11.0332 97.414 11.064 97.716 11.1193C97.891 11.1475 98.0626 11.1932 98.2286 11.2556C98.5199 11.3565 98.771 11.5499 98.9443 11.8069C99.127 12.1098 99.2175 12.4602 99.2044 12.8146L99.2042 12.8149ZM93.3736 11.4989C93.3736 12.6686 93.0359 13.5858 92.3605 14.2507C91.7055 14.8984 90.8093 15.2219 89.6718 15.2212C88.5976 15.2212 87.7548 14.9161 87.1434 14.3059C86.5304 13.6959 86.2234 12.8473 86.2225 11.7601C86.2225 10.2365 86.7992 9.18134 87.9524 8.59469C88.5581 8.31089 89.2212 8.17414 89.8886 8.19538C90.9824 8.19538 91.8371 8.48443 92.4458 9.06522C93.0632 9.65375 93.3725 10.4649 93.3739 11.4986L93.3736 11.4989ZM91.9223 11.7455C91.9223 10.8272 91.7393 10.0976 91.3733 9.55676C91.0066 9.01635 90.4721 8.74726 89.7656 8.74726C88.8321 8.74726 88.2135 9.17021 87.9096 10.0161C87.747 10.4846 87.6673 10.9784 87.6743 11.4748C87.6743 12.4549 87.8535 13.2283 88.2118 13.795C88.5814 14.381 89.1354 14.674 89.8736 14.674C90.7691 14.674 91.3703 14.229 91.6772 13.339C91.8474 12.8254 91.9303 12.2863 91.9223 11.7448V11.7455ZM85.2786 12.8149C85.2866 13.3131 85.1305 13.8 84.8346 14.1989C84.5769 14.5513 84.2257 14.823 83.8216 14.9825C83.3848 15.1513 82.9196 15.2323 82.4521 15.2209C81.7797 15.2176 81.1165 15.0618 80.5118 14.7649L80.4553 14.6594C80.5565 14.1479 80.6009 13.6265 80.5874 13.105L80.634 13.0577H80.9344L80.9787 13.105V13.2154C80.9834 13.4504 81.0018 13.6849 81.034 13.9177C81.1797 14.1501 81.3918 14.3323 81.6423 14.4403C81.9374 14.5905 82.2632 14.6689 82.5937 14.6691C83.2136 14.6691 83.6448 14.4501 83.8823 14.0135C84.0031 13.8003 84.0667 13.5589 84.0668 13.3133C84.0781 13.1342 84.0362 12.9558 83.9464 12.8009C83.8566 12.6461 83.7231 12.5218 83.5629 12.444C83.3063 12.3324 83.0346 12.2602 82.7568 12.2298C81.9203 12.1 81.3697 11.9368 81.1049 11.74C80.7063 11.4429 80.5064 10.9821 80.5064 10.3576C80.4941 10.0661 80.5459 9.77555 80.6582 9.50674C80.7705 9.23793 80.9405 8.99759 81.1558 8.80299C81.6142 8.39742 82.2518 8.19458 83.0684 8.19448C83.8036 8.19448 84.397 8.31368 84.8485 8.55208L84.8808 8.66576C84.7988 9.11443 84.7536 9.56918 84.7459 10.0254L84.6929 10.0724H84.3977L84.3498 10.0254C84.351 9.77737 84.3352 9.52959 84.3026 9.2838C84.1734 9.10969 83.997 8.97718 83.7947 8.90237C83.5393 8.79572 83.2655 8.74113 82.9892 8.74175C82.626 8.72136 82.2688 8.84205 81.991 9.07908C81.8782 9.18297 81.789 9.31034 81.7297 9.45239C81.6704 9.59443 81.6423 9.74777 81.6474 9.90184C81.6366 10.0586 81.667 10.2155 81.7357 10.3566C81.8043 10.4977 81.9087 10.618 82.0383 10.7052C82.206 10.8155 82.6064 10.9214 83.2393 11.0229C83.3044 11.0327 83.4885 11.0636 83.7895 11.1188C83.9646 11.1469 84.1366 11.1926 84.3027 11.2552C84.5941 11.3562 84.8453 11.5496 85.0189 11.8065C85.2013 12.1097 85.2918 12.4601 85.2792 12.8146L85.2786 12.8149ZM79.5103 14.992L79.4659 15.0407C79.1523 15.0209 78.6676 15.0109 78.0117 15.0109C77.3578 15.0109 76.874 15.0209 76.5604 15.0407L76.5177 14.992V14.6739L76.5655 14.627C76.7497 14.6211 76.9334 14.6048 77.1157 14.5781C77.1573 14.5695 77.1952 14.548 77.2241 14.5165C77.253 14.4851 77.2713 14.4453 77.2766 14.4027C77.33 13.9136 77.3504 13.4215 77.3377 12.9296V10.4147C77.3505 9.92281 77.3301 9.43063 77.2766 8.94156C77.2711 8.89894 77.2527 8.85907 77.2239 8.82742C77.1951 8.79576 77.1573 8.77385 77.1157 8.7647C77.0691 8.75322 76.8856 8.73699 76.5655 8.71762L76.5177 8.67053V8.34765L76.5655 8.304C76.8665 8.32352 77.3508 8.33379 78.0157 8.33379C78.6776 8.33379 79.1603 8.32397 79.4607 8.304L79.5096 8.34765V8.67053L79.4607 8.71762C79.1413 8.73714 78.9573 8.75322 78.9111 8.7647C78.8695 8.77386 78.8317 8.79579 78.8029 8.82747C78.7741 8.85916 78.7557 8.89906 78.7502 8.9417C78.6964 9.43075 78.676 9.92296 78.6891 10.4148V12.9297C78.676 13.4216 78.6965 13.9138 78.7502 14.4029C78.7555 14.4454 78.7739 14.4852 78.8027 14.5166C78.8316 14.5481 78.8695 14.5696 78.9111 14.5782C79.0933 14.6048 79.2767 14.6211 79.4607 14.6271L79.5096 14.674L79.5103 14.992ZM75.9434 8.3332C75.9053 8.57355 75.8853 8.81646 75.8835 9.05986L75.8731 9.85326L75.8271 9.90213H75.5301L75.4777 9.85848C75.4759 9.6202 75.4588 9.38229 75.4263 9.14627C75.405 9.08208 75.3645 9.02614 75.3103 8.98612C75.2562 8.9461 75.1912 8.92397 75.1241 8.92278C75.0613 8.91284 74.766 8.90788 74.2385 8.90788H73.6082C73.6024 9.01963 73.599 9.45917 73.599 10.2302V12.9302C73.586 13.4221 73.6064 13.9144 73.6601 14.4035C73.6654 14.446 73.6837 14.4858 73.7126 14.5172C73.7415 14.5487 73.7794 14.5701 73.821 14.5785C74.0032 14.6051 74.1866 14.6213 74.3706 14.6273L74.4184 14.6742V14.9923L74.3706 15.0413C74.0606 15.0215 73.5766 15.0115 72.921 15.0115C72.2493 15.0115 71.765 15.0211 71.4709 15.0413L71.4266 14.9966V14.6734L71.4756 14.6265C71.6596 14.6207 71.843 14.6045 72.0252 14.5778C72.0667 14.5691 72.1045 14.5476 72.1333 14.5162C72.1622 14.4848 72.1806 14.4452 72.1861 14.4027C72.2398 13.9136 72.2602 13.4214 72.2472 12.9294V10.2301C72.2472 9.44651 72.242 9.00652 72.2324 8.90774H71.559C70.9981 8.90774 70.67 8.92556 70.5748 8.96122C70.5337 8.97252 70.4974 8.99707 70.4714 9.03111C70.4308 9.12791 70.4068 9.231 70.4006 9.33595C70.3781 9.50297 70.3643 9.67656 70.3573 9.85371L70.3113 9.90243H70.0131L69.9617 9.85371L69.9526 9.04079C69.9491 8.80396 69.9304 8.5676 69.8966 8.3332L69.9393 8.28433C70.1238 8.31652 70.7996 8.3332 71.9632 8.3332H73.8712C74.9454 8.3332 75.6206 8.31691 75.8969 8.28433L75.9434 8.3332ZM69.5298 14.9777L69.482 15.0261L68.5225 15.0112C68.3646 15.0079 68.0906 15.0129 67.6974 15.0261C67.5258 14.7792 67.3718 14.5203 67.2367 14.2513L66.2558 12.4214L65.885 12.9577C65.4139 13.6394 64.9777 14.3289 64.5761 15.0264C64.4314 15.0165 64.2869 15.0115 64.1426 15.0115C63.8498 15.0115 63.6369 15.0163 63.5032 15.0264L63.4541 14.9777V14.674L63.5032 14.6222C63.6619 14.622 63.8194 14.5946 63.969 14.5411C64.0618 14.4809 64.275 14.2224 64.6085 13.7656L65.2255 12.9251C65.2503 12.8928 65.5015 12.5505 65.979 11.8982L65.6209 11.2607L65.0453 10.2581C64.6387 9.54877 64.328 9.12894 64.113 8.99862C64.0455 8.95556 63.9674 8.93258 63.8875 8.93232C63.8252 8.93232 63.7272 8.93708 63.5953 8.94721L63.5341 8.8988L63.4978 8.64714L63.5393 8.57577C63.981 8.48488 64.5512 8.35674 65.2478 8.19597C65.499 8.38369 65.7077 8.62329 65.8601 8.8988C65.961 9.06418 66.119 9.34667 66.3307 9.74569L66.864 10.744L67.4763 9.8403C67.982 9.09403 68.3102 8.5856 68.4611 8.31502C68.5897 8.32769 68.7171 8.33454 68.8422 8.33454C69.0521 8.33454 69.2666 8.32769 69.4817 8.31502L69.5295 8.36196V8.67678L69.4817 8.72372C69.3344 8.71389 69.1869 8.73825 69.0504 8.79494C68.896 8.92807 68.7579 9.07944 68.6393 9.24581C68.4358 9.50218 68.1673 9.85863 67.8338 10.3152C67.6492 10.5697 67.4234 10.8851 67.1562 11.2611C67.3131 11.5532 67.5376 11.9637 67.8298 12.4926L68.4323 13.539C68.7651 14.1151 68.9744 14.4407 69.0603 14.5157C69.1836 14.6013 69.3326 14.641 69.4817 14.6279L69.5295 14.6748V14.9784L69.5298 14.9777Z" fill="#353E81"/>
</g>
<defs>
<clipPath id="clip0_2235_10101">
<rect width="177" height="56" fill="white"/>
</clipPath>
</defs>
</svg>
