<svg xmlns="http://www.w3.org/2000/svg" width="1199.097" height="375.848" viewBox="0 0 1199.097 375.848">
  <g id="Слой_x0020_1" transform="translate(-0.01 0)">
    <g id="_2488930778256" transform="translate(0.01 0)">
      <path id="Контур_1021" data-name="Контур 1021" d="M184.427,295.231l.191-.5.5,1.327.571,1.515c3.6,9.477,6.379,16.553,14.152,24.2a45.618,45.618,0,0,0,6.318,5.243,52.037,52.037,0,0,0,6,3.6,122.473,122.473,0,0,0-4.234-12.321,125.163,125.163,0,0,0-5.938-12.949,145.836,145.836,0,0,0-8.15-13.459,150.779,150.779,0,0,0-9.223-11.94l-.191-.188-.252.188c-3.284,3.855-6.381,7.834-9.225,11.94a146.051,146.051,0,0,0-8.148,13.459,125.615,125.615,0,0,0-5.941,12.949,123.57,123.57,0,0,0-4.232,12.321,52.125,52.125,0,0,0,6-3.6,45.8,45.8,0,0,0,6.318-5.243c7.834-7.645,10.55-14.721,14.152-24.2l.571-1.515.5-1.327.252.5Zm0,66.843-.252-.252a65.013,65.013,0,0,0-4.863-7.394,70.659,70.659,0,0,0-6.446-7.39,66.956,66.956,0,0,0-6.823-5.938,69.156,69.156,0,0,0-6.7-4.549,56.329,56.329,0,0,0,7.076-4.171,58.205,58.205,0,0,0,7.137-5.938,51.939,51.939,0,0,0,6.194-7.2,52.511,52.511,0,0,0,4.421-7.2l.252-.316.191.316a52.413,52.413,0,0,0,4.421,7.2,51.86,51.86,0,0,0,6.194,7.2,58.109,58.109,0,0,0,7.137,5.938,56.457,56.457,0,0,0,7.076,4.171,69.338,69.338,0,0,0-6.7,4.549,66.949,66.949,0,0,0-6.823,5.938,70.661,70.661,0,0,0-6.446,7.39,65.019,65.019,0,0,0-4.863,7.394l-.191.252Zm86.555-45.742-29.189,1.643-7.9,7.013c-.065.126-.189.19-.254.316l-4.927,4.3a3.289,3.289,0,0,1-4.359-4.926l.315-.253-.062-.063,14.467-12.952,13.394-.7c7.139,1.894,13.331,4.044,18.512,5.623ZM146.205,326.947v.063a3.36,3.36,0,0,1-4.676.252l-4.863-4.3-.063-.126-5.814-5.117L96.3,315.953a156.311,156.311,0,0,1,17.941-5.748l19.27,1.01,9.1,8.15,3.35,2.969A3.288,3.288,0,0,1,146.205,326.947Zm60.652-151.123v-.061a3.309,3.309,0,0,1-2.718-3.792l1.137-6.823c-3.539-1.833-7.012-3.916-8.278-8.971h-1.451a3.207,3.207,0,0,1-3.284-3.221,3.314,3.314,0,0,1,3.284-3.349h1.075c1.958-7.076,5.053-7.328,10.93-10.11.316-7.9.948-28.745-.948-35.568-3.918-.822-29-.694-33.673-.19-1.264,3.1-1.644,4.233-4.171,6.509-2.527,2.463-3.979,2.779-6.887,3.725-.442,12.448.062,22.555.758,34.56a1.357,1.357,0,0,1,.064.5l.062.507h.948a3.316,3.316,0,0,1,3.349,3.284,3.36,3.36,0,0,1-3.286,3.349H163.2a3.256,3.256,0,0,1-3.1,2.842,3.347,3.347,0,0,1-3.476-2.717l-41.633.19a66.467,66.467,0,0,0,7.266,13.331c2.59,3.537-2.339,6.7-4.991,2.97-13.9-20.029-18.447-44.542-11.877-68.171.187-.632.378-1.264.568-1.894.505-1.452,1.012-2.969,1.517-4.423,2.969-8.214,4.8-10.8,7.769-16.742,3.16-3.981,7.077-.38,5.559,3.16-.5.5-5.115,10.864-5.811,12.318l31.21.127c.695-1.579,1.516-4.423,4.3-6.823,2.97-2.591,4.8-2.908,8.024-3.665.884-2.148,1.643-6.948,2.336-9.541a93.333,93.333,0,0,1,6.13-17.248c1.327-2.779,3.349-5.369,4.3-7.581-9.1.128-21.1,6.572-28.808,11.5-5.686,3.6-9.476-1.959-3.1-6A84.681,84.681,0,0,1,195.3,45.11a83.77,83.77,0,0,1,30.387,10.172c1.9,1.075,4.676,3.349,6.193,3.982,1.768.819,4.17-1.454,7.013-1.833A13.514,13.514,0,0,1,252.281,64c4.361,7.645-.252,12.825-.252,14.974l5.056,8.72c4.107,9.223,8.592,19.394,9.1,32.661.7,17.817-4.739,39.424-14.91,51.492-3.918,4.673-6.952-.255-5.055-2.781,2.463-3.348,5.5-6.886,7.643-12.7H222.84c-.061,0-2.526,8.214-10.929,9.351l-1.264,7.392a3.3,3.3,0,0,1-3.789,2.716Zm-50.924-25.965c.063,0,.126-.062.19-.062v-.76a354.954,354.954,0,0,1-.632-35.82c-4.928-1.39-7.58-4.991-9.287-9.6l-33.675.187c-4.674,9.034-4.863,36.832,0,46.057h43.4Zm172.793,33.989-10.3,13.268c-.126.191-.252.379-.378.568l-2.339,2.844v.062l-1.833,2.275a3.392,3.392,0,0,1-4.739.505,3.342,3.342,0,0,1-.506-4.739l4.172-5.18a.885.885,0,0,1,.187-.254l7.265-9.351-7.265-9.352a.793.793,0,0,1-.187-.252l-4.172-5.18a3.341,3.341,0,0,1,.506-4.739,3.451,3.451,0,0,1,4.739.506l1.833,2.275v.063l2.339,2.843c.126.187.252.378.378.568l10.3,13.267Zm-289.734,0,10.359,13.268a2.52,2.52,0,0,0,.316.568l2.338,2.844.062.062,1.77,2.275a3.4,3.4,0,0,0,4.738.505,3.34,3.34,0,0,0,.506-4.739l-4.107-5.18c-.126-.126-.188-.189-.252-.254l-7.266-9.351,7.266-9.352c.063-.06.126-.124.252-.252l4.107-5.18a3.34,3.34,0,0,0-.506-4.739,3.457,3.457,0,0,0-4.738.506l-1.77,2.275-.062.063-2.338,2.843a2.542,2.542,0,0,0-.316.568L38.993,183.849ZM186.068,2.021,239.583,49.91l74.3,3.918,4.107,74.739,49.722,55.281L317.8,239.57l-3.917,74.235-27.1,1.515a9.026,9.026,0,0,0,.886-1.263A10.414,10.414,0,0,0,289.049,309V308.5l18.448-1.011,3.729-70.57,47.508-53.07-47.32-52.563L307.562,60.21,236.929,56.48l-.884-.821L183.86,8.97,131.295,56.229,60.219,60.146l-3.725,70.633L8.983,183.847,56.3,236.41l3.916,71.077,17.817.948v.505a10.118,10.118,0,0,0,2.148,6.255l-26.345-1.327-4.107-74.741L.01,183.848l49.973-55.724,3.855-74.295,74.74-4.107L183.86,0l2.209,2.022ZM289.3,236.665c.316-.508.632-.948.947-1.454.506-.694.948-1.451,1.454-2.211l.757-1.138c.127-.252.252-.5.379-.756a69.274,69.274,0,0,0,6.254-14.785,66.732,66.732,0,0,0,2.717-20.722l-.506-13.267-5.623,11.814A42.327,42.327,0,0,1,276.92,212.4a73.914,73.914,0,0,1-12.637,4.929c-.125.062-.316.062-.442.126l-1.264.38-.316.124a.911.911,0,0,0-.442.128l-4.17,1.327a3.277,3.277,0,1,0,1.959,6.253l6.192-1.894c.125-.062.189-.062.316-.128a97.948,97.948,0,0,0,10.487-3.727,50.858,50.858,0,0,0,17.88-12.637,59.334,59.334,0,0,1-2.526,9.984,61.881,61.881,0,0,1-5.054,10.993v.063c-.064,0-.252.252-.381.568l-3.158,4.739a3.3,3.3,0,0,0,5.495,3.664l.444-.63Zm-210.509,0,.443.63a3.3,3.3,0,0,0,5.5-3.664l-3.158-4.739c-.188-.316-.316-.568-.379-.568l-.063-.063a61.638,61.638,0,0,1-4.991-10.993,59.205,59.205,0,0,1-2.526-9.984,50.316,50.316,0,0,0,17.878,12.637,93.287,93.287,0,0,0,10.489,3.727c.063.065.189.065.254.128l6.253,1.894a3.216,3.216,0,0,0,4.107-2.147,3.263,3.263,0,0,0-2.147-4.107l-4.171-1.327a1.172,1.172,0,0,0-.5-.128l-.252-.124-1.262-.38a4.252,4.252,0,0,1-.444-.126,74.614,74.614,0,0,1-12.7-4.929,42.531,42.531,0,0,1-18.7-18.258l-5.623-11.814L66.286,195.6a68.675,68.675,0,0,0,2.652,20.722,69.432,69.432,0,0,0,6.318,14.785,2.106,2.106,0,0,0,.38.756L76.395,233c.441.759.947,1.516,1.388,2.211.316.506.694.947,1.013,1.454Zm108.1,14.152v11.75a3.588,3.588,0,0,1-3.411,3.1,3.888,3.888,0,0,1-3.349-3.221v-3.853l.062-.128v-7.643c-3.851-4.548-24.005-24.641-70.758-14.846l-.126,46.876c9.161-1.2,32.663-3.349,50.1,1.9.128,0,.316.061.443.061l.632.253a14.078,14.078,0,0,1,1.515.506h.064c-1.264,1.958-2.465,3.916-3.6,5.938l-.7-.252c-.062,0-.19-.065-.252-.065-20.534-6.19-50.923-1.2-51.049-1.2a1.241,1.241,0,0,1-.505.062,3.37,3.37,0,0,1-3.349-3.347l.064-41.51-10.994.063L91.559,303.5A137.95,137.95,0,0,1,153.978,293.4h.506l2.717.254c-.821,1.452-1.706,3.031-2.464,4.547-.379.632-.7,1.264-1.012,1.894-36.9-2.589-62.8,11.058-63.936,11.626a2.716,2.716,0,0,1-1.579.443,3.385,3.385,0,0,1-3.411-3.349l.127-66.9a3.371,3.371,0,0,1,3.348-3.349l14.468-.062v-5.118a3.339,3.339,0,0,1,2.59-3.411c47.133-10.741,70.7,7.076,78.214,14.593,7.518-7.518,31.084-25.334,78.215-14.593a3.336,3.336,0,0,1,2.589,3.411V238.5l14.407.062a3.332,3.332,0,0,1,3.349,3.349l.124,66.9a3.329,3.329,0,0,1-3.349,3.349,3.067,3.067,0,0,1-1.643-.443c-1.075-.569-25.65-14.341-62.608-11.689h-.252c-.317-.632-.632-1.2-.948-1.832-.822-1.579-1.644-3.1-2.529-4.611l3.1-.316h.506a131.365,131.365,0,0,1,61.03,10.234l-.126-58.249-10.992-.063.062,41.51a3.37,3.37,0,0,1-3.349,3.347,1.251,1.251,0,0,1-.506-.062c-.124,0-29.062-5.435-49.657.756-.064,0-.189.064-.252.064l-1.136.444c-1.2-2.022-2.4-3.981-3.665-5.941l.568-.187a14.317,14.317,0,0,1,1.516-.507l.694-.252c.126,0,.252-.063.378-.063,17.438-5.243,39.488-2.653,48.712-1.452l-.128-46.876c-46.753-9.8-66.9,10.3-70.759,14.846Zm-18.385-24.7c13.457,5.371,17.374,5.181,30.894-.315,2.654-1.013,5.371-2.15,8.213-3.474a140.955,140.955,0,0,0,18.007-10.3h.062a54.05,54.05,0,0,0,25.778-.567,73.328,73.328,0,0,0,31.967-18.7c11.5-11.308,19.965-26.029,23.44-40.243,3.41-13.775,2.211-27.23-5.117-37.086l-8.212-11.057,2.526,13.519c1.2,6.446,1.01,11.247-.189,15.29-.252.884-.568,1.706-.884,2.528-.694-12.888-3.033-24.893-7.013-34.369-4.866-11.5-12.13-19.332-21.795-20.721l-5.75-.76,2.4,5.243c10.992,24.452,11.119,46.12,5.116,64.7-7.709,23.882-25.588,42.644-43.467,55.281a38.675,38.675,0,0,1-16.425-10.108c-5.686-5.749-10.171-13.711-12.823-23.945l-.128-.443-.252-.38a11.594,11.594,0,0,1-1.39-4.991c-.569-3.978-1.075-7.7-6.7-10.992a10.447,10.447,0,0,0-5.622-1.2,14.005,14.005,0,0,0-5.812,1.833,12.739,12.739,0,0,0-4.929,5.811,10.268,10.268,0,0,0-6.7,2.15c-3.033,2.274-5.243,5.937-6.7,9.665l-3.1,7.645,7.39-3.6a13.819,13.819,0,0,1,7.456-.38,4.293,4.293,0,0,1,2.4,1.138,2.526,2.526,0,0,1,.506,2.022c-.252,2.654-2.465,6.823-7.834,13.016a60.58,60.58,0,0,1-21.86,12.321,131.364,131.364,0,0,1-26.22-24.641c-14.089-17.626-23.44-40.181-19.775-66.841A101.29,101.29,0,0,1,104.258,85.1l2.336-5.243-5.685.76c-9.73,1.389-17,9.223-21.8,20.721-3.979,9.476-6.318,21.481-7.011,34.369-.316-.822-.633-1.644-.886-2.528-1.2-4.043-1.389-8.844-.188-15.29l2.463-13.519-8.15,11.057c-9.981,13.392-8.591,33.357.128,51.743A90.331,90.331,0,0,0,84.1,193.2c7.835,7.52,17.059,13.584,27.1,16.87a53.434,53.434,0,0,0,29.631,1.452,133.451,133.451,0,0,0,20.725,11.751c2.4,1.074,4.736,2.022,6.947,2.843Zm23.186,52.059c2.591,3.159,5.055,6.38,7.394,9.73a140.238,140.238,0,0,1,15.984,30.642,128.914,128.914,0,0,1,5.116,16.993l.507,2.149.124.442-.378.19-2.02.884a63.689,63.689,0,0,0-9.478,5.5,59.588,59.588,0,0,0-8.4,7.01c-6.761,6.7-10.11,13.08-14.216,20.911l-1.264,2.34-.441.885-.191-.38-.252.38-.443-.885-1.264-2.34c-4.106-7.833-7.39-14.214-14.214-20.911a59.536,59.536,0,0,0-8.4-7.01,63.716,63.716,0,0,0-9.477-5.5l-1.958-.884-.443-.19.126-.442.507-2.149a138.371,138.371,0,0,1,5.116-16.993A140.237,140.237,0,0,1,169.709,287.9a138.478,138.478,0,0,1,10.047-12.762c1.324-1.265,2.526-1.58,4.611-1.517,2.526.128,2.97.443,3.854,1.075a18.29,18.29,0,0,1,3.473,3.474Zm13.205-61.6a143.218,143.218,0,0,0,13.014-7.137,46.19,46.19,0,0,1-14.4-9.983c-6.381-6.443-11.373-15.227-14.343-26.345a18.552,18.552,0,0,1-2.021-7.013c-.316-2.4-.7-4.674-3.539-6.316a3.618,3.618,0,0,0-2.02-.38,6.341,6.341,0,0,0-2.843.82,7.253,7.253,0,0,0-2.969,4.486,2.954,2.954,0,0,1-1.961,2.526l-1.136.507-1.2-.38a4.033,4.033,0,0,0-3.978.568,9.346,9.346,0,0,0-1.58,1.58,15.615,15.615,0,0,1,4.232.378,10.917,10.917,0,0,1,5.624,3.033,8.484,8.484,0,0,1,2.211,6.95c-.38,3.916-3.035,9.414-9.54,16.808l-.128.188-.189.126a68.859,68.859,0,0,1-19.52,12.066,128.021,128.021,0,0,0,15.6,8.4c17.5,7.9,23.565,7.2,40.687-.886Zm69.117-64.883C266.5,175,250.134,193.578,232.949,206.719a46.843,46.843,0,0,0,16.87-1.451,65.914,65.914,0,0,0,29.124-17.059c10.678-10.488,18.511-24.07,21.733-37.213a48.874,48.874,0,0,0,1.454-16.614l-.189.632c-1.454,4.991-4.107,9.1-7.456,13.328l-5.812,7.2.126-9.288c.252-15.858-2.022-31.21-6.7-42.456-2.781-6.506-6.318-11.625-10.615-14.467,8.844,23.311,8.4,44.223,2.526,62.356ZM113.227,204.064a47.848,47.848,0,0,0,20.343,2.275,136.015,136.015,0,0,1-22.807-22.365c-15.037-18.827-25.02-43.023-21.1-71.645a103.837,103.837,0,0,1,5.941-23c-4.3,2.841-7.836,7.961-10.615,14.467-4.739,11.246-7.013,26.6-6.7,42.456l.126,9.288-5.813-7.2a38.943,38.943,0,0,1-7.518-13.328l-.188-.632c-.884,9.287,1.516,19.9,6.316,30.072a83.974,83.974,0,0,0,17.311,24.134,66.284,66.284,0,0,0,24.7,15.478Zm99.379-106.9h41c-.884-3.1-6.19-14.09-8.273-13.647-5.306,1.137-9.983,1.012-14.47-3.474-4.106-4.611-3.853-9.73-2.526-15.289-6.253-4.991-20.029-11.437-30.011-12.509.948,2.779,3.665,6.506,5.119,9.792,6.634,15.037,5.621,22.174,9.16,35.127ZM239.142,64c-9.477,2.211-5.623,16.238,3.664,13.521C250.7,75.244,248.176,61.788,239.142,64ZM165.224,87.754a15.458,15.458,0,0,1,4.738,4.043,12.313,12.313,0,0,1,2.971,5.306l32.852.063c0-9.918-7.518-38.1-16.8-44.729-12.321-8.782-22.618,23.754-23.756,35.316Zm-7.962,6.13c-8.781,3.093-4.042,15.92,4.612,13.2C170.529,104.307,166.487,90.6,157.262,93.883Zm56.862,46.245c4.168,3.222,7.074,3.475,8.465,9.73H256.7c4.8-15.1,5.055-35.634.126-46.057l-43.592-.187c.378,6.063.886,11.687,1.011,17.814.128,6.065-.5,12.952-.124,18.7Zm2.021,15.479c3.537-8.782-9.667-13.205-12.952-5.56C199.274,159.209,212.669,164.39,216.145,155.608Z" transform="translate(-0.01 0)" fill="#e2cdaf" fill-rule="evenodd"/>
      <path id="Контур_1022" data-name="Контур 1022" d="M3987.582,583.358l-.293.328c-2.117-.132-5.41-.2-9.852-.2q-6.633,0-9.828.2l-.293-.328v-2.135l.332-.315a33.279,33.279,0,0,0,3.723-.327,1.382,1.382,0,0,0,1.094-1.176,73.781,73.781,0,0,0,.41-9.887V552.639a73.635,73.635,0,0,0-.41-9.888,1.4,1.4,0,0,0-1.094-1.187c-.312-.077-1.559-.187-3.723-.317l-.332-.316v-2.166l.332-.293c2.035.13,5.316.2,9.824.2,4.48,0,7.75-.066,9.789-.2l.324.293v2.166l-.324.316c-2.168.132-3.41.24-3.727.317a1.391,1.391,0,0,0-1.09,1.187,72.036,72.036,0,0,0-.414,9.888v16.879a72.178,72.178,0,0,0,.414,9.887,1.369,1.369,0,0,0,1.09,1.176,33.813,33.813,0,0,0,3.727.327l.324.315v2.135ZM4720.457,693.01l8.641.283c5.664.188,9.4.284,11.145.284q2.326,0,19.848-.567l.543.5v3.445l-.543.5c-3.184.1-5.641.237-7.367.4a9.109,9.109,0,0,0-3.773,1.038c-.781.521-1.3,1.7-1.559,3.567a60.644,60.644,0,0,0-.375,7.789l-.141,15.907v32.006l.07,13.477a90.159,90.159,0,0,0,.422,10.1,6.051,6.051,0,0,0,.992,3.045,4.979,4.979,0,0,0,2.523,1.275,54.49,54.49,0,0,0,9.207.8l.539.4v3.47l-.539.543c-.234,0-4.3-.118-12.18-.4-3.281-.1-5.832-.142-7.668-.142q-2.162,0-19.785.543l-.566-.543v-3.47l.566-.4a76.878,76.878,0,0,0,8.574-.685,6.232,6.232,0,0,0,2.871-1.087,5.522,5.522,0,0,0,1.184-2.784,64.376,64.376,0,0,0,.5-9.56l.07-14.586V726.147l-.121-13.5a99.151,99.151,0,0,0-.406-10.148,5.88,5.88,0,0,0-.961-3.045,4.956,4.956,0,0,0-2.5-1.253,59.943,59.943,0,0,0-9.207-.753l-.566-.5v-3.445Zm-8.566,60.021v2.08l-.285.825-3.395,2.005a4.2,4.2,0,0,0-1.437,1.181,24.083,24.083,0,0,0-.523,4.106c-.215,2.48-.3,5.476-.3,9.04a119.679,119.679,0,0,0,.75,13.052l-.422.708a107.918,107.918,0,0,1-38.922,7.247,64.479,64.479,0,0,1-27.734-5.807,45.985,45.985,0,0,1-19.637-17.2q-7.26-11.4-7.25-27.122,0-23.9,16.34-38.023,16.348-14.09,42.715-14.113c12.891,0,24.5,2.194,34.77,6.585l.492.753q-1.266,4.639-2.9,19.425l-.566.5h-3.187l-.535-.568-.359-7.318a22.408,22.408,0,0,0-.449-4.225,4.79,4.79,0,0,0-1.484-1.628,34.852,34.852,0,0,0-6.4-3.186,51.483,51.483,0,0,0-10.34-3.162,56.772,56.772,0,0,0-11.113-1.016,46.4,46.4,0,0,0-22.422,5.263,33.866,33.866,0,0,0-14.68,15.318,49.885,49.885,0,0,0-4.957,22.353,53.671,53.671,0,0,0,5.332,23.7,40.433,40.433,0,0,0,15.266,17.112,43.265,43.265,0,0,0,23.184,6.159,60.968,60.968,0,0,0,11.707-1.157,34.558,34.558,0,0,0,9.863-3.208,41.19,41.19,0,0,0,.613-8.922v-7.67c0-3.635-.211-5.9-.684-6.821-.469-.9-1.6-1.537-3.426-1.889a78.725,78.725,0,0,0-11.8-.684l-.617-.637v-3.046l.617-.613,4.223.143c7.246.236,13.145.332,17.7.332,2.617,0,6.492-.118,11.543-.4l.707.542ZM4564.684,693.01l8.641.283c5.66.188,9.391.284,11.133.284q2.338,0,19.852-.567l.543.5v3.445l-.543.5c-3.187.1-5.641.237-7.363.4a9.109,9.109,0,0,0-3.773,1.038c-.781.521-1.3,1.7-1.559,3.567a60.383,60.383,0,0,0-.383,7.789l-.141,15.907v32.006l.074,13.477a91.834,91.834,0,0,0,.426,10.1,6.057,6.057,0,0,0,.988,3.045,5.012,5.012,0,0,0,2.527,1.275,54.326,54.326,0,0,0,9.2.8l.543.4v3.47l-.543.543c-.238,0-4.3-.118-12.18-.4-3.281-.1-5.824-.142-7.672-.142q-2.162,0-19.773.543l-.574-.543v-3.47l.574-.4a76.863,76.863,0,0,0,8.566-.685,6.251,6.251,0,0,0,2.875-1.087,5.522,5.522,0,0,0,1.184-2.784,63.654,63.654,0,0,0,.492-9.56l.074-14.586V726.147l-.113-13.5c-.051-5.24-.2-8.637-.406-10.148a5.911,5.911,0,0,0-.965-3.045,4.906,4.906,0,0,0-2.5-1.253,60,60,0,0,0-9.207-.753l-.566-.5v-3.445Zm-88.043.5.57-.5c11.422.379,18.031.567,19.777.567q2.338,0,19.848-.567l.543.5v3.445l-.543.5c-3.184.1-5.641.237-7.363.4a9.147,9.147,0,0,0-3.773,1.038c-.785.521-1.3,1.7-1.562,3.567a61.506,61.506,0,0,0-.371,7.789l-.145,15.907v30.565q0,11.47.145,16.026l.355,11.966h14.09q16.887,0,21.055-.4a29.807,29.807,0,0,0,8.066-2.005,59.429,59.429,0,0,0,2.172-7.955c.945-4.153,1.441-6.56,1.492-7.2l.609-.542h3.4l.473.542a106.792,106.792,0,0,0-1.133,10.714c-.4,5.312-.59,9.584-.59,12.863l-.543.543q-13.137-.39-34.512-.4l-20.2-.143q-6.9,0-14.09.543l-.566-.543v-2.288l.566-.684a32.712,32.712,0,0,0,4.7-2.691c.262-.33.57-3.3.852-8.923.309-5.617.449-12.414.449-20.321V726.147l-.121-13.5a100.82,100.82,0,0,0-.4-10.148,5.838,5.838,0,0,0-.965-3.045,4.9,4.9,0,0,0-2.523-1.253,59.289,59.289,0,0,0-9.184-.753l-.57-.5Zm-5.871-.5.633.638q-.633,6.2-.633,21.714l-.543.543h-3.258l-.547-.614-.777-6.371c-.355-3.4-.664-5.5-.848-6.256a2.926,2.926,0,0,0-1.016-1.652c-.449-.354-1.957-.638-4.484-.875-2.551-.235-5.379-.354-8.5-.354h-13.078q-.562,15.65-.559,18.058v40.314l.141,13.477c.043,5.216.16,8.591.375,10.149a6.134,6.134,0,0,0,.969,3.021,5.294,5.294,0,0,0,2.531,1.251c1.242.354,4.34.613,9.273.8l.469.4v3.469l-.469.543q-17.707-.531-19.781-.543-2.232,0-19.711.543l-.543-.543v-3.469l.543-.4a76.584,76.584,0,0,0,8.617-.685,6.3,6.3,0,0,0,2.832-1.087,5.777,5.777,0,0,0,1.207-2.784,55.429,55.429,0,0,0,.492-9.56l.141-14.586V717.841q0-1.1-.566-18.058h-10.312q-6.328,0-10.977.283c-3.09.189-4.883.663-5.355,1.417-.5.754-.949,3.233-1.367,7.436l-.684,6.371-.617.613h-3.187l-.543-.543q-.141-16.674-.637-21.714l.637-.638q12.035.568,40.031.567,28.57,0,40.1-.567Zm-196.59,98.212-.613-.639V787.4l.613-.543a47.22,47.22,0,0,0,6.75-.5,5.146,5.146,0,0,0,3.258-1.37,6.687,6.687,0,0,0,.969-3.113c.164-1.441.3-4.65.473-9.679s.258-8.615.258-10.786V705.543a8.719,8.719,0,0,0-1.3-5.24,5.555,5.555,0,0,0-3.488-2.123,45.5,45.5,0,0,0-7.531-.52l-.543-.566V693.86l.543-.636c6.371.236,10.523.354,12.512.354q7.014,0,11.492-.354l22.047,28.629,32.426,40.668q5.883,7.4,11.965,14.021V723.034c0-1.675-.066-5.192-.234-10.621-.168-5.4-.352-8.851-.59-10.29a5.054,5.054,0,0,0-1.2-2.951,6.829,6.829,0,0,0-3.258-1.133,47.909,47.909,0,0,0-6.465-.447l-.543-.567v-3.163l.543-.636q5.59.354,15.98.353c6.3,0,10.906-.117,13.758-.353l.613.636v3.163l-.539.567a45.328,45.328,0,0,0-7.059.518c-1.656.285-2.691.78-3.117,1.487a7.609,7.609,0,0,0-.871,3.045c-.145,1.322-.309,4.509-.477,9.536s-.234,8.638-.234,10.856v32.833l.07,19.022c.074,6.231.164,12.463.258,18.742a110.731,110.731,0,0,0-11.969-2.9l-4.906-5.807-14.727-17.985-46.875-58.558v53.034c0,2.125.1,5.9.238,11.329a89.318,89.318,0,0,0,.586,9.89,5.785,5.785,0,0,0,.9,2.382,5.281,5.281,0,0,0,2.383,1.229,35.162,35.162,0,0,0,7.574.613l.566.543v3.256l-.566.567a94.781,94.781,0,0,0-11.605-.5q-10.312,0-18.059.5Zm-86.008-97.716.543-.5q23.719.425,30.352.425,22.693,0,40.383-.425l.359.5q-1.746,6.619-2.555,20.817l-.426.544h-3.391l-.617-.544a9.568,9.568,0,0,0,.074-1.109A68.493,68.493,0,0,0,4252,702c-2.906-1.3-6.918-2.124-12.062-2.526-5.145-.375-9.016-.59-11.59-.59-3.633,0-8.309.261-13.973.779l-.258,11.047-.211,12.65-.215,14.044q7.471.425,13.762.425c4.25,0,7.789-.142,10.641-.425a18.322,18.322,0,0,0,5.031-.851,2.942,2.942,0,0,0,1.082-1.746,24.948,24.948,0,0,0,.66-4.532l.285-4.273.547-.564h3.184l.566.564q-.141,7.542-.355,15.131l.355,15.579-.566.543H4245.7l-.547-.543-.492-4.155a53.385,53.385,0,0,0-.9-5.782,3.011,3.011,0,0,0-1.277-1.63c-.66-.449-2.383-.825-5.141-1.109-2.766-.259-6.562-.4-11.4-.4q-4.037,0-12.254.354-.352,5.808-.352,19.355,0,14.515.352,21.358h12.723c11.211,0,18.2-.14,21.027-.4a28.744,28.744,0,0,0,8.023-2c.4-1.063,1.09-3.518,2.035-7.364.941-3.872,1.488-6.28,1.625-7.246l.688-.473h3.324l.547.473a96.4,96.4,0,0,0-1.211,10.384c-.4,4.934-.586,9.157-.586,12.652l-.5.543q-13.2-.39-34.555-.4l-18.809-.142c-4.387,0-8.941.189-13.691.543l-.566-.543v-2.289l.566-.684a34.738,34.738,0,0,0,4.648-2.6q.609-.494.969-12.108.393-11.577.379-17.655V730.019l-.047-15.7c0-3.421-.051-6.208-.141-8.332a25.4,25.4,0,0,0-.5-4.6,5.548,5.548,0,0,0-.781-1.935,3.478,3.478,0,0,0-1.457-.945,16.074,16.074,0,0,0-3.426-.662l-5.266-.4-.543-.5Zm-9.539,59.525v2.08l-.281.825-3.4,2.005a4.314,4.314,0,0,0-1.441,1.181,24.562,24.562,0,0,0-.516,4.106c-.219,2.48-.309,5.476-.309,9.04a119.737,119.737,0,0,0,.754,13.052l-.422.708a107.893,107.893,0,0,1-38.926,7.247,64.5,64.5,0,0,1-27.73-5.807,46.03,46.03,0,0,1-19.637-17.2q-7.26-11.4-7.242-27.122,0-23.9,16.332-38.023,16.348-14.09,42.719-14.113c12.887,0,24.5,2.194,34.766,6.585l.5.753q-1.277,4.639-2.906,19.425l-.566.5h-3.184l-.543-.568-.355-7.318a22.61,22.61,0,0,0-.453-4.225,4.79,4.79,0,0,0-1.484-1.628,34.994,34.994,0,0,0-6.4-3.186,51.372,51.372,0,0,0-10.336-3.162,56.87,56.87,0,0,0-11.117-1.016,46.418,46.418,0,0,0-22.422,5.263,33.866,33.866,0,0,0-14.68,15.318A49.833,49.833,0,0,0,4094.4,740.1a53.671,53.671,0,0,0,5.332,23.7A40.451,40.451,0,0,0,4115,780.905a43.213,43.213,0,0,0,23.18,6.159,60.9,60.9,0,0,0,11.7-1.157,34.587,34.587,0,0,0,9.867-3.208,41.539,41.539,0,0,0,.609-8.922v-7.67c0-3.635-.211-5.9-.684-6.821-.469-.9-1.609-1.537-3.426-1.889a78.725,78.725,0,0,0-11.8-.684l-.617-.637v-3.046l.617-.613,4.223.143c7.25.236,13.148.332,17.7.332,2.617,0,6.5-.118,11.543-.4l.707.542Zm-210.7,38.238-.617-.543v-3.587l.617-.567a29.329,29.329,0,0,0,6.5-.519,5.469,5.469,0,0,0,2.594-1.794c.75-.9,2.289-3.847,4.605-8.8l7.258-15.769,18.82-42.6q5.3-12.532,10.574-25.042h4.484l29.527,69.439,3.938,9.253c1.156,2.644,2.484,5.5,3.992,8.591a26.488,26.488,0,0,0,3.09,5.452,5.9,5.9,0,0,0,2.148,1.275,22.75,22.75,0,0,0,5.711.519l.543.567v3.587l-.543.543c-4.883-.4-9.3-.614-13.219-.614q-11.467.354-22.941.614l-.566-.543v-3.587l.566-.567c5.172-.094,8.379-.307,9.68-.662a2.277,2.277,0,0,0,1.934-2.384,12.079,12.079,0,0,0-.969-4.013l-8.5-21.075h-40.051l-7.535,17.7c-1.34,3.187-2,5.5-2,6.987a2.673,2.673,0,0,0,1.863,2.548c1.25.567,4.391.85,9.418.9l.613.568v3.586l-.566.543c-5.945-.354-11.141-.543-15.621-.543-5.074,0-10.18.189-15.344.543Zm31.531-38.781h34.98L4017.1,710.783Zm761.164-91.453-.285.324c-2.117-.129-5.395-.195-9.812-.195q-6.6,0-9.781.195l-.289-.324v-2.125l.324-.316a33.642,33.642,0,0,0,3.707-.326,1.38,1.38,0,0,0,1.086-1.169,72.451,72.451,0,0,0,.41-9.845v-16.8a72.36,72.36,0,0,0-.41-9.845,1.41,1.41,0,0,0-1.086-1.182c-.316-.074-1.555-.185-3.707-.313l-.324-.315V616.64l.324-.292q3.035.2,9.777.2,6.7,0,9.746-.2l.324.292V618.8l-.324.315c-2.152.128-3.395.238-3.707.313a1.391,1.391,0,0,0-1.082,1.182,72.107,72.107,0,0,0-.414,9.845v16.8a72.2,72.2,0,0,0,.414,9.845,1.362,1.362,0,0,0,1.082,1.169,33.8,33.8,0,0,0,3.707.326l.324.316v2.125Zm-23.664,0-.312.324q-.229,0-1.207-.033-4.354-.163-5.434-.162-1.623,0-5.145.195a8.986,8.986,0,0,0-1.207-2.547l-7.879-13.151-3.527-5.365a9.1,9.1,0,0,0-1.871-1.941l.348-1.073c.488.019.848.032,1.082.032a10.22,10.22,0,0,0,4.891-.985,8.389,8.389,0,0,0,2.992-3.113,10.05,10.05,0,0,0,1.352-5.3q0-5.365-4-7.242a13.551,13.551,0,0,0-5.551-.886,17.368,17.368,0,0,0-3.059.249c-.207,2.07-.32,5.615-.32,10.613v16.607a71.968,71.968,0,0,0,.418,9.845,1.362,1.362,0,0,0,1.086,1.169,33.449,33.449,0,0,0,3.711.326l.32.316v2.125l-.285.324q-3.187-.194-9.789-.195-6.832,0-9.781.195l-.309-.292v-2.157l.309-.316a34.413,34.413,0,0,0,3.727-.326,1.368,1.368,0,0,0,1.07-1.169,70.891,70.891,0,0,0,.414-9.845v-16.8a70.8,70.8,0,0,0-.414-9.845,1.4,1.4,0,0,0-1.07-1.182c-.328-.074-1.566-.185-3.727-.313l-.309-.315V616.64l.309-.292c2.078.132,5.332.2,9.781.2,2.582,0,4.688-.033,6.289-.1,3.2-.128,5.6-.195,7.18-.195a24.423,24.423,0,0,1,8.063.986,7.518,7.518,0,0,1,4.637,4.51,10.746,10.746,0,0,1,.578,3.686q0,8.635-9.711,12.261c1.047,1.777,2.176,3.577,3.355,5.4l4.891,7.522q4.324,6.667,5.746,7.6a3.738,3.738,0,0,0,2.035.467l.316.326v2.028Zm-47.07,0-.281.324c-4.7-.129-7.535-.195-8.512-.195q-5.836,0-10.859.195l-.285-.324v-2l.313-.357,2.77-.151q1.74-.1,1.742-1.236a11.415,11.415,0,0,0-.891-2.991l-2.566-6.7q-4.389-.064-8.961-.066c-1.652,0-4.1.023-7.367.066l-1.4,3.871a24.543,24.543,0,0,0-1.59,5.528c0,.8.492,1.278,1.5,1.431.551.085,1.625.174,3.242.25l.313.325v2.029l-.312.323q-5.871-.192-7.559-.195c-.863,0-3.023.067-6.449.195l-.312-.292v-2.058l.34-.326q3.281-.181,4.016-1.3.75-1.1,5.617-13.236l8.277-20.74c.621-1.613,1.555-4.03,2.8-7.273h4.516l16.832,39.6c.648,1.507,1.246,2.354,1.777,2.537a9.011,9.011,0,0,0,3.016.392l.281.346v2.029Zm-20.129-17.086-6.8-16.641-6.5,16.641q2.6.1,6.766.1,4.031,0,6.531-.1Zm-31.32,6.6a70.668,70.668,0,0,0-.691,10.484l-.332.324-23.078-.195q-5.783,0-8.164.195l-.32-.324v-.89l.156-.38a10.793,10.793,0,0,0,2.543-1.875,16.209,16.209,0,0,0,.352-4.216l.09-7.124v-16.1a70.385,70.385,0,0,0-.41-9.845,1.4,1.4,0,0,0-1.074-1.182c-.328-.074-1.559-.185-3.719-.313l-.312-.315V616.64l.313-.292q3.264.2,9.594.2c4.355,0,7.676-.063,9.941-.2l.313.292v2.189l-.312.284c-2.168.129-3.4.238-3.723.313a1.4,1.4,0,0,0-1.082,1.183,72.335,72.335,0,0,0-.41,9.845v18.992q0,4.165.164,8.065h4.313q9.275,0,11.371-.726a1,1,0,0,0,.508-.358,5.642,5.642,0,0,0,.605-1.9l.762-3.948.316-.346h1.941l.34.315Zm-38.562,10.484-.281.324c-4.7-.129-7.535-.195-8.512-.195q-5.836,0-10.859.195l-.281-.324v-2l.316-.357,2.762-.151c1.16-.066,1.746-.477,1.746-1.236a11.488,11.488,0,0,0-.895-2.991l-2.566-6.7q-4.383-.064-8.961-.066-2.473,0-7.359.066l-1.4,3.871A24.2,24.2,0,0,0,4562,657c0,.8.492,1.278,1.5,1.431.555.085,1.621.174,3.242.25l.313.325v2.029l-.312.323q-5.871-.192-7.559-.195c-.863,0-3.023.067-6.449.195l-.312-.292v-2.058l.34-.326c2.184-.121,3.527-.553,4.016-1.3s2.371-5.149,5.617-13.236l8.277-20.74c.625-1.613,1.555-4.03,2.8-7.273h4.516l16.832,39.6q.979,2.261,1.777,2.537a9.011,9.011,0,0,0,3.016.392l.281.346v2.029Zm-20.129-17.086-6.8-16.641-6.5,16.641q2.6.1,6.762.1Q4577.246,644.046,4579.754,643.95Zm-32.3,2.536a15.007,15.007,0,0,1-3,9.248,15.456,15.456,0,0,1-6.82,5.237,24.26,24.26,0,0,1-9.242,1.593,30.238,30.238,0,0,1-13.082-3.047l-.379-.7a46.824,46.824,0,0,0,.891-10.386l.313-.315h2.023l.293.315v.736a38.244,38.244,0,0,0,.383,4.7,9.053,9.053,0,0,0,4.1,3.49,14.268,14.268,0,0,0,6.418,1.527c4.184,0,7.09-1.463,8.691-4.379a9.48,9.48,0,0,0,1.246-4.67,6.033,6.033,0,0,0-3.4-5.812,19.014,19.014,0,0,0-5.434-1.431q-8.473-1.3-11.141-3.274-4.037-2.974-4.031-9.236a13.169,13.169,0,0,1,4.379-10.387q4.635-4.063,12.9-4.064,7.424,0,12,2.385l.219.758a55.943,55.943,0,0,0-.914,9.084l-.352.315h-2l-.324-.315a36.793,36.793,0,0,0-.316-4.955,7.516,7.516,0,0,0-3.426-2.546,14.074,14.074,0,0,0-5.434-1.075,9.568,9.568,0,0,0-6.727,2.255,7.1,7.1,0,0,0-2.328,5.495,5.949,5.949,0,0,0,2.641,5.368q1.711,1.106,8.1,2.124c.441.067,1.684.273,3.723.641a18.527,18.527,0,0,1,3.453.91,9.6,9.6,0,0,1,4.824,3.687,12.086,12.086,0,0,1,1.758,6.731Zm-37.9,14.55-.281.324c-4.7-.129-7.535-.195-8.512-.195q-5.836,0-10.859.195l-.285-.324v-2l.316-.357,2.766-.151c1.16-.066,1.746-.477,1.746-1.236a11.677,11.677,0,0,0-.887-2.991l-2.574-6.7q-4.389-.064-8.961-.066c-1.652,0-4.1.023-7.367.066l-1.395,3.871a24.421,24.421,0,0,0-1.594,5.528c0,.8.492,1.278,1.492,1.431.555.085,1.629.174,3.246.25l.313.325v2.029l-.312.323c-3.914-.128-6.445-.195-7.559-.195-.863,0-3.023.067-6.449.195l-.312-.292v-2.058l.34-.326c2.184-.121,3.527-.553,4.016-1.3s2.371-5.149,5.617-13.236l8.277-20.74c.617-1.613,1.555-4.03,2.8-7.273h4.516l16.832,39.6c.648,1.507,1.246,2.354,1.777,2.537a9,9,0,0,0,3.016.392l.281.346v2.029ZM4489.43,643.95l-6.8-16.641-6.5,16.641q2.607.1,6.766.1C4485.578,644.046,4487.754,644.014,4489.43,643.95Zm-32.3,2.536a15.05,15.05,0,0,1-2.988,9.248,15.556,15.556,0,0,1-6.832,5.237,24.225,24.225,0,0,1-9.238,1.593,30.212,30.212,0,0,1-13.082-3.047l-.383-.7a46.63,46.63,0,0,0,.887-10.386l.32-.315h2.023l.293.315v.736a38.9,38.9,0,0,0,.379,4.7,9.023,9.023,0,0,0,4.1,3.49,14.24,14.24,0,0,0,6.414,1.527c4.188,0,7.094-1.463,8.7-4.379a9.522,9.522,0,0,0,1.246-4.67,6.039,6.039,0,0,0-3.4-5.812,19.014,19.014,0,0,0-5.434-1.431q-8.473-1.3-11.145-3.274-4.037-2.974-4.031-9.236a13.182,13.182,0,0,1,4.379-10.387q4.635-4.063,12.9-4.064,7.43,0,12,2.385l.215.758a55.984,55.984,0,0,0-.91,9.084l-.359.315H4451.2l-.332-.315a35.921,35.921,0,0,0-.309-4.955,7.559,7.559,0,0,0-3.426-2.546,14.131,14.131,0,0,0-5.434-1.075,9.574,9.574,0,0,0-6.727,2.255,7.1,7.1,0,0,0-2.324,5.495,5.952,5.952,0,0,0,2.633,5.368q1.705,1.106,8.1,2.124c.441.067,1.676.273,3.715.641a18.45,18.45,0,0,1,3.461.91,9.638,9.638,0,0,1,4.824,3.687,12.085,12.085,0,0,1,1.754,6.731Zm-39.734,0a15.025,15.025,0,0,1-2.988,9.248,15.523,15.523,0,0,1-6.828,5.237,24.26,24.26,0,0,1-9.242,1.593,30.208,30.208,0,0,1-13.078-3.047l-.383-.7a47.064,47.064,0,0,0,.891-10.386l.316-.315h2.023l.289.315v.736a38.244,38.244,0,0,0,.383,4.7,9.053,9.053,0,0,0,4.1,3.49,14.272,14.272,0,0,0,6.422,1.527q6.275,0,8.691-4.379a9.475,9.475,0,0,0,1.242-4.67,6.033,6.033,0,0,0-3.4-5.812,18.938,18.938,0,0,0-5.434-1.431c-5.641-.868-9.363-1.962-11.141-3.274q-4.037-2.974-4.031-9.236a13.182,13.182,0,0,1,4.379-10.387q4.635-4.063,12.9-4.064,7.424,0,12,2.385l.219.758a54.659,54.659,0,0,0-.914,9.084l-.359.315h-1.992l-.324-.315a35.242,35.242,0,0,0-.32-4.955,7.51,7.51,0,0,0-3.418-2.546,14.117,14.117,0,0,0-5.434-1.075,9.6,9.6,0,0,0-6.734,2.255,7.121,7.121,0,0,0-2.32,5.495,5.96,5.96,0,0,0,2.633,5.368q1.717,1.106,8.1,2.124c.445.067,1.684.273,3.719.641a18.45,18.45,0,0,1,3.461.91,9.611,9.611,0,0,1,4.82,3.687,12.087,12.087,0,0,1,1.762,6.731Zm-37.9,14.55-.277.324c-4.707-.129-7.539-.195-8.512-.195q-5.836,0-10.863.195l-.285-.324v-2l.32-.357,2.758-.151c1.16-.066,1.75-.477,1.75-1.236a11.581,11.581,0,0,0-.891-2.991l-2.57-6.7q-4.389-.064-8.965-.066c-1.648,0-4.1.023-7.363.066l-1.395,3.871a24.2,24.2,0,0,0-1.594,5.528q0,1.2,1.492,1.431c.555.085,1.625.174,3.242.25l.32.325v2.029l-.32.323c-3.914-.128-6.437-.195-7.555-.195-.867,0-3.02.067-6.445.195l-.32-.292v-2.058l.348-.326q3.27-.181,4.016-1.3.744-1.1,5.609-13.236l8.281-20.74c.617-1.613,1.555-4.03,2.8-7.273h4.508l16.832,39.6q.984,2.261,1.781,2.537a9.006,9.006,0,0,0,3.02.392l.277.346v2.029Zm-20.129-17.086-6.8-16.641-6.5,16.641q2.6.1,6.77.1Q4356.861,644.046,4359.371,643.95ZM4328.785,618.8l-.324.315c-2.488,0-3.9.673-4.219,2a31.131,31.131,0,0,0-.375,4.822q-.1,2.766-.1,7.969V643.7q0,9.431-3.715,13.464-4.928,5.336-14.043,5.334-8.326,0-12.984-2.765a10.972,10.972,0,0,1-5.152-6.667q-.756-2.763-.758-14.419v-8.194a72.34,72.34,0,0,0-.41-9.845,1.4,1.4,0,0,0-1.086-1.183c-.316-.074-1.547-.184-3.707-.313l-.324-.314v-2.126l.324-.326q3.047.2,9.777.195,6.867,0,9.746-.195l.324.326V618.8l-.324.314c-2.16.129-3.391.239-3.707.313a1.4,1.4,0,0,0-1.082,1.183,71.432,71.432,0,0,0-.414,9.845V637q0,12,1.078,14.7,2.162,5.332,10.641,5.333,5.561,0,8.676-2.731a7.588,7.588,0,0,0,2.023-2.634,15.369,15.369,0,0,0,.9-4.131,48.957,48.957,0,0,0,.285-5.269v-6.612q0-8.311-.062-11.36a14.717,14.717,0,0,0-.383-3.719,1.863,1.863,0,0,0-1.113-.987,17.955,17.955,0,0,0-3.9-.475l-.328-.314v-2.126l.328-.326c1.844.131,3.727.195,5.68.195,1.461,0,4.27-.063,8.41-.195l.324.326V618.8Zm-51.2,42.236-.312.323q-3.152-.194-9.789-.2c-4.531,0-7.785.066-9.781.2l-.277-.292v-2.157l.313-.315a34.186,34.186,0,0,0,3.719-.327,1.352,1.352,0,0,0,1.07-1.169,68.947,68.947,0,0,0,.426-9.844V625.778l-7.094,14.518q-.6,1.2-4.125,8.9l-5.816,12.693H4243.8c-1.109-2.623-2.59-5.931-4.477-9.942l-4.449-9.431-8.32-17.3v22.04a71.741,71.741,0,0,0,.41,9.844,1.359,1.359,0,0,0,1.082,1.169,34.15,34.15,0,0,0,3.723.327l.313.315v2.157l-.312.292c-2.437-.129-4.711-.2-6.8-.2q-3.662,0-7.34.2l-.312-.292v-2.157l.313-.315a33.705,33.705,0,0,0,3.719-.327,1.375,1.375,0,0,0,1.074-1.169,70.23,70.23,0,0,0,.414-9.844v-16.8a70.141,70.141,0,0,0-.414-9.845,1.407,1.407,0,0,0-1.074-1.183c-.32-.074-1.559-.184-3.719-.312l-.312-.314v-2.16l.313-.292q3.3.2,8.348.195,3.885,0,6.77-.195,1.049,2.423,2.988,6.8l2.031,4.381,10.1,21.126,4.855-9.854,7.586-16.228c.895-1.918,1.758-4,2.613-6.223,2.383.131,4,.195,4.824.195q6.229,0,9.531-.195l.313.292v2.19l-.312.284c-2.16.128-3.4.237-3.723.313a1.392,1.392,0,0,0-1.082,1.182,72.318,72.318,0,0,0-.41,9.843v16.8a72.451,72.451,0,0,0,.41,9.845,1.362,1.362,0,0,0,1.082,1.169,35.045,35.045,0,0,0,3.723.326l.313.314v2.126Zm-81.309,0-.312.323c-2.1-.129-5.355-.2-9.789-.2-4.531,0-7.777.066-9.781.2l-.277-.292v-2.157l.313-.315a33.705,33.705,0,0,0,3.719-.327,1.347,1.347,0,0,0,1.074-1.169,69.787,69.787,0,0,0,.422-9.844V625.778l-7.09,14.518q-.6,1.2-4.129,8.9l-5.812,12.693h-2.125c-1.109-2.623-2.59-5.931-4.473-9.942l-4.445-9.431-8.328-17.3v22.04a72.413,72.413,0,0,0,.41,9.844,1.373,1.373,0,0,0,1.086,1.169,33.9,33.9,0,0,0,3.719.327l.313.315v2.157l-.312.292q-3.656-.194-6.8-.2-3.656,0-7.34.2l-.312-.292v-2.157l.313-.315a33.824,33.824,0,0,0,3.719-.327,1.361,1.361,0,0,0,1.07-1.169,69.6,69.6,0,0,0,.414-9.844v-16.8a69.511,69.511,0,0,0-.414-9.845,1.393,1.393,0,0,0-1.07-1.183c-.324-.074-1.559-.184-3.719-.312l-.312-.314v-2.16l.313-.292q3.3.2,8.352.195,3.885,0,6.762-.195,1.049,2.423,2.988,6.8l2.031,4.381,10.1,21.126,4.855-9.854L4179,622.57c.895-1.918,1.762-4,2.613-6.223,2.391.131,4,.195,4.828.195q6.223,0,9.527-.195l.313.292v2.19l-.312.284c-2.16.128-3.4.237-3.719.313a1.4,1.4,0,0,0-1.086,1.182,72.318,72.318,0,0,0-.41,9.843v16.8a72.451,72.451,0,0,0,.41,9.845,1.366,1.366,0,0,0,1.086,1.169,34.784,34.784,0,0,0,3.719.326l.313.314v2.126Zm-65.32,0-.3.323q-3.176-.194-9.809-.2c-4.4,0-7.672.066-9.777.2l-.3-.323v-2.126l.328-.315a33.321,33.321,0,0,0,3.707-.327,1.369,1.369,0,0,0,1.082-1.169,71.761,71.761,0,0,0,.41-9.844v-16.8a71.669,71.669,0,0,0-.41-9.845,1.4,1.4,0,0,0-1.082-1.183c-.32-.074-1.555-.184-3.707-.313l-.328-.314v-2.16l.328-.292q3.035.2,9.781.195c4.461,0,7.715-.063,9.742-.195l.328.292v2.16l-.328.314c-2.156.129-3.395.239-3.7.313a1.4,1.4,0,0,0-1.09,1.183,72.335,72.335,0,0,0-.41,9.845v16.8a72.423,72.423,0,0,0,.41,9.844,1.368,1.368,0,0,0,1.09,1.169,33.5,33.5,0,0,0,3.7.327l.328.315Zm-25.168-10.484a71.205,71.205,0,0,0-.691,10.484l-.328.323-23.078-.2q-5.789,0-8.164.2l-.324-.323v-.891l.16-.38a10.793,10.793,0,0,0,2.543-1.875,16.4,16.4,0,0,0,.352-4.216l.09-7.123v-16.1a70.141,70.141,0,0,0-.414-9.845,1.393,1.393,0,0,0-1.07-1.183c-.328-.074-1.559-.184-3.723-.313l-.309-.314v-2.16l.309-.292c2.184.131,5.375.195,9.6.195,4.355,0,7.676-.063,9.941-.195l.313.292v2.19l-.312.284c-2.168.128-3.4.237-3.723.313a1.4,1.4,0,0,0-1.082,1.182,71.648,71.648,0,0,0-.41,9.843v18.993q0,4.165.164,8.067h4.313q9.281,0,11.371-.727a1,1,0,0,0,.508-.358,5.646,5.646,0,0,0,.605-1.9l.762-3.946.316-.347h1.938l.348.315Zm-41.031-32.133a11.083,11.083,0,0,1-.219,1.55l-.379,2.039-1.809,9.4h-2.168l-1.52-9.4c-.062-.368-.2-1.04-.383-2.039a12.217,12.217,0,0,1-.223-1.55,3.2,3.2,0,0,1,.984-2.375,3.291,3.291,0,0,1,2.383-.963,3.292,3.292,0,0,1,3.332,3.338Zm-12.3,42.617-.281.323c-4.7-.129-7.527-.2-8.512-.2q-5.836,0-10.859.2l-.285-.323v-2l.32-.356,2.762-.151c1.16-.066,1.746-.478,1.746-1.236a11.678,11.678,0,0,0-.887-2.991l-2.574-6.7c-2.922-.043-5.9-.064-8.961-.064q-2.473,0-7.359.064l-1.4,3.871a24.421,24.421,0,0,0-1.594,5.528q0,1.2,1.5,1.431c.551.085,1.629.174,3.242.249l.313.327v2.028l-.312.324c-3.914-.129-6.437-.195-7.551-.195-.871,0-3.031.066-6.457.195l-.312-.292v-2.059l.348-.325c2.18-.12,3.52-.552,4.008-1.3s2.379-5.15,5.621-13.237l8.281-20.74c.617-1.614,1.551-4.031,2.8-7.274h4.512l16.836,39.6c.648,1.508,1.242,2.355,1.77,2.538a9.044,9.044,0,0,0,3.016.391l.281.347v2.028Zm-20.129-17.088-6.8-16.64-6.5,16.64q2.6.1,6.762.1Q4029.824,644.045,4032.332,643.947Zm-24.227-27.406a31.678,31.678,0,0,0-.418,4.856l-.059,5.3-.32.324h-2l-.348-.292a37.137,37.137,0,0,0-.348-4.758,2.2,2.2,0,0,0-2.035-1.5c-.426-.065-2.422-.1-5.969-.1h-4.258c-.039.75-.062,3.688-.062,8.837v18.038a71.751,71.751,0,0,0,.41,9.844,1.359,1.359,0,0,0,1.082,1.169,34.113,34.113,0,0,0,3.707.327l.332.315v2.126l-.332.323c-2.086-.129-5.355-.2-9.773-.2q-6.8,0-9.777.2l-.293-.292v-2.157l.324-.315a33.087,33.087,0,0,0,3.707-.327,1.359,1.359,0,0,0,1.082-1.169,72.2,72.2,0,0,0,.414-9.844V629.217c0-5.238-.031-8.174-.1-8.837h-4.539q-5.678,0-6.633.359a1.34,1.34,0,0,0-.7.465,5.986,5.986,0,0,0-.477,2.04c-.152,1.115-.246,2.275-.293,3.458l-.312.325h-2.008l-.348-.325-.062-5.431a35.835,35.835,0,0,0-.383-4.728l.293-.324q1.875.323,13.648.324h12.867q10.869,0,13.664-.324l.316.324Zm751.906-75.611-.359.315c-2.172.131-3.41.24-3.723.317a1.409,1.409,0,0,0-1.094,1.187,72.957,72.957,0,0,0-.41,9.888v12.948q0,14.324.41,18.664l-.41.293c-2.406-.4-4.227-.7-5.457-.858q-8.543-9.6-29.2-35.034v20.866a72.168,72.168,0,0,0,.414,9.887,1.38,1.38,0,0,0,1.09,1.177,34.11,34.11,0,0,0,3.734.327l.313.314v2.169l-.312.294q-3.674-.2-6.828-.2c-2.453,0-4.9.065-7.375.2l-.312-.294v-2.169l.313-.314a33.851,33.851,0,0,0,3.734-.327,1.361,1.361,0,0,0,1.082-1.177,70.41,70.41,0,0,0,.422-9.887V552.637a70.292,70.292,0,0,0-.422-9.888,1.383,1.383,0,0,0-1.082-1.187c-.312-.077-1.562-.187-3.734-.317l-.312-.315v-2.166l.313-.294c2.031.13,3.949.2,5.777.2q4.3,0,7.152-.2,11.479,15.323,26.98,32.834V552.639a72.017,72.017,0,0,0-.414-9.887,1.4,1.4,0,0,0-1.074-1.187c-.328-.077-1.57-.186-3.734-.316l-.332-.316v-2.167l.332-.293q3.563.2,6.793.2,4.113,0,7.391-.2l.332.293v2.167Zm-53.891,42.428-.285.328c-4.727-.132-7.57-.2-8.547-.2q-5.871,0-10.918.2l-.277-.328v-2l.313-.359,2.777-.152c1.172-.064,1.754-.479,1.754-1.241a11.493,11.493,0,0,0-.9-3.007l-2.574-6.729c-2.941-.043-5.937-.066-9.008-.066-1.656,0-4.117.022-7.4.066l-1.4,3.887a24.716,24.716,0,0,0-1.6,5.555q0,1.208,1.5,1.437c.555.086,1.629.174,3.258.25l.313.328v2.036l-.312.327q-5.9-.2-7.594-.2c-.867,0-3.031.065-6.477.2l-.312-.293v-2.07l.348-.328c2.188-.12,3.539-.555,4.031-1.307s2.383-5.174,5.633-13.295l8.324-20.833c.621-1.622,1.559-4.049,2.809-7.305h4.531l16.91,39.78c.656,1.515,1.25,2.362,1.789,2.547a8.978,8.978,0,0,0,3.027.393l.285.349v2.036Zm-20.23-17.161-6.824-16.717-6.531,16.717q2.607.1,6.8.1c2.7,0,4.887-.032,6.563-.1Zm-32.156,1.186-.312.35c-1.32.315-2.086.761-2.3,1.317s-.324,2.723-.324,6.469q0,2.71.262,5.357a55.365,55.365,0,0,1-19.332,4.018q-11.432,0-18.488-6.392-7.072-6.4-7.07-17.445,0-14.377,12.473-20.506,5.719-2.812,14.516-2.811a49.673,49.673,0,0,1,10.344,1.112,31.891,31.891,0,0,1,6.8,2.113l.285.564a53.7,53.7,0,0,0-1.379,9.768l-.348.316h-1.91l-.32-.316c0-.4-.047-1.242-.129-2.5a18.645,18.645,0,0,0-.316-2.669,10.629,10.629,0,0,0-4.793-3.244,21.532,21.532,0,0,0-7.848-1.407q-11.291,0-15.594,9.114a22.745,22.745,0,0,0-1.988,9.768q0,8.873,4.73,14.714a15.687,15.687,0,0,0,12.793,6.054,19.211,19.211,0,0,0,8.07-1.785c.141-1.492.219-3.528.219-6.121a18.771,18.771,0,0,0-.219-3.833c-.129-.337-.535-.587-1.219-.729a53.348,53.348,0,0,0-5.387-.48l-.355-.327v-2l.355-.315c3.09.077,6.313.109,9.7.088q2.936-.035,8.777-.088l.313.315v1.535Zm-53.727,5.445a70.663,70.663,0,0,0-.7,10.53l-.32.328-23.187-.2q-5.812,0-8.2.2l-.332-.328v-.894l.164-.38a10.8,10.8,0,0,0,2.551-1.884,16.373,16.373,0,0,0,.359-4.237l.09-7.153V552.639a71.377,71.377,0,0,0-.414-9.888,1.407,1.407,0,0,0-1.082-1.187c-.32-.077-1.566-.187-3.73-.317l-.32-.315v-2.167l.32-.293q3.281.2,9.633.2,6.568,0,9.988-.2l.316.293v2.2l-.316.281c-2.176.132-3.418.24-3.734.317a1.391,1.391,0,0,0-1.09,1.187,72.036,72.036,0,0,0-.414,9.888v19.078q0,4.182.168,8.1h4.328c6.219,0,10.02-.239,11.43-.73a1.017,1.017,0,0,0,.508-.359,5.916,5.916,0,0,0,.613-1.9l.762-3.965.313-.348h1.953Zm-39.75,10.53-.293.328q-3.187-.2-9.855-.2-6.639,0-9.824.2l-.293-.328v-2.135l.328-.315a33.279,33.279,0,0,0,3.723-.327,1.369,1.369,0,0,0,1.086-1.176,71.516,71.516,0,0,0,.414-9.887V552.639a71.377,71.377,0,0,0-.414-9.888,1.392,1.392,0,0,0-1.086-1.187c-.316-.077-1.555-.187-3.723-.317l-.328-.315v-2.167l.328-.293q3.053.2,9.824.2,6.727,0,9.789-.2l.324.293v2.167l-.324.315c-2.172.132-3.414.24-3.723.317a1.391,1.391,0,0,0-1.09,1.187,72.036,72.036,0,0,0-.414,9.888v16.879a72.178,72.178,0,0,0,.414,9.887,1.369,1.369,0,0,0,1.09,1.176,33.448,33.448,0,0,0,3.723.327l.324.315Zm-23.773,0-.316.328c-.148,0-.555-.011-1.211-.033-2.914-.11-4.738-.163-5.453-.163-1.09,0-2.809.065-5.176.2a9.062,9.062,0,0,0-1.207-2.559l-7.918-13.209-3.535-5.39a9.158,9.158,0,0,0-1.887-1.95l.348-1.078c.488.022.855.033,1.09.033a10.284,10.284,0,0,0,4.91-.99,8.484,8.484,0,0,0,3.008-3.126,10.1,10.1,0,0,0,1.359-5.325q0-5.391-4.02-7.274a13.569,13.569,0,0,0-5.578-.895,17.488,17.488,0,0,0-3.066.25c-.207,2.081-.316,5.641-.316,10.662v16.685a73.113,73.113,0,0,0,.41,9.888,1.388,1.388,0,0,0,1.094,1.175,33.561,33.561,0,0,0,3.734.327l.316.315v2.135l-.289.329q-3.193-.2-9.828-.2-6.861,0-9.824.2l-.312-.3v-2.169l.313-.315a34.136,34.136,0,0,0,3.742-.327,1.38,1.38,0,0,0,1.074-1.175,71.116,71.116,0,0,0,.41-9.888V552.642a70.96,70.96,0,0,0-.41-9.888,1.4,1.4,0,0,0-1.074-1.187c-.332-.078-1.57-.187-3.742-.317l-.312-.316v-2.166l.313-.294q3.123.2,9.824.2c2.59,0,4.7-.033,6.32-.1,3.207-.129,5.613-.195,7.2-.195a24.532,24.532,0,0,1,8.1.99,7.565,7.565,0,0,1,4.66,4.531,10.755,10.755,0,0,1,.578,3.7q0,8.674-9.754,12.317c1.051,1.786,2.184,3.592,3.375,5.421l4.91,7.559q4.342,6.7,5.77,7.633a3.787,3.787,0,0,0,2.047.468l.32.329v2.036Zm-48.3,0-.289.328c-2.121-.132-5.414-.2-9.855-.2q-6.633,0-9.82.2l-.293-.328v-2.135l.324-.315a33.279,33.279,0,0,0,3.723-.327,1.368,1.368,0,0,0,1.09-1.176,72.178,72.178,0,0,0,.414-9.887V552.639a72.036,72.036,0,0,0-.414-9.888,1.411,1.411,0,0,0-1.09-1.187c-.312-.077-1.559-.187-3.723-.317l-.324-.315v-2.167l.324-.293c2.035.13,5.316.2,9.82.2,4.484,0,7.758-.066,9.789-.2l.332.293v2.167l-.332.315c-2.164.132-3.41.24-3.723.317a1.41,1.41,0,0,0-1.09,1.187,73.188,73.188,0,0,0-.406,9.888v16.879a73.331,73.331,0,0,0,.406,9.887,1.388,1.388,0,0,0,1.09,1.176,33.923,33.923,0,0,0,3.723.327l.332.315v2.135Zm-24.148-44.691a31.45,31.45,0,0,0-.414,4.877l-.07,5.325-.309.328h-2.016l-.348-.293a39.151,39.151,0,0,0-.348-4.779,2.216,2.216,0,0,0-2.047-1.5q-.65-.1-6.008-.1h-4.266c-.043.751-.066,3.7-.066,8.875V569.52a72.831,72.831,0,0,0,.414,9.887,1.388,1.388,0,0,0,1.09,1.177,33.736,33.736,0,0,0,3.723.328l.328.314v2.135l-.328.329c-2.1-.133-5.383-.2-9.824-.2-4.547,0-7.828.064-9.82.2l-.289-.3v-2.168l.32-.314a33.357,33.357,0,0,0,3.727-.328,1.378,1.378,0,0,0,1.09-1.177,72.158,72.158,0,0,0,.414-9.887V551.4c0-5.259-.035-8.212-.1-8.875h-4.562q-5.7,0-6.668.359a1.359,1.359,0,0,0-.7.468,6.135,6.135,0,0,0-.477,2.046c-.152,1.122-.25,2.287-.3,3.474l-.312.328h-2.02l-.348-.328-.062-5.454a36.122,36.122,0,0,0-.379-4.749l.289-.328q1.887.326,13.715.328H4450q10.91,0,13.719-.328l.32.328Zm-44.309,44.691-.332.328q-3.152-.2-9.82-.2-6.826,0-9.82.2l-.332-.294v-2.169l.348-.315a33.08,33.08,0,0,0,3.734-.327,1.368,1.368,0,0,0,1.094-1.176,73.09,73.09,0,0,0,.41-9.887v-7.689q-1.629-.163-10.332-.164c-5.355,0-8.895.055-10.594.164v7.689a73.09,73.09,0,0,0,.41,9.887,1.389,1.389,0,0,0,1.086,1.176,34.212,34.212,0,0,0,3.742.327l.313.315v2.135l-.285.328q-3.193-.2-9.828-.2c-4.57,0-7.852.064-9.824.2l-.312-.294v-2.169l.313-.315a33.9,33.9,0,0,0,3.734-.327,1.37,1.37,0,0,0,1.074-1.176,69.387,69.387,0,0,0,.418-9.887V552.639a69.254,69.254,0,0,0-.418-9.888,1.394,1.394,0,0,0-1.074-1.187c-.324-.077-1.566-.187-3.734-.317l-.312-.315v-2.167l.313-.293c2.035.13,5.316.2,9.824.2q6.92,0,9.828-.2l.285.293v2.2l-.312.281c-2.176.132-3.422.24-3.742.317a1.411,1.411,0,0,0-1.086,1.187,72.947,72.947,0,0,0-.41,9.888V557.9q3.381.164,9.32.163,9.311,0,11.613-.163v-5.259a71.148,71.148,0,0,0-.418-9.888,1.392,1.392,0,0,0-1.086-1.187c-.32-.077-1.559-.187-3.742-.317l-.34-.315v-2.167l.324-.293q3.088.2,9.82.2,6.961,0,9.82-.2l.332.293v2.2l-.293.281c-2.211.132-3.465.24-3.762.317a1.391,1.391,0,0,0-1.086,1.187,70.1,70.1,0,0,0-.414,9.888v16.879a70.23,70.23,0,0,0,.414,9.887,1.374,1.374,0,0,0,1.086,1.176,33.8,33.8,0,0,0,3.723.327l.332.315Zm-55.8-14.613a15.061,15.061,0,0,1-3.008,9.289,15.592,15.592,0,0,1-6.859,5.26,24.344,24.344,0,0,1-9.277,1.6,30.366,30.366,0,0,1-13.141-3.06l-.383-.708a47.486,47.486,0,0,0,.891-10.433l.316-.316h2.039l.293.316v.742a39.256,39.256,0,0,0,.379,4.713,9.1,9.1,0,0,0,4.117,3.508,14.349,14.349,0,0,0,6.449,1.535c4.2,0,7.121-1.47,8.734-4.4a9.561,9.561,0,0,0,1.25-4.694,6.059,6.059,0,0,0-3.418-5.835,19.012,19.012,0,0,0-5.457-1.438q-8.514-1.305-11.2-3.288-4.043-2.99-4.047-9.279a13.224,13.224,0,0,1,4.4-10.433q4.652-4.083,12.957-4.083,7.459,0,12.055,2.4l.215.763a56.859,56.859,0,0,0-.914,9.126l-.359.316h-2l-.332-.316a35.753,35.753,0,0,0-.316-4.977,7.5,7.5,0,0,0-3.441-2.56,14.123,14.123,0,0,0-5.449-1.078,9.666,9.666,0,0,0-6.77,2.266,7.159,7.159,0,0,0-2.324,5.521,5.98,5.98,0,0,0,2.645,5.391q1.717,1.109,8.137,2.134c.441.065,1.688.272,3.734.643a18.013,18.013,0,0,1,3.469.916,9.642,9.642,0,0,1,4.852,3.7,12.134,12.134,0,0,1,1.766,6.763Zm-38.066,14.613-.285.328c-4.727-.132-7.57-.2-8.551-.2-3.9,0-7.547.064-10.906.2l-.289-.328v-2l.316-.359,2.773-.152c1.168-.064,1.762-.479,1.762-1.241a11.66,11.66,0,0,0-.9-3.007l-2.578-6.729c-2.941-.043-5.937-.066-9.012-.066q-2.479,0-7.395.066l-1.4,3.887a24.716,24.716,0,0,0-1.6,5.555q0,1.208,1.5,1.437c.551.086,1.633.174,3.25.25l.32.328v2.036l-.32.327c-3.93-.131-6.465-.2-7.586-.2-.867,0-3.043.065-6.48.2l-.32-.293v-2.07l.348-.328c2.191-.12,3.543-.555,4.031-1.307q.756-1.109,5.641-13.295l8.328-20.833c.617-1.622,1.551-4.049,2.8-7.305h4.527l16.918,39.78q.984,2.272,1.781,2.547a9.034,9.034,0,0,0,3.031.393l.285.349v2.036ZM4305.633,566.2,4298.8,549.48l-6.531,16.717q2.613.1,6.793.1Q4303.115,566.294,4305.633,566.2Zm-31.461,6.631a71.226,71.226,0,0,0-.7,10.53l-.328.328-23.18-.2q-5.818,0-8.2.2l-.324-.328v-.894l.164-.38a10.954,10.954,0,0,0,2.543-1.884,15.992,15.992,0,0,0,.359-4.237l.09-7.153V552.639a70.73,70.73,0,0,0-.414-9.888,1.413,1.413,0,0,0-1.078-1.187c-.328-.077-1.566-.187-3.738-.317l-.312-.315v-2.167l.313-.293q3.287.2,9.641.2,6.568,0,9.984-.2l.32.293v2.2l-.32.281c-2.176.132-3.422.24-3.734.317a1.391,1.391,0,0,0-1.086,1.187,72.47,72.47,0,0,0-.418,9.888v19.078q0,4.182.164,8.1h4.336c6.223,0,10.02-.239,11.426-.73a1.066,1.066,0,0,0,.512-.359,5.746,5.746,0,0,0,.609-1.9l.762-3.965.316-.348h1.945Zm-40.574-4.083a15.108,15.108,0,0,1-3,9.289,15.617,15.617,0,0,1-6.867,5.259,24.269,24.269,0,0,1-9.277,1.6,30.373,30.373,0,0,1-13.141-3.06l-.383-.708a47.018,47.018,0,0,0,.891-10.433l.32-.317h2.035l.293.317v.741a38.593,38.593,0,0,0,.383,4.714,9.073,9.073,0,0,0,4.121,3.507,14.305,14.305,0,0,0,6.441,1.536q6.3,0,8.734-4.4a9.567,9.567,0,0,0,1.25-4.7,6.051,6.051,0,0,0-3.418-5.834,19,19,0,0,0-5.457-1.438q-8.514-1.306-11.2-3.287-4.049-2.99-4.051-9.278a13.225,13.225,0,0,1,4.4-10.434q4.652-4.083,12.957-4.084,7.465,0,12.055,2.4l.219.763a56.377,56.377,0,0,0-.918,9.125l-.359.316h-2l-.328-.316a37.07,37.07,0,0,0-.316-4.977,7.545,7.545,0,0,0-3.437-2.56,14.191,14.191,0,0,0-5.457-1.078,9.642,9.642,0,0,0-6.766,2.264A7.153,7.153,0,0,0,4209,549.2a5.982,5.982,0,0,0,2.645,5.392q1.717,1.11,8.137,2.132c.449.066,1.688.273,3.734.644a18.13,18.13,0,0,1,3.473.915,9.652,9.652,0,0,1,4.848,3.7,12.133,12.133,0,0,1,1.762,6.763Zm-39.5-8.832q0,11.775-6.863,18.469-6.656,6.52-18.215,6.513-10.916,0-17.129-6.143-6.229-6.141-6.238-17.086,0-15.339,11.719-21.245a28.983,28.983,0,0,1,13.117-2.68c7.41,0,13.2,1.94,17.324,5.838Q4194.086,549.507,4194.1,559.914Zm-9.832,1.655q0-9.245-3.719-14.69c-2.484-3.627-6.105-5.433-10.891-5.433q-9.486,0-12.574,8.516a28.385,28.385,0,0,0-1.594,9.79q0,9.867,3.641,15.572,3.756,5.9,11.258,5.9,9.1,0,12.219-8.96a32.228,32.228,0,0,0,1.66-10.7Zm-45.008,7.177a15.087,15.087,0,0,1-3.008,9.289,15.584,15.584,0,0,1-6.863,5.259,24.3,24.3,0,0,1-9.277,1.6,30.39,30.39,0,0,1-13.145-3.06l-.383-.708a46.976,46.976,0,0,0,.895-10.433l.316-.317h2.035l.3.317v.741a39.941,39.941,0,0,0,.375,4.714,9.115,9.115,0,0,0,4.121,3.507,14.333,14.333,0,0,0,6.445,1.536c4.2,0,7.121-1.47,8.73-4.4a9.484,9.484,0,0,0,1.25-4.7,6.048,6.048,0,0,0-3.414-5.834,18.992,18.992,0,0,0-5.461-1.438q-8.5-1.306-11.191-3.287c-2.7-1.994-4.055-5.087-4.055-9.278a13.25,13.25,0,0,1,4.4-10.434q4.658-4.083,12.957-4.084,7.471,0,12.059,2.4l.219.763a55.55,55.55,0,0,0-.914,9.125l-.359.316h-2l-.324-.316a36.155,36.155,0,0,0-.32-4.977,7.537,7.537,0,0,0-3.441-2.56,14.191,14.191,0,0,0-5.457-1.078,9.645,9.645,0,0,0-6.762,2.264,7.153,7.153,0,0,0-2.328,5.522,5.985,5.985,0,0,0,2.648,5.392q1.705,1.11,8.137,2.132c.441.066,1.688.273,3.727.644a18.019,18.019,0,0,1,3.477.915,9.679,9.679,0,0,1,4.852,3.7A12.2,12.2,0,0,1,4139.262,568.746ZM4100.18,583.36l-.3.327q-3.187-.2-9.852-.2-6.645,0-9.832.2l-.289-.327v-2.135l.324-.315a33.34,33.34,0,0,0,3.727-.328,1.376,1.376,0,0,0,1.09-1.177,72.832,72.832,0,0,0,.414-9.887V552.639a72.688,72.688,0,0,0-.414-9.887,1.4,1.4,0,0,0-1.09-1.187c-.316-.077-1.559-.186-3.727-.316l-.324-.316v-2.167l.324-.293c2.039.131,5.32.2,9.824.2,4.484,0,7.754-.066,9.789-.2l.332.293v2.167l-.332.316c-2.164.131-3.41.239-3.723.316a1.4,1.4,0,0,0-1.09,1.188,72.017,72.017,0,0,0-.414,9.887v16.879a72.159,72.159,0,0,0,.414,9.887,1.377,1.377,0,0,0,1.09,1.177,33.617,33.617,0,0,0,3.723.328l.332.315Zm-24.164-44.691a32.428,32.428,0,0,0-.406,4.877l-.07,5.325-.312.328h-2.012l-.355-.293a36.685,36.685,0,0,0-.348-4.78,2.2,2.2,0,0,0-2.047-1.5q-.639-.1-6-.1h-4.27c-.039.75-.062,3.7-.062,8.875v18.121a72.2,72.2,0,0,0,.414,9.888,1.37,1.37,0,0,0,1.09,1.175,33.53,33.53,0,0,0,3.723.327l.324.315v2.135l-.324.329c-2.1-.133-5.379-.2-9.82-.2-4.551,0-7.832.064-9.824.2l-.3-.3v-2.169l.332-.315a33.146,33.146,0,0,0,3.723-.327,1.383,1.383,0,0,0,1.09-1.175,72.2,72.2,0,0,0,.414-9.888V551.4c0-5.259-.035-8.212-.1-8.875h-4.562q-5.7,0-6.668.359a1.323,1.323,0,0,0-.7.469,6.2,6.2,0,0,0-.48,2.046c-.152,1.121-.246,2.286-.293,3.475l-.312.327h-2.02l-.348-.327-.062-5.456a36.811,36.811,0,0,0-.379-4.749l.289-.328c1.25.216,5.828.328,13.711.328h12.926q10.916,0,13.723-.328l.316.328Zm-43.449,44.595-.324.325-6.5-.1c-1.07-.022-2.926.011-5.59.1a42.677,42.677,0,0,1-3.121-5.2l-6.645-12.282-2.512,3.6q-4.787,6.862-8.867,13.884-1.471-.1-2.937-.1c-1.984,0-3.426.032-4.332.1l-.332-.327v-2.038l.332-.348a9.481,9.481,0,0,0,3.156-.544q.943-.606,4.332-5.205l4.18-5.641q.252-.325,5.105-6.892l-2.426-4.279-3.9-6.729q-4.131-7.141-6.316-8.453a2.875,2.875,0,0,0-1.527-.445c-.422,0-1.086.032-1.98.1l-.414-.325-.246-1.689.281-.479c2.992-.61,6.855-1.47,11.574-2.549a14.908,14.908,0,0,1,4.148,4.717c.684,1.11,1.754,3.006,3.188,5.684l3.613,6.7,4.148-6.065q5.139-7.513,6.672-10.237c.871.085,1.734.131,2.582.131,1.422,0,2.875-.046,4.332-.131l.324.315v2.113l-.324.315a6.544,6.544,0,0,0-2.922.478,17.172,17.172,0,0,0-2.785,3.026q-2.068,2.581-5.457,7.177-1.875,2.563-4.59,6.349,1.594,2.94,4.563,8.265l4.082,7.023q3.381,5.8,4.254,6.555a4.368,4.368,0,0,0,2.855.753l.324.315v2.038Z" transform="translate(-3561.536 -482.74)" fill="#e2cdaf" fill-rule="evenodd"/>
    </g>
  </g>
</svg>
